Light.Mono.sfdir
StartChar: .notdef
Encoding: 0 0 2
Width: 500
Flags: HW
LayerCount: 2
Fore
SplineSet
81 372.5 m 0
 81 308.343360518 84 149.072266836 84 146.815219648 c 0
 84 117.86546498 85.0859950395 -62.6966350853 111.712556601 -137.88965167 c 0
 116.187336361 -150.52636362 121.251953259 -157.27416426 122.754679497 -158.367056069 c 0
 123.511864602 -158.917736146 139.249651334 -169 215.774670964 -169 c 0
 285.122270425 -169 344.293109568 -163.004896643 395.632211793 -151.212129194 c 1
 409.39534214 -115.41165874 411 75.366862606 411 188.548448399 c 0
 411 242.911799289 410.273559015 631.939919472 389.153115126 703.565772663 c 0
 385.703436687 715.26468215 383.135477138 723.973414535 312.608225498 733.832062614 c 0
 311.130253242 734.038660886 170.558996218 757 165.183346174 757 c 0
 147.031465467 757 141.388084808 752.219306624 128.03514023 727.68715263 c 0
 98.8153961435 674.004366984 84 627.59824863 84 597.806304483 c 0
 84 595.553041719 81 486.995118384 81 372.5 c 0
137 643.653212483 m 0
 137 688.012779495 174.371675304 688.012779495 186.147179435 688.012779495 c 0
 187.708171364 688.012779495 189.218015103 688 190.668086263 688 c 0
 228.755786897 688 285.90163473 680.728716529 313.042957834 673.199556967 c 0
 332.623633709 667.76776455 341.708990428 665.247434198 350.908340384 607.698552682 c 0
 356.267358306 574.173848332 360 528.486040811 360 480.99760766 c 0
 360 384.717203544 376 260.168507005 376 198 c 2
 376 9.51786010628 l 1
 312.303022477 167.850347091 l 1
 263.021676587 266.533785259 244.729897426 336.084023302 225.80768191 408.224969955 c 0
 196.177475989 521.190130028 137 590.053723193 137 643.653212483 c 0
143 56 m 2
 143 125.447846498 150 221.651921307 150 269 c 2
 150 269.792774023 l 1
 165.550542278 418.386844682 l 1
 211.964224813 298.484831466 l 1
 300.870413051 76.213339581 325 -10.7963658074 325 -51.5 c 0
 325 -92 290.550730389 -92 276.333333333 -92 c 0
 264.520802611 -92 249.725399291 -91 233 -91 c 2
 143 -91 l 1
 143 56 l 2
EndSplineSet
EndChar
StartChar: exclam
Encoding: 33 33 0
Width: 500
Flags: HW
HStem: -3 88.7998<240.365 301.852>
VStem: 206.5 87.0996<260.193 711.896> 215.5 86<178.773 501.556> 224.3 89.2998<170.516 463.887>
LayerCount: 2
Back
Fore
SplineSet
266 694 m 1
 266 694 l 1
 271 684 l 1
 271 676 l 1
 271 639 l 1
 277 565 l 1
 276 558 l 1
 275 511 l 1
 276 469 l 1
 281 425 l 1
 288 381 l 1
 294 333 l 1
 293 284 l 1
 293 236 l 1
 294 202 l 1
 292 195 l 1
 284 186 l 1
 271 181 l 1
 257 185 l 1
 248 193 l 1
 245 201 l 1
 243 229 l 1
 243 252 l 1
 243 279 l 1
 244 323 l 1
 239 368 l 1
 232 413 l 1
 230 429 l 1
 227 460 l 1
 226 474 l 1
 225 508 l 1
 225 520 l 1
 226 554 l 1
 222 633 l 1
 221 648 l 1
 221 676 l 1
 222 684 l 1
 227 694 l 1
 238 701 l 1
 254 701 l 1
 255 701 l 1
 266 694 l 1
249 83 m 1
 248 83 l 1
 254 81 l 1
 263 76 l 1
 265 74 l 1
 268 72 l 1
 269 70 l 1
 272 66 l 1
 280 66 l 1
 291 59 l 1
 297 46 l 1
 297 36 l 1
 292 25 l 1
 287 20 l 1
 275 14 l 1
 270 13 l 1
 258 13 l 1
 253 14 l 1
 244 18 l 1
 240 20 l 1
 236 25 l 1
 233 29 l 1
 231 35 l 1
 221 40 l 1
 214 51 l 1
 214 67 l 1
 221 78 l 1
 232 83 l 1
 240 84 l 1
 249 83 l 1
EndSplineSet
EndChar
StartChar: quotedbl
Encoding: 34 34 1
Width: 500
Flags: HW
HStem: 499.8 214.3
VStem: 112 88<567.197 708.868> 114.1 97.9004<512.553 697.364> 317.5 94<538.5 698.216> 330.1 81.4004<538.5 664.215>
LayerCount: 2
Back
Fore
SplineSet
381 681 m 1
 385 671 l 1
 387 667 l 1
 390 637 l 1
 392 608 l 1
 392 547 l 1
 391 542 l 1
 386 532 l 1
 375 525 l 1
 359 525 l 1
 348 532 l 1
 343 542 l 1
 342 547 l 1
 342 605 l 1
 340 633 l 1
 337 664 l 1
 338 670 l 1
 343 681 l 1
 354 688 l 1
 370 688 l 1
 381 681 l 1
173 689 m 1
 178 679 l 1
 179 674 l 1
 179 639 l 1
 180 610 l 1
 184 578 l 1
 193 544 l 1
 190 532 l 1
 178 520 l 1
 163 518 l 1
 149 525 l 1
 142 536 l 1
 142 542 l 1
 135 570 l 1
 134 571 l 1
 130 605 l 1
 130 606 l 1
 129 639 l 1
 129 674 l 1
 130 679 l 1
 135 689 l 1
 146 696 l 1
 162 696 l 1
 173 689 l 1
EndSplineSet
EndChar
StartChar: numbersign
Encoding: 35 35 3
Width: 500
VWidth: 0
InSpiro: 1
Flags: HW
HStem: 120 90<41.8816 78.987 179 304.027 405.8 450.652> 345 90.4004<37.7087 95 187 313.5 404.2 445.99> 352.7 84.0996<404.207 463.571>
VStem: 76.4004 90<14.3921 119.887> 90.5 89.5<214 343.883 459.127 540.6> 97 90<214.208 344.3 435.531 540.6> 296.9 90.3994<7.5 116.641> 314.4 90.0996<212.738 345 436.5 553.651> 325.1 87<436.914 577.121>
LayerCount: 2
Back
Fore
SplineSet
154 547 m 1
 154 547 l 1
 159 537 l 1
 160 517 l 1
 167 403 l 1
 166 375 l 1
 162 242 l 1
 151 109 l 1
 141 18 l 1
 139 12 l 1
 131 2 l 1
 117 -2 l 1
 103 2 l 1
 95 12 l 1
 92 20 l 1
 100 107 l 1
 111 240 l 1
 116 369 l 1
 111 503 l 1
 110 536 l 1
 115 546 l 1
 126 554 l 1
 142 554 l 1
 143 554 l 1
 154 547 l 1
388 556 m 1
 388 556 l 1
 393 546 l 1
 392 522 l 1
 384 385 l 1
 383 250 l 1
 381 147 l 1
 376 106 l 1
 364 13 l 1
 361 7 l 1
 354 -2 l 1
 340 -6 l 1
 326 -2 l 1
 318 8 l 1
 315 16 l 1
 325 105 l 1
 333 241 l 1
 334 376 l 1
 342 514 l 1
 344 546 l 1
 349 555 l 1
 360 563 l 1
 376 563 l 1
 377 563 l 1
 388 556 l 1
433 416 m 1
 443 411 l 1
 450 400 l 1
 450 384 l 1
 443 373 l 1
 433 368 l 1
 428 367 l 1
 336 365 l 1
 247 364 l 1
 158 364 l 1
 66 365 l 1
 61 366 l 1
 51 371 l 1
 44 382 l 1
 44 398 l 1
 51 409 l 1
 61 414 l 1
 67 415 l 1
 158 414 l 1
 247 414 l 1
 335 415 l 1
 427 417 l 1
 433 416 l 1
162 190 m 1
 245 190 l 1
 329 191 l 1
 330 191 l 1
 416 188 l 1
 421 187 l 1
 431 182 l 1
 438 171 l 1
 438 155 l 1
 431 144 l 1
 421 139 l 1
 415 138 l 1
 328 141 l 1
 245 140 l 1
 160 140 l 1
 74 144 l 1
 69 145 l 1
 59 150 l 1
 52 161 l 1
 52 177 l 1
 59 188 l 1
 69 193 l 1
 75 194 l 1
 162 190 l 1
EndSplineSet
EndChar
StartChar: dollar
Encoding: 36 36 4
Width: 500
InSpiro: 1
Flags: HW
HStem: -3 90.2002<103.371 211.995>
VStem: 69.4004 90<392.82 520.961> 205.2 93.2998<124.452 227.997> 211.1 89.9004<-55.5684 -3 108.9 227.562 367.907 529.741>
LayerCount: 2
Back
Fore
SplineSet
353 606 m 1
 360 604 l 1
 422 564 l 1
 426 559 l 1
 431 549 l 1
 431 539 l 1
 425 526 l 1
 414 519 l 1
 402 519 l 1
 395 521 l 1
 338 558 l 1
 280 568 l 1
 223 561 l 1
 168 536 l 1
 142 491 l 1
 142 435 l 1
 166 381 l 1
 205 346 l 1
 260 319 l 1
 259 319 l 1
 316 296 l 1
 318 295 l 1
 370 265 l 1
 372 263 l 1
 375 261 l 1
 376 260 l 1
 416 208 l 1
 418 201 l 1
 418 196 l 1
 416 132 l 1
 416 128 l 1
 413 120 l 1
 370 71 l 1
 370 70 l 1
 367 67 l 1
 364 65 l 1
 300 32 l 1
 295 32 l 1
 296 31 l 1
 233 18 l 1
 231 18 l 1
 204 17 l 1
 175 17 l 1
 149 21 l 1
 149 22 l 1
 145 22 l 1
 115 34 l 1
 109 40 l 1
 103 52 l 1
 105 67 l 1
 113 75 l 1
 116 77 l 1
 124 81 l 1
 134 81 l 1
 158 71 l 1
 182 67 l 1
 203 67 l 1
 228 68 l 1
 281 80 l 1
 335 108 l 1
 366 143 l 1
 367 188 l 1
 340 224 l 1
 293 251 l 1
 293 252 l 1
 239 273 l 1
 238 273 l 1
 179 302 l 1
 174 309 l 1
 136 343 l 1
 125 350 l 1
 93 422 l 1
 92 427 l 1
 92 430 l 1
 93 497 l 1
 93 501 l 1
 95 507 l 1
 131 570 l 1
 133 572 l 1
 136 576 l 1
 140 578 l 1
 205 608 l 1
 210 609 l 1
 281 618 l 1
 284 618 l 1
 353 606 l 1
250 703 m 1
 250 703 l 1
 259 692 l 1
 263 685 l 1
 271 633 l 1
 285 549 l 1
 286 486 l 1
 286 371 l 1
 287 254 l 1
 287 184 l 1
 283 26 l 1
 286 171 l 1
 283 10 l 1
 282 -37 l 1
 280 -44 l 1
 272 -53 l 1
 258 -58 l 1
 243 -53 l 1
 235 -44 l 1
 233 -37 l 1
 233 11 l 1
 236 173 l 1
 233 28 l 1
 237 186 l 1
 237 254 l 1
 236 371 l 1
 236 483 l 1
 222 616 l 1
 214 688 l 1
 220 697 l 1
 224 700 l 1
 234 705 l 1
 235 705 l 1
 250 703 l 1
EndSplineSet
EndChar
StartChar: percent
Encoding: 37 37 5
Width: 500
InSpiro: 1
Flags: HW
VStem: 38.2998 87.9004<522.428 642.293> 46.0996 73.8008<-42.4227 -8.21627> 162.7 88.2002<537.368 635.987> 243.6 89.4004<48.0215 141.778>
LayerCount: 2
Back
Fore
SplineSet
455 688 m 1
 455 688 l 1
 462 677 l 1
 461 665 l 1
 451 646 l 1
 388 543 l 1
 378 527 l 1
 336 447 l 1
 327 426 l 1
 286 337 l 1
 250 258 l 1
 215 189 l 1
 171 100 l 1
 131 20 l 1
 108 -21 l 1
 100 -26 l 1
 90 -29 l 1
 78 -26 l 1
 68 -17 l 1
 65 -5 l 1
 65 3 l 1
 85 43 l 1
 125 122 l 1
 169 211 l 1
 204 280 l 1
 240 359 l 1
 281 448 l 1
 291 469 l 1
 335 550 l 1
 345 568 l 1
 408 672 l 1
 421 689 l 1
 431 694 l 1
 441 694 l 1
 442 694 l 1
 455 688 l 1
181 707 m 1
 181 707 l 1
 188 704 l 1
 194 699 l 1
 213 678 l 1
 223 665 l 1
 235 623 l 1
 234 610 l 1
 233 580 l 1
 229 566 l 1
 221 533 l 1
 220 528 l 1
 207 508 l 1
 183 478 l 1
 179 475 l 1
 157 465 l 1
 129 454 l 1
 123 453 l 1
 116 455 l 1
 89 471 l 1
 65 486 l 1
 61 493 l 1
 59 498 l 1
 55 534 l 1
 54 553 l 1
 56 592 l 1
 57 609 l 1
 57 613 l 1
 74 658 l 1
 83 674 l 1
 116 702 l 1
 123 708 l 1
 129 711 l 1
 134 712 l 1
 140 712 l 1
 141 712 l 1
 181 707 l 1
122 641 m 1
 106 602 l 1
 104 552 l 1
 107 519 l 1
 126 507 l 1
 149 516 l 1
 173 547 l 1
 183 585 l 1
 184 615 l 1
 175 647 l 1
 164 660 l 1
 144 662 l 1
 122 641 l 1
387 230 m 1
 418 215 l 1
 421 213 l 1
 424 210 l 1
 424 209 l 1
 445 185 l 1
 448 177 l 1
 448 172 l 1
 460 126 l 1
 460 121 l 1
 450 67 l 1
 448 60 l 1
 418 14 l 1
 416 13 l 1
 413 9 l 1
 410 7 l 1
 361 -18 l 1
 356 -19 l 1
 348 -19 l 1
 342 -17 l 1
 292 11 l 1
 286 17 l 1
 283 21 l 1
 264 77 l 1
 263 81 l 1
 263 87 l 1
 272 146 l 1
 272 147 l 1
 274 153 l 1
 309 202 l 1
 310 204 l 1
 312 206 l 1
 313 206 l 1
 339 227 l 1
 346 230 l 1
 350 230 l 1
 378 231 l 1
 382 231 l 1
 387 230 l 1
361 181 m 1
 345 167 l 1
 321 133 l 1
 313 86 l 1
 326 50 l 1
 352 36 l 1
 380 50 l 1
 400 81 l 1
 409 124 l 1
 400 159 l 1
 389 173 l 1
 371 181 l 1
 361 181 l 1
EndSplineSet
EndChar
StartChar: ampersand
Encoding: 38 38 7
Width: 500
InSpiro: 1
Flags: HW
LayerCount: 2
Back
Fore
SplineSet
241 669 m 1
 290 654 l 1
 293 653 l 1
 333 623 l 1
 335 622 l 1
 337 619 l 1
 339 617 l 1
 356 587 l 1
 358 582 l 1
 364 551 l 1
 364 547 l 1
 360 514 l 1
 359 511 l 1
 349 479 l 1
 348 476 l 1
 304 417 l 1
 301 416 l 1
 259 378 l 1
 259 376 l 1
 233 354 l 1
 246 351 l 1
 247 351 l 1
 291 343 l 1
 292 342 l 1
 329 333 l 1
 331 333 l 1
 336 332 l 1
 379 315 l 1
 381 314 l 1
 396 303 l 1
 414 368 l 1
 417 373 l 1
 423 379 l 1
 431 383 l 1
 445 383 l 1
 456 376 l 1
 461 366 l 1
 462 361 l 1
 462 352 l 1
 440 271 l 1
 438 268 l 1
 435 265 l 1
 449 247 l 1
 451 243 l 1
 467 187 l 1
 467 182 l 1
 469 126 l 1
 467 69 l 1
 469 13 l 1
 468 7 l 1
 463 -3 l 1
 452 -10 l 1
 436 -10 l 1
 425 -3 l 1
 420 7 l 1
 419 12 l 1
 417 70 l 1
 419 125 l 1
 417 179 l 1
 407 212 l 1
 400 197 l 1
 399 196 l 1
 345 127 l 1
 342 126 l 1
 290 76 l 1
 289 74 l 1
 251 46 l 1
 250 45 l 1
 209 23 l 1
 204 22 l 1
 202 22 l 1
 165 12 l 1
 161 12 l 1
 118 16 l 1
 117 16 l 1
 113 17 l 1
 105 20 l 1
 96 20 l 1
 96 24 l 1
 85 27 l 1
 80 34 l 1
 72 42 l 1
 68 45 l 1
 55 71 l 1
 54 75 l 1
 50 96 l 1
 50 98 l 1
 52 155 l 1
 52 160 l 1
 68 214 l 1
 69 216 l 1
 95 266 l 1
 95 267 l 1
 126 313 l 1
 127 314 l 1
 141 333 l 1
 106 357 l 1
 105 358 l 1
 61 396 l 1
 60 396 l 1
 57 399 l 1
 55 402 l 1
 28 456 l 1
 27 461 l 1
 27 463 l 1
 21 519 l 1
 21 524 l 1
 22 527 l 1
 40 583 l 1
 41 586 l 1
 59 614 l 1
 61 616 l 1
 74 628 l 1
 76 631 l 1
 103 649 l 1
 106 650 l 1
 133 660 l 1
 136 661 l 1
 184 670 l 1
 238 670 l 1
 241 669 l 1
167 283 m 1
 138 240 l 1
 137 241 l 1
 116 198 l 1
 102 152 l 1
 100 98 l 1
 102 91 l 1
 109 76 l 1
 114 70 l 1
 126 66 l 1
 159 63 l 1
 190 71 l 1
 222 88 l 1
 255 112 l 1
 310 164 l 1
 358 225 l 1
 374 257 l 1
 355 271 l 1
 312 287 l 1
 311 288 l 1
 283 294 l 1
 283 293 l 1
 239 301 l 1
 238 302 l 1
 197 312 l 1
 196 312 l 1
 191 313 l 1
 167 283 l 1
191 620 m 1
 151 614 l 1
 126 604 l 1
 102 587 l 1
 87 566 l 1
 71 518 l 1
 76 473 l 1
 97 431 l 1
 134 399 l 1
 167 377 l 1
 178 373 l 1
 222 411 l 1
 266 452 l 1
 303 503 l 1
 310 523 l 1
 313 549 l 1
 309 568 l 1
 300 584 l 1
 266 609 l 1
 230 620 l 1
 191 620 l 1
EndSplineSet
EndChar
StartChar: quotesingle
Encoding: 39 39 8
Width: 500
Flags: HW
HStem: 473.3 200.4
VStem: 212.5 87.4004<555.551 669.461> 217.8 86.7002<506.4 643.278>
LayerCount: 2
Back
Fore
SplineSet
269 652 m 1
 269 652 l 1
 276 645 l 1
 280 637 l 1
 280 629 l 1
 284 606 l 1
 284 597 l 1
 285 556 l 1
 284 514 l 1
 281 506 l 1
 274 497 l 1
 260 493 l 1
 246 497 l 1
 238 506 l 1
 235 514 l 1
 235 556 l 1
 234 593 l 1
 230 624 l 1
 230 637 l 1
 235 648 l 1
 246 656 l 1
 260 656 l 1
 261 656 l 1
 269 652 l 1
EndSplineSet
EndChar
StartChar: parenleft
Encoding: 40 40 9
Width: 500
InSpiro: 1
Flags: HW
HStem: 638.3 90.6006<297.488 350.748>
VStem: 131.5 89.7002<130.255 329.605 386.58 510.078>
LayerCount: 2
Fore
SplineSet
327 704 m 1
 334 697 l 1
 338 689 l 1
 338 677 l 1
 334 669 l 1
 330 664 l 1
 329 664 l 1
 275 618 l 1
 238 556 l 1
 216 492 l 1
 217 491 l 1
 204 417 l 1
 199 343 l 1
 200 267 l 1
 208 192 l 1
 224 125 l 1
 244 77 l 1
 268 39 l 1
 269 39 l 1
 306 -6 l 1
 343 -43 l 1
 345 -58 l 1
 338 -72 l 1
 327 -79 l 1
 308 -79 l 1
 295 -66 l 1
 295 -64 l 1
 269 -38 l 1
 266 -37 l 1
 229 8 l 1
 228 9 l 1
 199 55 l 1
 198 56 l 1
 177 108 l 1
 176 113 l 1
 176 116 l 1
 158 185 l 1
 158 187 l 1
 150 265 l 1
 150 266 l 1
 149 344 l 1
 149 345 l 1
 154 423 l 1
 154 424 l 1
 167 500 l 1
 168 502 l 1
 193 578 l 1
 194 581 l 1
 234 647 l 1
 236 649 l 1
 238 652 l 1
 239 652 l 1
 300 705 l 1
 308 708 l 1
 319 708 l 1
 327 704 l 1
EndSplineSet
EndChar
StartChar: parenright
Encoding: 41 41 10
Width: 500
InSpiro: 1
Flags: HW
VStem: 298.5 90.0996<191.538 508.379>
LayerCount: 2
Fore
SplineSet
221 695 m 1
 277 652 l 1
 278 651 l 1
 280 648 l 1
 282 647 l 1
 319 590 l 1
 320 587 l 1
 346 522 l 1
 346 521 l 1
 364 454 l 1
 364 452 l 1
 373 371 l 1
 373 289 l 1
 367 208 l 1
 367 207 l 1
 356 128 l 1
 355 124 l 1
 333 66 l 1
 332 64 l 1
 303 12 l 1
 302 10 l 1
 261 -41 l 1
 257 -42 l 1
 220 -81 l 1
 214 -88 l 1
 199 -90 l 1
 185 -83 l 1
 178 -72 l 1
 178 -53 l 1
 191 -40 l 1
 192 -40 l 1
 225 -5 l 1
 261 40 l 1
 288 88 l 1
 305 135 l 1
 317 213 l 1
 323 292 l 1
 323 366 l 1
 314 445 l 1
 314 446 l 1
 298 506 l 1
 298 507 l 1
 276 563 l 1
 242 615 l 1
 192 655 l 1
 189 658 l 1
 184 668 l 1
 184 678 l 1
 190 691 l 1
 201 698 l 1
 214 698 l 1
 221 695 l 1
EndSplineSet
EndChar
StartChar: asterisk
Encoding: 42 42 11
Width: 500
Flags: HW
LayerCount: 2
Back
Fore
SplineSet
219.596671489 400.499561403 m 1
 150.055223602 457.782804824 111.972438367 441.887825616 111.972438367 470.003656955 c 0
 111.972438367 481.042379989 120.934481818 490.004423439 131.973204852 490.004423439 c 0
 132.957543607 490.004423439 172.833742059 482.910116644 221.528073178 449.149149566 c 1
 223.094189202 474.95359222 225.750000668 504.489004515 230.192060506 536.746487989 c 0
 231.534561024 546.52572708 239.898742316 554.036317742 250.003273382 554.036317742 c 0
 261.040156471 554.036317742 270.000706118 545.075768094 270.000706118 534.038885005 c 0
 270.000706118 529.445372622 262.441502376 485.713458514 260.07787663 418.004289159 c 0
 263.438063561 414.901124333 266.719277808 411.770976845 269.928794664 408.625134717 c 1
 313.034823232 444.918673038 379.087557296 490.019347609 392.026265219 490.019347609 c 0
 403.066678827 490.019347609 412.030094808 481.055931627 412.030094808 470.015518019 c 0
 412.030094808 448.041548088 382.080933478 450.258814205 297.60105493 379.612867281 c 1
 368.942264865 300.796230941 369.633921691 300.267635519 404.161850717 273.879830847 c 0
 408.945872576 270.223665014 412.034324729 264.458962368 412.034324729 257.978605355 c 0
 412.034324729 246.939212321 403.071737324 237.976624916 392.032344291 237.976624916 c 0
 387.47330827 237.976624916 383.268474656 239.505208037 379.870680554 242.095307285 c 0
 329.615084621 280.502906194 298.592856158 318.77597199 267.605768288 353.133849696 c 1
 265.019900561 350.724955339 262.424936411 348.273318714 259.822588319 345.778433566 c 0
 262.265819104 256.288580557 274.00135054 193.122204803 274.001350544 187.960462949 c 0
 274.001350544 176.923428718 265.040678188 167.962756362 254.003643957 167.962756362 c 0
 243.995889962 167.962756362 235.695285287 175.330068344 234.232877634 184.971874709 c 0
 230.874430111 207.042865573 224.724359546 250.493827335 221.495300654 306.215426045 c 1
 157.935297499 235.554407642 159.509366716 213.963976364 139.979562807 213.963976364 c 0
 128.939537122 213.963976364 119.976436085 222.927077401 119.976436085 233.967103086 c 0
 119.976436085 248.603030908 175.665000266 318.278870727 219.49177268 362.250392172 c 0
 219.423711155 367.432764018 219.388055868 372.679667628 219.388055868 377.985922089 c 0
 219.388055868 384.683469481 219.441180787 392.211789673 219.596671489 400.499561403 c 1
EndSplineSet
EndChar
StartChar: plus
Encoding: 43 43 12
Width: 500
Flags: HW
LayerCount: 2
Fore
SplineSet
253.133321404 411.934167659 m 1
 257.084052798 354.027195096 265.997051171 324.244106093 265.997051171 285.977097388 c 0
 265.997051171 274.940845885 257.037014291 265.980809004 246.000762788 265.980809004 c 0
 235.322092059 265.980809004 226.587274506 274.369631601 226.03176647 284.941103588 c 2
 224.104468873 321.559757914 l 1
 218.643518187 350.155983895 215.328646896 378.832659954 213.31583937 407.438236418 c 1
 179.442006647 402.755259708 107.214907519 390.003921789 98 390.003921789 c 0
 97.9851304975 390.003921789 67.9628702177 390.006649703 67.9628702177 412.004457019 c 0
 67.9628702177 423.042051298 76.9239972618 432.003178342 87.9615915408 432.003178342 c 0
 89.9579785629 432.003178342 89.9579785629 432.003178342 98.7228638169 430.250201291 c 1
 134.304909675 434.849000132 175.136478825 442.676231544 211.25680348 447.599096575 c 1
 210.013546919 483.849305402 210.003921789 590.555936614 210.003921789 592 c 0
 210.003921789 594.635176444 210.520871719 597.270352889 211.554771578 599.739564078 c 0
 211.410338692 600.683278574 211.277178792 601.893375391 211.277178792 603.332254346 c 0
 211.277178792 614.806256699 219.209548581 625.995074281 231.993408298 625.995074281 c 0
 243.033715964 625.995074281 251.997045934 617.031744311 251.997045934 605.991436645 c 0
 251.99704592 604.722779582 251.878688493 603.481548236 251.651809643 602.276868263 c 0
 251.798489939 601.396677425 252.123390293 599.474146154 252.123390293 596.942167856 c 0
 252.123390293 594.020208813 251.690698682 590.286608255 250.05207535 586.406675192 c 0
 250.05207535 571.108538456 250.18987779 555.814778415 250.18987779 540.546949524 c 0
 250.194634155 510.869503528 250.219427679 481.303171395 251.166198828 452.002560172 c 1
 263.810015347 453.009821351 276.559599733 453.60158688 289.40399115 453.60158688 c 0
 320.033554906 453.60158688 329.954061463 451.948169121 379.308608688 443.72241125 c 0
 388.774760677 442.144719252 396.000216899 433.907988213 396.000216899 423.996978591 c 0
 396.000216899 412.959783228 387.039413724 403.998980053 376.002218361 403.998980053 c 0
 365.84869363 403.998980053 336.70257765 413.543509995 290.0513787 413.543509995 c 0
 277.819776358 413.543509995 265.512935031 412.951273168 253.133321404 411.934167659 c 1
EndSplineSet
EndChar
StartChar: comma
Encoding: 44 44 13
Width: 500
Flags: HW
LayerCount: 2
Back
Fore
SplineSet
343.940140921 16.6621474333 m 0
 343.940140921 96.3169263414 280.858791874 181.785772757 213.64716855 181.785772757 c 0
 162.82385075 181.785772757 146.324950785 130.242069346 146.324950785 121.509300833 c 0
 146.324950785 114.784367096 149.3662178 105.762052995 200.519401201 81.0108597166 c 2
 298.518645365 33.5918706055 l 1
 215.074405905 -38.831431567 l 2
 212.176987296 -41.3461494684 162.960696506 -84.2924610532 154.494956244 -107.228093092 c 0
 156.670309237 -108.192229289 161.63578009 -109.899246304 169.507020994 -109.899246304 c 0
 197.728473531 -109.899246304 250.678580448 -91.054724212 302.214335875 -50.7224753672 c 0
 333.088628038 -26.5600346664 343.940140921 -11.422849309 343.940140921 16.6621474333 c 0
EndSplineSet
EndChar
StartChar: hyphen
Encoding: 45 45 14
Width: 500
InSpiro: 1
Flags: HW
LayerCount: 2
Back
Fore
SplineSet
281.117863009 424.115194447 m 0
 240.344506337 424.115194447 110.95481889 421.245721354 74.6098248101 406.603442157 c 1
 66.9452976795 397.978383744 62.1859873817 381.464616745 62.1859873817 373.769267452 c 0
 62.1859873817 369.301638539 62.1859873817 360.808934085 101.923338711 353.730614938 c 0
 167.147226227 342.112440188 324.248197602 339.875336664 326.498216367 339.875336664 c 0
 378.124337047 339.875336664 387.496374152 346.417943432 392.045467204 351.82842526 c 0
 399.420667861 360.600149352 404.793293707 387.686604084 404.793293707 404.561331053 c 0
 404.793293707 409.420478936 404.200938187 413.38860074 403.76379036 415.564513956 c 0
 388.857992792 420.631819856 343.357335746 424.115194447 281.117863009 424.115194447 c 0
  Spiro
    74.6098 406.603 v
    67.9879 395.98 o
    63.7008 383.774 o
    62.186 373.769 o
    63.6533 368.168 o
    73.9777 361.072 o
    101.923 353.731 o
    188.536 344.981 o
    281.847 340.883 o
    326.498 339.875 o
    365.398 341.768 o
    384.514 346.33 o
    392.045 351.828 o
    398.623 365.631 o
    403.13 385.36 o
    404.793 404.561 o
    404.624 409.086 o
    404.225 412.828 o
    403.764 415.565 o
    379.207 420.03 o
    337.215 423.027 o
    281.118 424.115 o
    199.766 422.101 o
    126.561 416.631 o
    79.6335 408.627 v
    0 0 z
  EndSpiro
EndSplineSet
EndChar
StartChar: slash
Encoding: 47 47 28
Width: 500
Flags: HW
LayerCount: 2
Back
Fore
SplineSet
404.729363144 691.925287977 m 0
 348.02100622 685.916283557 224.302734375 392.231367698 224.302734375 350.457152751 c 0
 224.302734375 328.239608842 207.079627037 295.459653323 187.435062375 280.024070555 c 0
 172.351047404 268.171908618 153.271611379 231.479284214 146.38734889 193.928245959 c 0
 125.851060572 81.9105898167 39.9307507413 -56.5182647645 39.9307507413 -116.37757866 c 0
 39.9307507413 -129.891448364 43.2501641937 -138.48828125 65.1361760307 -138.48828125 c 0
 90.8429755537 -138.48828125 107.021630001 -128.177700421 126.245684828 -49.5334326858 c 0
 132.622119089 -23.4478847782 156.186056838 66.2882211022 182.234842338 82.4321538256 c 0
 187.050483629 87.1448730789 194.302734375 105.005143202 194.302734375 119.197971119 c 0
 194.302734375 182.207842481 264.069335938 286.348877156 264.069335938 317.118259954 c 0
 264.069335938 374.666057144 405.18663011 619.529074953 405.18663011 687.00588664 c 0
 405.18663011 689.233037177 404.95133045 690.877431675 404.729363144 691.925287977 c 0
EndSplineSet
EndChar
StartChar: zero
Encoding: 48 48 31
Width: 500
InSpiro: 1
Flags: HW
LayerCount: 2
Back
Fore
SplineSet
115.262618225 203.879488188 m 0
 115.262618225 225.60650461 128.827097077 235.947698654 129.175496932 235.922239801 c 0
 143.533241874 246.653013926 150.445040536 258.289970388 163.510104335 264.525350664 c 0
 177.45672729 271.181460348 190.464192962 268.413118258 198.051816935 270.474262899 c 0
 214.783089727 275.019239479 209.568321654 298.919238846 248.605239221 314.687644699 c 0
 256.731426753 317.970102204 262.928348926 320.473260495 274.146666559 336.244691613 c 0
 288.429728431 356.324736931 306.511697638 366.663262164 324.887681995 366.663262164 c 0
 353.240034984 366.663262164 381.45298557 341.481638163 381.45298557 305.543714577 c 0
 381.45298557 286.818796087 377.310483519 281.662759395 377.310483519 271.16637341 c 0
 377.310483519 255.617246116 383.415950338 239.380681224 383.415950338 226.378218473 c 0
 383.415950338 209.924666114 374.933799927 199.434243499 364.118134377 191.596708352 c 0
 330.100310331 166.945808199 352.766820256 161.278163853 323.196989839 141.356484704 c 0
 307.933394393 131.07315041 291.537290933 131.267920313 280.142149291 126.311822631 c 0
 262.16968715 118.495045907 247.981350948 90.318960606 219.643532642 90.318960606 c 0
 213.585366314 90.318960606 195.924172075 90.318960606 181.028214537 118.113135055 c 0
 169.61338778 139.411912618 158.182941989 121.96362907 138.298883311 142.039557089 c 0
 135.620027711 144.744262053 115.262618225 176.129975176 115.262618225 203.879488188 c 0
427.931543584 189.527691722 m 0
 423.860351562 297.513289273 423.860351562 297.513289273 423.860351562 298.245931303 c 0
 423.860351562 347.282019069 429.173828125 377.445531527 429.173828125 414.859589378 c 0
 429.173828125 495.623053475 397.843162287 511.933524204 364.935262484 529.065089146 c 0
 303.233406822 561.186535777 340.125565296 596.413959815 249.588385802 611.193104704 c 0
 241.474371521 612.517623464 221.218209094 615.428317002 196.55580057 616.1953125 c 0
 163.32976932 616.1953125 151.038741713 608.175633439 129.996969769 593.699648357 c 0
 123.017208349 588.897822615 114.672581906 583.155727161 103.747438962 576.551165989 c 0
 82.3266087977 563.601661905 77.6627942537 559.232505473 73.9072701317 534.89332072 c 0
 73.1406807109 529.925129613 55.3439604973 441.142995307 55.1572324807 440.195868182 c 0
 39.8408639252 355.669111711 22.755859375 360.499273976 22.755859375 312.483752841 c 0
 22.755859375 268.476284238 70.943420606 31 238.69496087 31 c 0
 269.103993629 31 289.214822737 35.3518909573 310.788752769 41.8746132061 c 0
 394.47708164 67.1771762476 427.865679853 109.240414197 427.931543584 189.527691722 c 0
112.333007812 393.920006026 m 0
 112.333007812 406.044944019 114.952900405 528.625919276 220.895671349 528.625919276 c 0
 263.839939691 528.625919276 320.111328125 501.350073639 320.111328125 476.074302044 c 0
 320.111328125 443.962975892 202.430869244 389.185200891 178.193670023 389.185200891 c 0
 177.040302328 389.185200891 175.78450294 389.217078265 174.403180099 389.417034825 c 0
 157.903282712 376.419074029 153.00041497 352.075956986 133.993914509 352.075956986 c 0
 112.333007812 352.075956986 112.333007812 381.136061255 112.333007812 393.920006026 c 0
EndSplineSet
EndChar
StartChar: one
Encoding: 49 49 21
Width: 500
InSpiro: 1
Flags: HW
LayerCount: 2
Back
Fore
SplineSet
51.5546651531 42.1520551643 m 0
 51.5546651531 1.0909108856 61.7622121605 1.0909108856 70.1521405018 1.0909108856 c 0
 81.9937423212 1.0909108856 95.7450264207 5.44170309047 120.483211428 5.44170309047 c 0
 158.088268833 5.44170309047 176.752399175 -5.3022757936 218.240001616 -5.3022757936 c 0
 256.087864838 -5.3022757936 284.780845126 3.2535591861 314.398662316 3.2535591861 c 0
 343.291900399 3.2535591861 377.59782053 -5.6539939755 395.050914644 -5.6539939755 c 0
 424.584083718 -5.6539939755 426.651221532 15.6128062719 426.651221532 21.5664148677 c 0
 426.651221532 32.0912895362 418.735911107 45.4102024133 383.267696692 52.264791502 c 0
 351.615024947 58.3819886027 322.559654104 69.4192227664 319.967402175 124.418501083 c 0
 318.685981517 151.606140762 309.710316881 255.994853439 309.710316881 257.327899423 c 0
 309.710316881 301.328565877 319.899534926 326.582233122 320.692042532 380.839098106 c 0
 321.510265401 436.856488176 321.676669919 448.248918201 341.645698464 489.398982773 c 0
 362.290912741 531.942459469 350.261861708 529.008355034 364.24126759 575.164622698 c 0
 366.425042057 582.374863223 368.46074843 589.851003346 368.46074843 595.735008927 c 0
 368.46074843 621.596800003 317.367780041 623.076835446 316.78313043 623.076835446 c 0
 298.703605806 623.076835446 284.27681206 615.971858762 282.001057928 569.787652979 c 0
 280.888823736 547.215947153 275.518302881 531.280932829 252.598756585 511.864227349 c 0
 208.979324009 474.911241255 208.325858159 457.949023913 177.158592534 434.557703019 c 0
 170.548991154 429.5971361 146.599224073 414.624598191 146.294404398 414.41745638 c 0
 120.997067367 397.226518114 86.1525830292 352.62445672 86.1525830292 340.7507765 c 0
 86.1525830292 323.345958937 128.703170757 313.451034645 149.691686873 313.451034645 c 0
 173.618129856 313.451034645 180.262522303 338.664269511 211.003874854 338.664269511 c 0
 235.421081466 338.664269511 252.163189517 318.146918297 252.163189517 294.08979948 c 0
 252.163189517 271.547351202 238.342456561 252.065647271 238.342456561 235.146497169 c 0
 238.342456561 220.107218319 243.315606528 193.822581361 243.315606528 162.266355344 c 0
 243.315606528 118.773877641 236.061723907 70.4148398354 190.441997565 70.4148398354 c 0
 173.675907145 70.4148398354 157.892306235 76.7002362226 132.157286819 76.7002362226 c 0
 128.681142714 76.7002362226 83.4671205098 76.5030663589 63.7049691782 66.2908664672 c 0
 55.7077642968 62.1582670627 51.5546651531 57.7678609904 51.5546651531 42.1520551643 c 0
EndSplineSet
EndChar
StartChar: two
Encoding: 50 50 62
Width: 500
InSpiro: 1
Flags: HW
LayerCount: 2
Back
Fore
SplineSet
214.955257125 544.609829713 m 0
 271.315202701 544.609829713 314.783528368 470.596092183 314.783528368 421.99362447 c 0
 314.783528368 375.218351353 285.497514698 334.462045502 236.336391349 268.638494222 c 0
 226.734141603 255.781705453 216.83158455 242.521509965 206.845772696 228.599585784 c 0
 134.869598817 128.252528358 100.383026936 126.408208738 72.6070677366 87.9035041635 c 0
 64.8393634161 77.1354454284 60.3247986671 63.7514564724 60.3247986671 51.593536727 c 0
 60.3247986671 37.038527406 67.1654315334 5.12169205127 127.16723443 5.12169205127 c 0
 159.11299731 5.12169205127 202.810184283 17.5018987708 273.412579965 17.5018987708 c 0
 274.102261516 17.5018987708 296.536834229 17.3780240998 296.770415873 17.3780240998 c 0
 327.300293338 17.3780240998 394.149972376 20.3497822821 416.25850123 45.3548204967 c 0
 420.393830037 50.0319320099 421.360280685 53.8323651401 421.360280685 56.5863025846 c 0
 421.360280685 61.7021651604 417.111878484 67.4704740069 411.449635505 68.0027430759 c 0
 394.52523714 69.5936873896 318.14371053 75.9111168175 303.094688078 76.4051658373 c 0
 268.359772198 77.5454891506 227.996887232 92.9203342264 227.22037827 92.9203342264 c 0
 227.168606507 92.9203342264 227.126611838 92.9163262523 227.081578809 92.9163262523 c 0
 226.027367895 92.9163262523 206.671078702 103.140804935 206.671078702 124.796755527 c 0
 206.671078702 148.120599728 226.224468348 168.851015102 252.632636835 181.91780239 c 0
 264.065747329 187.57491651 265.823328031 189.675286664 279.27779117 203.398587634 c 0
 312.951459941 237.745100503 365.943408659 291.795897905 365.943408659 457.338937203 c 0
 365.943408659 556.564657684 333.030074402 592.197972744 272.045234904 612.772103576 c 0
 234.373583139 625.4811883 205.320694229 630.63716034 182.725126968 630.63716034 c 0
 149.260271447 630.63716034 129.052696857 620.11162819 111.171062582 603.411970597 c 0
 89.3144243327 583.000056938 86.7765676107 558.480705957 70.5033125546 533.011674813 c 0
 63.1261771553 521.465829155 54.1813400714 511.902609366 48.0598822007 502.134313219 c 0
 42.1752525445 492.743934913 40.653350307 486.653102263 40.653350307 481.881787182 c 0
 40.653350307 470.824019068 71.3674999785 421.935825274 71.7300904082 421.36015931 c 0
 74.5702581775 416.850972684 75.6279121511 415.670972726 79.7129801275 415.670972726 c 0
 102.840483608 415.670972726 124.806420481 482.459682659 133.733667607 509.603497296 c 0
 138.292128259 523.463762305 145.767032212 542.273791549 176.328111357 542.273791549 c 0
 177.757954531 542.273791549 179.1375459 542.249641239 180.700472367 542.249641239 c 0
 195.033926609 542.249641239 203.19775992 544.609829713 214.955257125 544.609829713 c 0
  Spiro
    214.955 544.61 o
    265.841 523.659 o
    301.452 475.33 o
    314.784 421.994 o
    305.389 376.12 o
    278.489 327.205 o
    236.336 268.638 o
    226.652 255.651 o
    216.786 242.297 o
    206.846 228.6 o
    146.277 156.13 o
    103.724 119.165 o
    72.6071 87.9035 o
    65.9759 76.4178 o
    61.7801 64.0053 o
    60.3248 51.5935 o
    64.3109 33.097 o
    83.2 13.9197 o
    127.167 5.12169 o
    163.55 8.32587 o
    211.272 14.2977 o
    273.413 17.5019 o
    279.713 17.4698 o
    290.774 17.4101 o
    296.77 17.378 o
    336.359 19.0705 o
    382.281 27.0007 o
    416.259 45.3548 o
    419.417 49.7293 o
    420.957 53.4933 o
    421.36 56.5863 o
    420.052 61.6967 o
    416.531 65.9466 o
    411.45 68.0027 o
    379.223 70.7749 o
    334.072 74.3639 o
    303.095 76.4052 o
    268.192 81.1863 o
    239.496 88.899 o
    227.22 92.9203 o
    227.171 92.9193 o
    227.126 92.9174 o
    227.082 92.9163 o
    221.33 96.3622 o
    211.72 106.921 o
    206.671 124.797 o
    212.707 147.047 o
    229 166.502 o
    252.633 181.918 o
    261.625 186.947 o
    268.939 192.995 o
    279.278 203.399 o
    316.674 247.655 o
    350.985 325.662 o
    365.943 457.339 o
    355.173 537.102 o
    323.452 585.417 o
    272.045 612.772 o
    237.199 623.044 o
    207.526 628.833 o
    182.725 630.637 o
    153.3 627.296 o
    130.212 617.88 o
    111.171 603.412 o
    94.5424 581.771 o
    83.4115 558.023 o
    70.5033 533.012 o
    62.7742 522.056 o
    54.9523 511.905 o
    48.0599 502.134 o
    43.5276 493.778 o
    41.2645 487.16 o
    40.6534 481.882 o
    48.616 461.431 o
    63.5258 434.826 o
    71.7301 421.36 o
    74.152 417.884 o
    76.4615 416.143 o
    79.713 415.671 o
    101.992 433.959 o
    120.916 473.228 o
    133.734 509.603 o
    140.003 524.219 o
    152.733 536.894 o
    176.328 542.274 o
    177.748 542.268 o
    179.191 542.256 o
    180.7 542.25 o
    193.328 542.86 o
    204.044 543.999 o
    0 0 z
  EndSpiro
EndSplineSet
EndChar
StartChar: three
Encoding: 51 51 32
Width: 500
InSpiro: 1
Flags: HW
LayerCount: 2
Back
Fore
SplineSet
414.059359274 236.49401647 m 0
 414.059359274 326.245199051 327.597984464 312.128302226 327.597984464 380.868045838 c 0
 327.597984464 412.998149767 350.187986422 439.343741608 350.187986422 471.531253352 c 0
 350.187986422 538.634492587 258.312212105 617.548815146 170.916388106 617.548815146 c 0
 92.8641722206 617.548815146 37.5328523118 552.268767702 37.5328523118 470.606610884 c 0
 37.5328523118 457.864015763 37.5328523118 426.690481268 52.5843800293 426.690481268 c 0
 57.5059185998 426.690481268 63.4146661325 430.153790446 64.7614467582 438.707832469 c 0
 70.7774908217 476.918579455 83.6477974194 469.397281249 101.014406378 501.593589331 c 0
 114.960427596 527.448400523 122.922523327 534.801852982 149.332276873 543.833250784 c 0
 186.669177203 556.601427471 186.669177203 556.601427471 193.568952371 556.601427471 c 0
 204.11252131 556.601427471 210.450640495 553.172574922 215.435152438 553.172574922 c 0
 219.911944876 553.172574922 224.804056554 555.859990766 233.842340151 555.859990766 c 0
 251.573922864 555.859990766 290.382728308 536.010531411 297.842017481 512.730781821 c 0
 301.806715979 500.357325573 303.051087513 470.470684196 303.051087513 423.433658418 c 0
 303.051087513 389.221873214 295.753152798 363.593546664 243.580195584 336.871809213 c 0
 218.036008643 323.788689273 191.862419675 315.736720585 177.672594168 314.09240836 c 0
 165.076977596 312.632832533 153.087721921 313.439805893 142.751652909 312.122295212 c 0
 119.246290655 309.126130441 118.430385514 295.280744606 118.430385514 289.91978757 c 0
 118.430385514 269.090102307 143.078504596 235.891263946 176.187789492 235.891263946 c 0
 211.594969511 235.891263946 245.306342183 268.273819987 291.719378883 268.273819987 c 0
 335.24889285 268.273819987 365.965366019 236.575184335 365.965366019 199.514892203 c 0
 365.965366019 162.644732068 336.585916745 127.004109291 285.26567061 115.569518813 c 0
 255.573260801 108.953795546 200.509388416 108.035577679 115.35115629 106.615521173 c 0
 110.416682943 106.239962361 96.9701941673 105.216560878 96.9701941673 94.7173407062 c 0
 96.9701941673 81.6562681735 165.397400354 51.1919038873 214.707829535 51.1919038873 c 0
 229.951570251 51.1919038873 248.135980758 53.0084173905 273.297850213 56.2523002529 c 0
 339.887975827 64.8371380236 384.706948207 72.4683921771 408.363550615 187.82691158 c 0
 412.33645205 207.200278025 414.059359274 223.227107097 414.059359274 236.49401647 c 0
EndSplineSet
EndChar
StartChar: four
Encoding: 52 52 33
Width: 500
InSpiro: 1
Flags: HW
LayerCount: 2
Back
Fore
SplineSet
114.071383432 373.886936167 m 0
 114.071383432 439.034488314 186.740819229 582.082612132 186.740819229 607.616472342 c 0
 186.740819229 624.72950762 176.519491525 634.997915447 164.073946174 634.997915447 c 0
 154.28905658 634.997915447 139.068346035 628.106779694 128.553489537 599.730493959 c 0
 116.624444509 567.537758816 124.355462696 571.284347992 94.4300659108 507.592003223 c 0
 79.8076043738 476.469981072 68.6547177488 452.119323752 68.6547177488 418.436374756 c 0
 68.6547177488 395.474873308 74.2707243647 376.711889132 74.2707243647 347.50911924 c 0
 74.2707243647 323.507832331 70.6233266258 310.13534952 70.6233266258 296.964230933 c 0
 70.6233266258 281.330089561 70.6233266258 267.630948776 153.890845013 264.650568109 c 0
 167.544230717 264.650568109 186.106648145 269.171248462 205.65450388 269.171248462 c 0
 229.98381512 269.171248462 259.585553846 264.685720437 297.764546928 256.552717013 c 0
 306.873187962 255.735500594 335.294640368 253.185561755 335.294640368 221.325768841 c 0
 335.294640368 208.992289801 329.906106368 196.967318373 328.601915174 190.018709508 c 0
 328.601915174 188.655636746 335.402341387 82.0513174897 338.945435524 44.3085070587 c 0
 339.977000029 39.6690130421 343.123209926 25.5188344231 363.41624664 25.5188344231 c 0
 375.495122069 25.5188344231 403.671602328 32.7569148838 403.671602328 55.7492864589 c 0
 403.671602328 80.0630561716 367.796316466 113.629553206 367.796316466 172.080974219 c 0
 367.796316466 191.71893325 388.963664089 262.480985324 388.963664089 303.689205483 c 0
 388.963664089 330.993499765 382.894560029 353.955985281 375.564943234 381.271583643 c 0
 363.929662188 424.63328627 363.022244386 429.918643112 360.877133943 485.252640221 c 0
 360.547036985 493.767625613 358.200402312 529.24347784 342.012971573 529.24347784 c 0
 328.350868341 529.24347784 319.746767642 514.553204375 319.746767642 477.547895897 c 0
 319.746767642 447.400805251 325.13342532 414.865820486 325.13342532 397.989345141 c 0
 325.13342532 314.653865713 213.027313088 312.778823103 202.93747703 312.778823103 c 0
 188.087352231 312.778823103 114.071383432 315.697601374 114.071383432 373.886936167 c 0
EndSplineSet
EndChar
StartChar: five
Encoding: 53 53 34
Width: 500
InSpiro: 1
Flags: HW
LayerCount: 2
Back
Fore
SplineSet
425.250631276 205.025964423 m 0
 425.250631276 303.296682273 341.192247379 374.144040282 318.038864602 384.50727303 c 1
 318.038864602 384.50727303 293.024341847 395.657557949 254.432778855 395.657557949 c 0
 233.698565425 395.657557949 209.239824335 392.375666022 182.926194346 382.225064905 c 2
 93.0513881709 347.559068225 l 1
 89.9028366265 478.769588623 l 1
 89.9028360473 585.035381369 l 1
 250.138709438 583.196716958 250.138709438 583.196716958 252.563139267 583.196716958 c 0
 287.592527665 583.196716958 304.449193254 587.254234656 337.100604903 587.254234656 c 0
 340.658271996 587.254234656 359.468674372 586.888163941 359.694644421 586.888163941 c 0
 374.299478975 586.888163941 402.032293735 589.986254427 402.032293735 613.518035731 c 0
 402.032293735 647.712333142 352.432829424 653.392834838 278.580983672 653.392834838 c 0
 276.446264636 653.392834838 112.075276637 651.791042026 66.4413188916 629.580731798 c 0
 34.1784515448 613.878208326 31.5194440849 586.217403734 31.5194440849 554.81644817 c 0
 31.5194440849 550.03001026 31.5776085993 547.080301968 31.5776085993 542.401253482 c 0
 31.5776085993 499.497342025 26.9765189261 471.391973805 26.9765189261 437.810671277 c 0
 26.9765189261 403.513192267 46.8768123275 268.630261876 47.2615144008 266.95324716 c 0
 54.4192214786 235.750971603 70.1565498174 226.105558728 84.5277264296 226.105558728 c 0
 127.666457212 226.105558728 148.336435697 311.12045913 248.886517587 311.12045913 c 0
 319.430524227 311.12045913 368.517748806 259.236765171 368.517748806 210.347785756 c 0
 368.517748806 173.585582015 333.049442037 104.165141462 296.311946654 84.2409044537 c 0
 247.346811653 57.6851214653 111.796046926 55.8730177485 98.0875519995 50.3387868424 c 0
 88.6858090503 46.5432267404 85.4910767131 40.2127748051 85.4910767131 32.4028613635 c 0
 85.4910767131 19.9464559826 95.5888772504 4.66921643743 114.326182217 1.72418232607 c 1
 114.326182217 1.72418232607 117.602195798 1.4919750497 121.697461615 1.4919750497 c 0
 145.06739664 1.4919750497 201.775657921 5.22702694185 202.585016996 5.25215552145 c 0
 258.873240614 6.99976440389 278.0976816 15.6342740061 322.022933636 15.6342740061 c 0
 322.591318748 15.6342740061 335.53384635 15.4985683947 335.670327031 15.4985683947 c 0
 352.914575557 15.4985683947 365.021070121 17.0505546259 376.911820591 29.7390846262 c 0
 391.622721391 45.4369757388 425.250631276 130.814747278 425.250631276 205.025964423 c 0
EndSplineSet
EndChar
StartChar: six
Encoding: 54 54 35
Width: 500
InSpiro: 1
Flags: HW
LayerCount: 2
Back
Fore
SplineSet
269.902495358 -13.6616074638 m 0
 342.320984473 -13.6616074638 404.160437618 -7.45832649507 404.961992978 193.369435132 c 2
 404.961992978 193.369435132 404.989242068 203.589208931 404.989296254 203.629918708 c 0
 404.989296254 253.285187539 401.789164794 293.195171607 362.295242029 318.841570928 c 0
 308.66710772 353.666385763 212.924858499 344.477489111 184.670680392 351.090284121 c 0
 169.970668467 354.530772289 141.889082576 366.246773938 141.889082576 405.549481979 c 0
 141.889082576 406.416165357 143.208055867 447.504172897 169.296940682 487.769978725 c 0
 184.802723993 511.701736029 240.768056366 563.024335042 267.254809147 574.402506966 c 0
 280.307818469 580.009815096 292.880928786 581.871461769 304.309205869 581.871461769 c 0
 324.172168059 581.871461769 341.264936909 576.472618193 355.01166798 576.472618193 c 0
 362.214592586 576.472618193 382.972680341 578.527847322 382.972680341 602.220396248 c 0
 382.972680341 618.296105675 371.805085798 633.778501979 348.479259912 633.778501979 c 0
 330.518783577 633.778501979 302.22855996 622.357196105 257.134551518 617.194396915 c 0
 193.45167833 609.903364302 173.356533157 606.94251366 141.828953456 575.798689987 c 0
 72.6622116471 507.473850864 63.9745183578 337.300099767 63.9745183578 256.381884125 c 0
 63.9745183578 233.347076245 65.1764658767 165.120531404 78.8845114781 135.030763546 c 0
 84.8464403157 121.944080526 102.278545539 83.7669936414 108.851335744 66.6612421303 c 0
 122.924715 30.0351334346 131.172210132 10.4920793388 149.45345219 -1.69392431179 c 0
 164.993537092 -12.0527134328 167.40717343 -13.6616074638 269.902495358 -13.6616074638 c 0
106.71801776 241.800183174 m 0
 106.71801776 242.757985675 106.883544129 307.565323692 176.351361825 307.565323692 c 0
 193.488111024 307.565323692 266.40098122 301.500483873 308.557974937 272.112836839 c 0
 321.447365685 263.127640496 347.579914533 241.2456073 347.579914533 190.978853237 c 0
 347.579914533 123.857468842 302.567430533 44.0761834791 241.811653732 44.0761834791 c 0
 151.16416892 44.0761834791 106.71801776 206.092398967 106.71801776 241.800183174 c 0
EndSplineSet
EndChar
StartChar: seven
Encoding: 55 55 36
Width: 500
InSpiro: 1
Flags: HW
LayerCount: 2
Back
Fore
SplineSet
216.224964475 262.892636258 m 0
 216.224964475 218.700326851 169.520860528 139.159473709 169.520860528 55.9963148159 c 0
 169.520860528 50.6647275199 170.047531121 10.0205078125 186.108658596 10.0205078125 c 0
 204.166785151 10.0205078125 219.92587019 55.9499510522 225.15407659 73.0035015893 c 0
 244.578993505 136.36439 315.129375305 297.725667981 366.193688791 297.725667981 c 0
 375.54117446 297.725667981 377.995797447 293.657758734 382.220080702 293.657755589 c 0
 399.668144814 293.657755589 438.979492188 317.596377585 438.979492188 338.033073625 c 0
 438.979492188 345.531282038 432.256694311 355.530273438 412.529928788 355.530273438 c 0
 401.671137119 355.530273438 375.993524693 358.649668754 375.993524693 388.154660482 c 0
 375.993524693 419.307313968 410.167493777 467.198281385 410.167493777 545.264737955 c 0
 410.167493777 558.476193601 408.59417764 598.66559722 389.925018745 610.479804304 c 0
 373.636418613 620.787547473 306.743217375 633.612067848 215.13711881 633.612067848 c 0
 63.0640718508 633.612067848 13.4123554907 599.518254541 13.4123554907 587.98712578 c 1
 13.4123554907 587.98712578 19.9050226959 573.543153861 85.5056917249 573.543153861 c 0
 104.851185643 573.543153861 144.753723523 576.420514324 213.199426265 576.420514324 c 0
 241.767866407 576.420514324 340.358225051 576.420514324 340.358225051 505.808256553 c 0
 340.358225051 447.343084004 257.354511467 379 127.428519782 379 c 0
 126.308115838 379 23.0615234375 378.679519174 23.0615234375 338.249784633 c 0
 23.0615234375 315.122070312 91.212213647 315.122070312 116.586244628 315.122070312 c 0
 163.40111862 315.122070312 216.224964475 313.450936988 216.224964475 262.892636258 c 0
EndSplineSet
EndChar
StartChar: eight
Encoding: 56 56 37
Width: 500
InSpiro: 1
Flags: HW
LayerCount: 2
Back
Fore
SplineSet
261.980092176 264.735579711 m 0
 321.297568224 264.735579711 362.107068038 184.88836213 362.107068038 148.201673301 c 0
 362.107068038 99.7072325495 320.101825601 63.1835473895 268.515068699 63.1835473895 c 0
 214.551428447 63.1835473895 137.808928047 111.640935625 137.808928047 165.824200778 c 0
 137.808928047 202.452269389 171.029327059 221.465716924 188.019977147 231.190188743 c 0
 201.449682073 238.876580166 224.638008171 254.016215932 225.015383778 254.234290982 c 0
 237.259651196 261.309918501 249.790580241 264.735579711 261.980092176 264.735579711 c 0
360.190417504 544.176930695 m 0
 360.190417504 533.898419038 362.054335644 505.568061299 362.054335644 498.317520339 c 0
 362.054335644 465.936752018 346.915414063 450.375827347 327.231142123 436.499455055 c 0
 295.499667375 414.130440935 303.725161675 414.572636123 286.87487319 400.508630882 c 0
 276.762282361 392.068209784 265.816325647 387.908574412 255.244278425 387.908574412 c 0
 232.544321046 387.908574412 220.034557884 402.514601936 203.996214034 421.240495359 c 0
 193.245293028 433.792951076 190.566341268 436.553699979 181.31042786 446.090662013 c 0
 160.113633764 467.931080308 137.00588426 491.740478689 137.00588426 526.753575527 c 0
 137.00588426 553.90825177 156.548534032 603.998437784 192.05793082 624.958322932 c 0
 215.401811265 638.737353197 240.581084288 639.216745419 263.725687402 639.216745419 c 0
 265.456596913 639.216745419 267.176126398 639.214064151 268.882657064 639.214064151 c 0
 314.217502525 639.214064151 360.793254636 631.032302905 360.793254636 562.993462723 c 0
 360.793254636 560.130142864 360.190417504 544.365192558 360.190417504 544.176930695 c 0
354.656069471 344.229139877 m 0
 354.656069471 395.997333482 409.05232311 422.60945402 409.05232311 582.376237754 c 0
 409.05232311 653.715430506 390.866620704 667.035050578 353.738345356 683.156289854 c 0
 308.169036696 702.942658104 277.89139068 710.401711468 254.505723557 710.401711468 c 0
 223.408786268 710.401711468 200.798953495 697.601401618 163.321866359 675.738725372 c 0
 120.12843881 650.541358271 101.852118529 628.175506529 80.2032946543 573.846259544 c 0
 69.0988253655 545.978812419 64.3780151719 524.675411161 64.3780151719 507.177455972 c 0
 64.3780151719 434.447797037 152.876056272 401.96996095 152.876056272 330.922143107 c 0
 152.876056272 259.039820624 64.3053893216 266.688505605 64.3053893216 198.820579225 c 0
 64.3053893216 174.694346764 76.459705578 146.734376641 88.3491321308 120.692284009 c 0
 121.302943594 48.5116614289 138.298369805 13.2617920564 224.180203511 -3.53094266282 c 0
 245.352006857 -7.67072941136 264.234055354 -9.5481977133 280.944481538 -9.5481977133 c 0
 339.430035277 -9.5481977133 410.066903011 14.4982407513 410.066903011 130.669126995 c 0
 410.066903011 240.453956794 354.656069471 291.984822854 354.656069471 344.229139877 c 0
EndSplineSet
EndChar
StartChar: nine
Encoding: 57 57 38
Width: 500
InSpiro: 1
Flags: HW
LayerCount: 2
Back
Fore
SplineSet
378.63671875 216.837677313 m 0
 378.63671875 214.6373793 346.784352959 72.1661138588 212.855983537 72.1661138588 c 0
 156.675595964 72.1661138588 139.406080836 95.934669211 99.0109023285 95.934669211 c 0
 68.7283610472 95.934669211 49.4106226063 80.4609638961 49.4106226063 75.2487604301 c 0
 49.4106226063 59.8067503286 117.741610294 23.811473906 220.889299251 23.811473906 c 0
 325.421917839 23.811473906 361.748974166 56.6626759611 383.324323623 90.1041798356 c 0
 432.460185393 166.264110179 432.985475065 329.226840711 432.985475065 331.693245106 c 0
 432.985475065 425.234033583 407.636974257 480.958679491 339.031073154 554.095055112 c 0
 289.488168391 606.909586136 252.498855804 629.816362825 219.041316954 629.816362825 c 0
 188.855445011 629.816362825 155.274649671 611.338066859 111.439631226 567.503048414 c 0
 69.0200545598 525.083471748 60.4541015625 503.958549262 60.4541015625 425.833864793 c 0
 60.4541015625 264.741684912 97.8104737115 228.027036965 208.011076698 228.027036965 c 0
 253.754029676 228.027036965 291.215010948 235.06804771 339.218567663 235.06804771 c 0
 356.233245928 235.06804771 378.63671875 235.06804771 378.63671875 216.837677313 c 0
349.042391426 370.341657219 m 0
 349.042391426 299.038812014 274.600525066 277.349998415 227.678673832 277.349998415 c 0
 158.672995761 277.349998415 106.214330893 318.239947688 106.214330893 380.591420626 c 0
 106.214330893 408.854540533 117.500559685 429.79216918 119.558953134 460.688494069 c 0
 123.43974275 518.938843058 127.196740734 521.67057768 180.226822823 557.530729419 c 0
 199.911989483 570.842288361 215.821697816 581.600796221 233.295957 581.600796221 c 0
 250.462921916 581.600796221 264.277916423 570.396877147 274.735021084 552.845751627 c 0
 280.826347544 542.622115286 300.498600787 497.014342322 319.382374968 464.773378165 c 0
 328.617473866 449.005953195 349.042391426 414.133738105 349.042391426 370.341657219 c 0
EndSplineSet
EndChar
StartChar: semicolon
Encoding: 59 59 40
Width: 500
InSpiro: 1
Flags: HW
LayerCount: 2
Back
Fore
SplineSet
155.243753101 -88.8048279702 m 0
 155.243753101 -116.71925817 205.133499756 -123.299738735 209.318532977 -123.802650811 c 2
 209.318532977 -123.802650811 210.181763965 -123.959791721 210.259125819 -123.959915114 c 0
 236.282056722 -123.959915114 276.594880109 -83.6594342225 284.388322992 -72.7269553027 c 0
 294.328923737 -58.7824881756 291.842730215 -53.2975960795 306.81256897 -18.0183086335 c 0
 320.947697501 15.2938245666 327.455783005 32.695888858 327.455783005 49.3448674197 c 0
 327.455783005 89.9705711755 286.58030629 154.986917458 247.014664721 154.986917458 c 0
 219.78843909 154.986917458 194.341754017 124.852657247 194.341754017 98.4542290599 c 0
 194.341754017 66.9348133988 251.485902124 44.1166199867 251.485902124 1.17576043695 c 0
 251.485902124 -26.1694470867 233.108832906 -41.0541863758 199.248986932 -45.2693207066 c 0
 182.012554387 -47.4150445418 171.642618897 -48.5543030754 163.079731309 -64.0813183842 c 0
 157.102914515 -74.9190322865 155.243753101 -83.0751780605 155.243753101 -88.8048279702 c 0
223.412433679 497.286132812 m 0
 187.681384038 497.286132812 130.500931031 438.146605901 130.500931031 409.86812845 c 0
 130.500931031 392.629490256 157.507467913 354.243334001 189.506560507 354.243334001 c 0
 203.057516305 354.243334001 252.774886947 359.787260145 269.01926285 368.286646408 c 0
 274.964344567 371.397233492 280.268148854 374.884975488 280.268148854 392.927279792 c 0
 280.268148854 409.66264151 274.073123767 445.037941173 273.421461734 462.949436297 c 0
 272.871963869 478.052860837 246.660408255 497.286132812 223.412433679 497.286132812 c 0
EndSplineSet
EndChar
StartChar: less
Encoding: 60 60 41
Width: 500
InSpiro: 1
Flags: HW
LayerCount: 2
Back
Fore
SplineSet
74.7081528914 278.929348452 m 0
 74.7081528914 253.047682702 104.242993013 228.496016052 133.781276014 203.941487412 c 0
 201.501843745 147.646860543 227.142455436 118.368512104 263.71512529 50.6067305907 c 0
 276.370350503 27.1591504918 293.890652257 -5.3024352841 322.381525574 -5.3024352841 c 0
 338.598772236 -5.3024352841 351.204902236 7.29127406846 351.204902236 23.6141833693 c 0
 351.204902236 62.6089253954 305.597761553 64.286677493 265.886024496 152.493953023 c 0
 248.827077445 190.385099426 240.707599325 200.629841861 206.658524536 221.295784395 c 0
 191.349614955 230.587462587 162.341183905 248.194007634 162.341183905 279.97548951 c 0
 162.341183905 313.357721486 195.802462811 338.904758166 217.229012071 355.212637947 c 0
 251.61215056 381.381858301 302.075943692 427.276878443 302.941066672 427.995173372 c 0
 324.049385951 445.521003844 344.500381327 458.747089326 359.496687829 473.707875467 c 0
 369.977110291 484.163473922 376.247058338 493.962065005 376.247058338 504.699571862 c 0
 376.247058338 518.30151257 365.658521354 531.679782546 343.443122395 531.679782546 c 0
 324.545031864 531.679782546 296.022121269 520.846578908 263.161017874 485.946330932 c 0
 209.176428739 428.611812212 180.621069335 398.068649706 165.214307206 375.851012152 c 0
 141.152680325 341.152449239 140.201888111 340.525771934 98.3383991348 312.933099171 c 0
 78.854964896 300.091359545 74.7081528914 288.695171069 74.7081528914 278.929348452 c 0
EndSplineSet
EndChar
StartChar: equal
Encoding: 61 61 42
Width: 500
InSpiro: 1
Flags: HW
LayerCount: 2
Back
Fore
SplineSet
376.28762078 221.492143692 m 0
 376.28762078 226.940590621 320.55058897 227.561523438 296.260896386 227.561523438 c 0
 224.722727026 227.561523438 50.6811505139 227.502484106 37.879940648 196.574341895 c 0
 40.6061144561 192.759772803 67.3865646938 166.2578125 287.110560615 166.2578125 c 0
 356.392920819 166.2578125 364.875686349 170.778454894 370.01571651 181.117671758 c 0
 374.54239617 190.223128575 376.925523275 210.563268912 376.925523275 216.451263386 c 0
 376.925523275 219.925069721 376.35605096 221.288500195 376.28762078 221.492143692 c 0
167.659625573 488.417781459 m 0
 100.506868025 488.417781459 79.1616412037 434.003651984 79.1616412037 431.000631307 c 0
 79.1616412037 419.313664946 114.306664262 409.735351562 167.915832658 409.735351562 c 0
 172.096542114 409.735351562 279.552693232 409.48456021 318.738020844 383.810117987 c 0
 322.276106019 381.491945116 326.437345501 380.136338095 331.51415263 380.136338095 c 0
 352.012380405 380.136338095 378.435795003 404.475795208 378.435795003 414.27953721 c 0
 378.435795003 442.32155093 223.953972422 488.417781459 167.659625573 488.417781459 c 0
EndSplineSet
EndChar
StartChar: greater
Encoding: 62 62 43
Width: 500
InSpiro: 1
Flags: HW
LayerCount: 2
Back
Fore
SplineSet
40.1531827736 531.256984721 m 0
 28.9226691548 531.256984721 23.9245370211 521.98769449 23.9245370211 512.981196631 c 0
 23.9245370211 495.45863542 44.2920760592 471.724501601 84.7167414825 431.321570648 c 0
 126.509078056 389.551703878 141.977066605 381.333365532 199.123006935 369.651305697 c 0
 264.115418349 356.365230875 254.206323295 319.95221135 298.716537102 316.733517185 c 0
 317.842003209 315.350485721 335.937323635 306.030345377 335.937323635 287.00621352 c 0
 335.937323635 260.376469511 305.039142405 251.673160947 295.592007117 239.619571079 c 0
 293.516482608 236.971411565 291.23895234 232.422655866 286.738786342 222.090595124 c 0
 252.635882939 143.792756858 201.073219772 156.705351283 132.050510088 92.3578793509 c 0
 108.338828335 70.2523030407 100.933060901 50.5403026465 100.933060901 36.8497714723 c 0
 100.933060901 17.9606557685 114.272701898 5.79320310447 132.077381754 5.79320310447 c 0
 158.504059313 5.79320310447 178.382838711 32.6419160151 187.824551458 45.3940991265 c 0
 201.50165232 63.8666897792 219.673708635 87.4680613927 278.413356105 126.351873164 c 0
 322.829097344 155.753706447 321.784877568 155.627349253 365.651807924 213.984871329 c 0
 381.69004226 235.321026074 401.413121925 256.262963586 411.366736135 268.210945069 c 0
 425.325238056 284.966258161 428.957056361 297.014393623 428.957056361 304.765823017 c 0
 428.957056361 328.502004501 398.39348981 337.179238531 375.221839051 343.757850231 c 0
 290.264851894 367.87779902 286.505998205 392.671844598 208.900922824 433.626567765 c 0
 183.928063473 446.805558139 157.904650676 463.167678629 129.041236342 483.458102983 c 0
 108.381597787 495.599447636 97.1429957053 498.524092686 71.3378922419 516.61803277 c 0
 60.9778320263 523.882266726 50.3399127551 531.256984721 40.1531827736 531.256984721 c 0
EndSplineSet
EndChar
StartChar: question
Encoding: 63 63 16
Width: 500
InSpiro: 1
Flags: HW
LayerCount: 2
Back
Fore
SplineSet
233.74609375 75.3863911954 m 0
 233.74609375 8.4189453125 245.345056922 8.4189453125 255.132958556 8.4189453125 c 0
 274.323428173 8.4189453125 281.619352402 18.4314477421 281.619352402 30.4153758482 c 0
 281.619352402 44.1994546173 270.018573135 66.6392700723 233.854792582 81.9192071378 c 1
 233.789113059 79.9995170393 233.74609375 77.8151274367 233.74609375 75.3863911954 c 0
  Spiro
    233.746 75.3864 o
    234.659 47.9685 o
    238.324 23.4534 o
    246.085 9.98321 o
    248.102 9.20705 o
    251.066 8.63843 o
    255.133 8.41895 o
    270.517 11.4528 o
    279.022 19.3962 o
    281.619 30.4154 o
    277.282 46.4811 o
    262.29 64.8567 o
    233.855 81.9192 v
    233.797 79.9141 o
    233.76 77.7307 o
    0 0 z
  EndSpiro
100.368711073 509.070497339 m 1
 113.869274976 515.284317218 104.064847422 587.65526496 224.517645975 587.65526496 c 0
 251.106042518 587.65526496 274.824617074 583.95282643 289.307098729 578.328488963 c 0
 328.061410591 563.278076101 350.399610823 531.454806828 350.399610823 498.463626557 c 0
 350.399610823 478.294962674 341.904932243 458.492369167 325.375758546 443.632210881 c 0
 307.937765761 427.955000528 286.905486913 421.921998754 269.555402983 411.905307721 c 0
 221.018442585 383.883556477 190.127805788 293.029781894 190.127805788 260.455489192 c 0
 190.127805788 214.648530774 218.513950636 177.139536027 256.357230495 177.139536027 c 0
 262.709884802 177.139536027 287.992652001 178.841914396 287.992652001 205.942847892 c 0
 287.992652001 217.809091163 281.97476002 227.053279342 274.649062251 229.884887987 c 0
 254.965432346 237.49321942 242.88986643 251.605560128 242.88986643 268.654904933 c 0
 242.88986643 282.356707831 250.128851701 299.108034141 270.628841043 319.07387675 c 0
 288.84000715 336.810533592 286.537484509 334.031840572 308.063734606 364.719463093 c 0
 339.23373694 409.155129374 366.245592673 403.409062095 379.432711713 414.105249808 c 0
 385.923166025 419.369714127 395.976385101 443.133235476 395.976385101 484.396340631 c 0
 395.976385101 515.053223069 390.172954631 550.36795173 376.971220943 581.06929052 c 0
 364.737624849 609.519173474 352.048897538 627.749650699 318.717515878 632.743329226 c 1
 258.025920482 635.414270553 190.498221697 638.196383809 173.779800939 638.196383809 c 0
 73.2422760814 638.196383809 65.19957069 611.506164118 65.19957069 589.332059742 c 0
 65.19957069 562.25775081 84.7518914065 509.975539 100.368711073 509.070497339 c 1
  Spiro
    173.78 638.196 o
    100.994 630.47 o
    70.9936 611.834 o
    65.1996 589.332 o
    70.8367 556.727 o
    84.3256 524.238 o
    100.369 509.07 o
    105.108 515.131 o
    109.694 525.434 o
    112.894 534.145 o
    126.587 556.354 o
    160.768 577.98 o
    224.518 587.655 o
    249.89 586.489 o
    272.002 583.242 o
    289.307 578.328 o
    322.343 558.29 o
    343.187 530.457 o
    350.4 498.464 o
    347.591 478.606 o
    339.199 459.953 o
    325.376 443.632 o
    307.028 430.676 o
    287.844 421.09 o
    269.555 411.905 o
    234.029 377.534 o
    207.808 328.577 o
    191.453 277.419 o
    190.712 271.724 o
    190.272 266.053 o
    190.128 260.455 o
    198.872 218.533 o
    222.397 188.539 o
    256.357 177.14 o
    267.368 178.581 o
    281.215 186.443 o
    287.993 205.943 o
    286.165 216.785 o
    281.358 225.063 o
    274.649 229.885 o
    257.681 239.518 o
    246.742 252.731 o
    242.89 268.655 o
    245.52 283.364 o
    254.338 300.191 o
    270.629 319.074 o
    283.635 331.961 o
    292.849 343.202 o
    308.064 364.719 o
    337.462 394.877 o
    362.017 406.429 o
    379.433 414.105 o
    386.599 425.482 o
    393.135 449.033 o
    395.976 484.396 o
    393.987 516.23 o
    387.757 549.206 o
    376.971 581.069 o
    363.853 605.98 o
    345.894 623.463 o
    318.718 632.743 v
    257.941 635.342 o
    205.255 637.378 o
    0 0 z
  EndSpiro
EndSplineSet
EndChar
StartChar: at
Encoding: 64 64 17
Width: 500
InSpiro: 1
Flags: HW
LayerCount: 2
Back
Fore
SplineSet
270.43913179 49.7357188075 m 0
 230.379446667 49.7357188075 196.325298507 -15.8461660861 149.877813216 -15.8461660861 c 0
 137.643549533 -15.8461660861 99.219422719 -10.9081242677 99.219422719 51.1230368459 c 0
 99.219422719 64.6880274389 100.604435878 78.0947215306 100.604435878 91.6498238815 c 0
 100.604435878 130.475595655 80.8335013598 197.898130205 80.8335013598 244.636671389 c 0
 80.8335013598 246.590541069 81.4133536045 317.0170011 81.5184287237 440.022438837 c 0
 81.5741229498 505.220486884 85.3346920335 580.110076515 130.968324513 618.852991763 c 0
 131.814371592 619.571285015 196.899669265 667.625678244 229.12266666 670.651965366 c 1
 251.109231493 670.651965366 264.518485634 656.208003105 270.80046748 649.80594148 c 0
 294.930798065 625.214360794 300.103130052 631.805345817 319.01866499 611.002297933 c 0
 333.134276226 595.478140811 343.004836583 573.549018341 367.012309377 539.964148652 c 0
 398.483072202 495.938628865 415.429479952 469.54357353 415.429479952 433.832961686 c 0
 415.429479952 395.209498955 396.859307936 361.136222265 396.859307936 338.816317034 c 0
 396.859307936 319.064065452 409.070561081 305.165207441 409.070561081 284.188502213 c 0
 409.070561081 261.826153659 393.892743229 250.308530483 378.763013656 250.308530483 c 0
 365.385946911 250.308530483 352.312971832 258.910086697 347.397976255 273.237602199 c 0
 345.218968032 279.58954568 340.629994656 359.632973541 340.583587484 360.507093888 c 0
 338.982272223 390.669290562 338.576507564 393.552858757 321.811183648 396.94711056 c 0
 251.484699017 411.185177085 307.919124333 462.973130355 234.251156507 462.973130355 c 0
 170.041524751 462.973130355 137.117076492 404.022803157 137.117076492 333.150688472 c 0
 137.117076492 286.025517196 148.826941569 258.58561999 155.402335926 208.456093062 c 0
 159.177096902 179.678049995 166.307131414 170.691274165 198.664891587 168.102237023 c 0
 298.250613826 160.134097937 294.484169896 149.190611022 344.57498654 149.190611022 c 0
 413.137030775 149.190611022 420.23758801 184.966088812 432.307718564 251.987241945 c 0
 434.132557218 262.119923636 436.064625993 272.85619716 438.437003756 284.238638681 c 0
 449.238791291 336.064581766 455.314588514 365.954049281 455.314588514 393.867864443 c 0
 455.314588514 488.868942323 350.729911834 721.292653017 213.892125955 721.292653017 c 0
 88.8150350379 721.292653017 39.7167083259 510.123176176 35.3757609715 489.628240933 c 0
 26.0741208802 445.712363644 23.0394173196 402.658156089 23.0394173196 359.378573394 c 0
 23.0394173196 334.764271651 27.4780009829 248.784147389 29.4158496202 151.214489402 c 0
 31.2050044565 61.131485959 32.1695475811 12.5672477785 52.6149658436 -24.8371886994 c 0
 77.8702601095 -71.0411859946 117.184909965 -81.5675053284 151.089242579 -81.5675053284 c 0
 227.96921631 -81.5675053284 299.687426977 -29.2158455148 299.687426977 18.9156964094 c 0
 299.687426977 42.5495459903 280.754860482 49.7357188075 270.43913179 49.7357188075 c 0
168.913085938 360.98042923 m 0
 168.913085938 376.196155991 168.913085938 414.956753339 206.128360445 414.956753339 c 0
 206.954194507 414.956753339 260.350537857 414.311767316 277.574878175 373.539195689 c 0
 284.367676496 357.459633225 285.869140625 338.230092242 285.869140625 313.229480034 c 0
 285.869140625 289.595485813 285.710425153 200.913085938 243.262193561 200.913085938 c 0
 204.0372958 200.913085938 168.913085938 289.171951046 168.913085938 360.98042923 c 0
EndSplineSet
EndChar
StartChar: A
Encoding: 65 65 44
Width: 500
InSpiro: 1
Flags: HW
LayerCount: 2
Back
Fore
SplineSet
233.271484375 337.163085938 m 0
 190.04654756 337.163085938 178.708984375 368.569780999 178.708984375 382.783203125 c 0
 178.708984375 414.069442278 208.366345629 437.093278086 208.366345629 478.121559671 c 0
 208.366345629 483.933115305 208.063086284 490.214465322 208.063086284 496.327760765 c 0
 208.063086284 500.310394434 208.856579904 561.352539062 257.498046875 561.352539062 c 0
 280.727827632 561.352539062 301.533167977 543.791280418 312.378422458 515.417211285 c 0
 319.408065629 497.024257768 339.196289062 397.61359006 339.196289062 374.822265625 c 0
 339.196289062 362.529212652 335.98652526 327.90625 299.827148438 327.90625 c 0
 277.86608886 327.90625 273.852590212 337.330078125 246.009765625 337.330078125 c 0
 241.709823665 337.330078125 237.517726139 337.163085938 233.271484375 337.163085938 c 0
369.858398438 178.211914062 m 0
 369.858398438 153.98724976 360.578125 134.670918482 360.578125 102.732421875 c 0
 360.578125 67.1259784174 380.608906835 -16.0751953125 417.3125 -16.0751953125 c 0
 431.635400074 -16.0751953125 448.357421875 -0.376435433276 448.357421875 23.232421875 c 0
 448.357421875 75.7936388659 402.897460938 94.1271531178 402.897460938 223.2578125 c 2
 402.897460938 223.2578125 403.069335938 253.637695312 403.069580517 253.724175358 c 0
 403.069580517 297.086454371 402.70139455 394.21751356 358.802038507 504.588843091 c 0
 341.18342079 548.884693527 284.577416663 652.354492188 243.713867188 652.354492188 c 0
 233.666521501 652.354492188 218.253300617 644.416022084 203.31701912 602.782577768 c 0
 196.11753004 582.713689081 182.304762941 544.714555723 159.248639691 491.925678853 c 0
 123.967940133 397.819796204 146.593354087 322.707675053 104.633653736 221.294559437 c 0
 96.1236004113 200.725038129 81.07654052 171.428719909 71.3558798743 149.092906998 c 0
 42.4306830336 82.6341870655 40.94921875 47.3184039837 40.94921875 40.5263671875 c 0
 40.94921875 12.0742775395 54.9012809073 3.23046875 64.6767578125 3.23046875 c 0
 72.5421032998 3.23046875 84.113415891 8.48925152346 93.44862376 26.3716302343 c 0
 105.102884786 48.6982745649 112.241955017 87.3587205431 122.293044559 108.74870101 c 0
 163.151761823 195.701181189 162.76402562 216.079864787 183.34244511 239.487547969 c 0
 196.40234058 254.343008356 213.463314921 260.482421875 232.655273438 260.482421875 c 0
 251.051504046 260.482421875 271.606575145 255.952691891 298.48743405 249.919713386 c 0
 319.502636126 245.202945735 369.858398438 234.142703925 369.858398438 178.211914062 c 0
EndSplineSet
EndChar
StartChar: B
Encoding: 66 66 45
Width: 500
InSpiro: 1
Flags: HW
LayerCount: 2
Fore
SplineSet
146.717940667 346.26090198 m 0
 136.04782064 346.26090198 103.344078181 348.892731188 103.344078181 381.159526447 c 0
 103.344078181 401.996353865 115.526722655 412.054483098 115.526722655 434.91468823 c 0
 115.526722655 448.219035798 111.094837126 459.586385872 111.094837126 474.781213121 c 0
 111.094837126 511.402667567 135.265674619 536.989554653 180.586192031 536.989554653 c 0
 241.887406942 536.989554653 317.692963206 491.376762941 317.692963206 426.990122129 c 0
 317.692963206 377.683626611 275.60976143 338.328768847 223.959805904 338.328768847 c 0
 199.220879936 338.328768847 177.865136344 346.34993364 152.94187096 346.34993364 c 0
 152.657351657 346.34993364 146.780186338 346.26090198 146.717940667 346.26090198 c 0
288.755294582 289.333398444 m 0
 335.874970327 289.333398444 364.874002498 237.522255492 364.874002498 199.960882629 c 0
 364.874002498 131.541773717 284.126291017 78.4423828125 231.642578125 78.4423828125 c 0
 182.288897671 78.4423828125 118.866210938 116.644907621 118.866210938 203.450195312 c 0
 118.866210938 234.903357695 126.445945126 288.784813973 178.384316317 288.784813973 c 0
 198.724715429 288.784813973 216.298303386 279.562777782 232.341916667 279.562777782 c 0
 249.69061231 279.562777782 266.345679514 289.333398444 288.755294582 289.333398444 c 0
78.7144599901 604.808982613 m 0
 71.3942993932 604.808982613 55.5026390286 603.018144972 55.5026390286 587.466939837 c 0
 55.5026390286 579.816513678 58.7539457483 566.84657041 58.7539457483 546.871398905 c 0
 58.7539457483 517.945663025 52.0774756249 499.311354194 52.0774756249 466.290553871 c 0
 52.0774756249 464.863463711 60.6446223902 383.37453073 62.6417931073 323.973097283 c 0
 65.5348487429 237.915342596 76.7499891945 203.738036467 76.7499891945 146.623139923 c 0
 76.7499891945 128.71553198 75.4970590792 111.459153459 75.4970590792 94.6582980246 c 0
 75.4970590792 55.0494717965 84.1570635599 15.3269210784 142.027646984 13.6125747967 c 0
 186.711928009 15.4929495714 201.303835462 16.1069967052 222.404924155 16.1069967052 c 0
 231.045411057 16.1069967052 236.591795735 15.8366672508 247.96568978 15.8366672508 c 0
 298.172326939 15.8366672508 324.477614153 21.7240222349 371.198262218 71.7949069267 c 0
 409.328447334 112.66000448 425.4928643 139.803121405 425.4928643 184.062086496 c 0
 425.4928643 184.734238138 423.857491099 234.888702489 414.612511859 250.390784885 c 0
 408.406670674 260.79680732 394.175724624 268.845386432 370.002277024 292.723858729 c 0
 354.43050367 308.105618286 352.316350648 310.19397346 328.16318691 322.151404665 c 1
 345.550755247 387.893791655 359.825349256 380.795819911 359.825349256 420.751158449 c 0
 359.825349256 431.21582306 355.329654313 480.54846888 339.975557821 508.399787371 c 0
 333.986843006 519.262921113 325.814035423 529.215226623 312.872390065 541.200866215 c 0
 252.420591513 597.188719411 229.926540824 601.338677982 208.017879521 601.338677982 c 0
 197.448177011 601.338677982 185.944325751 600.070860836 169.905021211 600.070860836 c 0
 167.093387516 600.070860836 156.230481965 600.287586183 156.092338133 600.287586183 c 0
 139.363537372 600.287586183 136.197069422 595.676491692 128.0221834 595.676491692 c 0
 117.355539512 595.676491692 98.2550529563 604.808982613 78.7144599901 604.808982613 c 0
EndSplineSet
EndChar
StartChar: D
Encoding: 68 68 47
Width: 500
InSpiro: 1
Flags: HW
LayerCount: 2
Back
Fore
SplineSet
237.754882812 499.067382812 m 0
 359.472062793 499.067382812 389.680664062 377.190889801 389.680664062 310.287109375 c 0
 389.680664062 282.645106629 384.969216003 255.501599834 374.252090154 231.8995213 c 0
 369.063116562 220.474315463 329.360854008 148.484076556 319.244596983 135.099568263 c 0
 284.818223415 89.5445839366 210.050005992 78.9130859375 203.150390625 78.9130859375 c 0
 190.010799822 78.9130859375 187.50361793 77.779104594 187.50361793 77.779104594 c 2
 185.877327194 77.1631580949 184.616284711 76.685546875 180.431640625 76.685546875 c 0
 173.553701619 76.685546875 165.330022017 79.9971620174 161.044554108 86.8314167011 c 0
 153.925668374 98.18426759 158.610244594 108.041198589 153.09945715 120.333838469 c 0
 149.564721214 128.219837618 142.878456012 137.096517546 137.476006919 146.964777516 c 0
 127.114951109 165.889652916 123.821289062 183.127906776 123.821289062 199.4375 c 0
 123.821289062 219.868297694 128.431640625 238.728103759 128.431640625 264.319335938 c 0
 128.431640625 302.06766872 117.864257812 325.497373386 117.864257812 367.830078125 c 0
 117.864257812 391.677110908 124.170092295 499.067382812 237.754882812 499.067382812 c 0
87.6318359375 36.330078125 m 0
 87.6318359375 27.6169451409 87.6318359375 11.9375 144.0546875 11.9375 c 0
 254.542747693 11.9375 299.84451213 19.7781495554 344.085278881 83.8233091511 c 1
 437.274308759 231.681940402 450.146484375 264.303371831 450.146484375 332.744140625 c 0
 450.146484375 383.831596205 437.912331216 419.627911864 420.200721903 445.136035861 c 1
 420.200721903 445.136035861 373.875443716 506.005532144 352.681878561 525.109429093 c 0
 335.518037301 540.581946354 289.114866748 576.369140625 243.33984375 576.369140625 c 0
 145.97251389 576.369140625 175.68991695 518.04296875 138.622070312 518.04296875 c 0
 121.98787401 518.04296875 113.62960612 535.777816649 109.047234199 547.486662648 c 0
 108.536090687 548.792556916 103.788393316 553.546875 93.287109375 553.546875 c 0
 77.2806524469 553.546875 56.8031042457 543.557022427 56.5828470146 509.627872593 c 0
 60.4446871007 465.045127911 63.7494661052 426.8933362 64.0198884584 396.864163078 c 0
 64.7247539057 318.456320592 74.9402808047 277.774907555 81.123753305 197.912100965 c 0
 87.243753002 118.859664688 95.9091796875 133.698988344 95.9091796875 95.6611328125 c 0
 95.9091796875 69.7478289568 87.6318359375 52.9365796459 87.6318359375 36.330078125 c 0
EndSplineSet
EndChar
StartChar: E
Encoding: 69 69 48
Width: 500
InSpiro: 1
Flags: HW
HStem: 14.5 89.7002<139.516 177.18 262.122 437.816> 279.3 90.2002<155.004 357.303> 533.5 89.9004<150.265 395.876> 540.9 89.8994<150.2 395.876>
VStem: 52.5996 90<104.26 277.7> 67.4004 91<376.172 539.488>
LayerCount: 2
Back
Fore
SplineSet
116 594 m 1
 123 587 l 1
 127 579 l 1
 127 576 l 1
 144 448 l 1
 144 446 l 1
 138 312 l 1
 127 180 l 1
 129 89 l 1
 174 89 l 1
 251 94 l 1
 252 94 l 1
 330 93 l 1
 332 93 l 1
 407 80 l 1
 411 79 l 1
 420 75 l 1
 427 64 l 1
 427 48 l 1
 420 37 l 1
 409 32 l 1
 402 31 l 1
 325 43 l 1
 325 44 l 1
 252 44 l 1
 176 39 l 1
 104 37 l 1
 98 38 l 1
 88 43 l 1
 81 54 l 1
 81 61 l 1
 77 182 l 1
 77 183 l 1
 88 315 l 1
 94 443 l 1
 77 573 l 1
 78 580 l 1
 83 591 l 1
 94 598 l 1
 108 598 l 1
 116 594 l 1
284 348 m 1
 286 348 l 1
 337 344 l 1
 342 343 l 1
 352 336 l 1
 358 324 l 1
 356 308 l 1
 347 299 l 1
 337 295 l 1
 312 296 l 1
 281 299 l 1
 232 299 l 1
 156 299 l 1
 129 299 l 1
 120 303 l 1
 112 312 l 1
 110 327 l 1
 115 340 l 1
 125 347 l 1
 131 348 l 1
 179 349 l 1
 231 349 l 1
 234 349 l 1
 284 348 l 1
229 610 m 1
 232 610 l 1
 270 606 l 1
 294 604 l 1
 303 604 l 1
 335 603 l 1
 368 602 l 1
 386 602 l 1
 395 598 l 1
 404 588 l 1
 406 572 l 1
 399 559 l 1
 399 558 l 1
 398 558 l 1
 388 553 l 1
 376 552 l 1
 341 553 l 1
 308 554 l 1
 277 555 l 1
 240 559 l 1
 225 561 l 1
 197 562 l 1
 165 562 l 1
 121 551 l 1
 118 550 l 1
 117 551 l 1
 107 552 l 1
 101 555 l 1
 96 559 l 1
 90 571 l 1
 92 586 l 1
 100 596 l 1
 131 607 l 1
 149 610 l 1
 181 612 l 1
 189 612 l 1
 190 612 l 1
 229 610 l 1
EndSplineSet
EndChar
StartChar: F
Encoding: 70 70 49
Width: 500
InSpiro: 1
Flags: HW
HStem: 318 88.5<320.203 418.758> 574.7 89.2998<177.708 456.193>
VStem: 46 89<15.8019 302.494> 51.0996 90.3008<19.7523 100> 65 90<303.6 309.7 400.3 570.444>
LayerCount: 2
Back
Fore
SplineSet
125 645 m 1
 130 635 l 1
 131 630 l 1
 135 484 l 1
 133 339 l 1
 126 196 l 1
 115 50 l 1
 114 46 l 1
 109 36 l 1
 98 29 l 1
 82 29 l 1
 71 36 l 1
 66 47 l 1
 65 53 l 1
 76 199 l 1
 83 341 l 1
 85 483 l 1
 81 629 l 1
 82 635 l 1
 87 645 l 1
 98 652 l 1
 114 652 l 1
 125 645 l 1
427 645 m 1
 437 640 l 1
 444 629 l 1
 444 613 l 1
 437 602 l 1
 427 597 l 1
 422 596 l 1
 342 593 l 1
 188 593 l 1
 110 592 l 1
 104 593 l 1
 94 598 l 1
 87 609 l 1
 87 625 l 1
 94 636 l 1
 104 641 l 1
 109 642 l 1
 188 643 l 1
 341 643 l 1
 421 646 l 1
 427 645 l 1
408 387 m 1
 408 387 l 1
 418 382 l 1
 425 369 l 1
 423 354 l 1
 415 343 l 1
 406 339 l 1
 381 338 l 1
 306 335 l 1
 233 332 l 1
 190 330 l 1
 154 334 l 1
 114 338 l 1
 107 341 l 1
 98 350 l 1
 96 365 l 1
 100 378 l 1
 111 385 l 1
 118 387 l 1
 179 383 l 1
 250 382 l 1
 322 386 l 1
 398 388 l 1
 402 388 l 1
 408 387 l 1
EndSplineSet
EndChar
StartChar: G
Encoding: 71 71 50
Width: 500
Flags: HW
LayerCount: 2
Fore
SplineSet
229.648083464 301.927607419 m 0
 229.648083464 258.956919107 351.866044588 277.914887219 351.866044588 205.03178822 c 0
 351.866044588 172.799366343 324.631361406 140.760793359 300.709942615 113.282959916 c 0
 278.048174042 87.2520498019 253.729493185 74.4617138415 229.328866416 74.4617138415 c 0
 162.056602415 74.4617138415 109.843105586 173.178287357 109.843105586 237.978311096 c 0
 109.843105586 271.164998238 116.137071887 280.331260557 118.225334483 333.416873428 c 0
 120.447636295 389.909890125 127.612121196 412.177631929 161.059835383 447.802290336 c 0
 169.571663243 456.868110447 179.562673319 467.466593659 195.270331489 488.663338651 c 0
 212.966142177 512.543001842 230.950015243 525.211841547 250.65219497 525.211841547 c 0
 290.134401503 525.211841547 315.614915707 471.666433679 333.967602944 471.666433679 c 0
 340.104139302 471.666433679 346.916458989 479.749110218 347.394661961 480.468982308 c 0
 350.450435094 485.069049473 348.767354039 499.48872239 378.880342474 534.998508008 c 0
 386.295601448 543.742716742 387.317264671 549.090714166 387.317264671 551.41440448 c 0
 387.317264671 552.867403323 383.929085491 563.795400715 366.75881936 564.676309595 c 0
 334.001117753 566.3569213 312.628069628 585.506112192 285.720005329 585.506112192 c 0
 276.456697917 585.506112192 267.143183145 583.535256274 255.910894993 580.751682019 c 0
 195.448577171 565.767971753 187.793251609 563.78626255 166.82346033 530.830630189 c 0
 157.459292125 516.114122971 154.162634811 511.830353018 139.030738857 494.9689124 c 0
 105.877069761 458.025846946 100.263261932 444.887591019 89.4393179859 390.947554884 c 0
 72.9695207909 308.871976865 58.4577958209 300.276897385 58.4577958209 245.990736018 c 0
 58.4577958209 137.544910057 78.6541492522 106.79301841 104.827379967 76.2460516574 c 0
 140.220326059 34.9386884444 179.465605586 19.4647068816 215.647358299 19.4647068816 c 0
 258.344432611 19.4647068816 298.227051777 41.5962643779 322.033837479 73.0417706179 c 2
 331.250355526 85.215529789 l 1
 343.24485849 75.8096745686 l 2
 372.824358719 52.6140075625 380.664822546 10.5459024832 409.413519255 10.5459024832 c 0
 417.723972618 10.5459024832 434.968717372 17.1144264892 434.968717372 36.3186736051 c 0
 434.968717372 55.9893580382 416.996380161 83.8795300919 416.996380161 114.554386781 c 0
 416.996380161 126.256937433 434.586100404 214.552538834 434.586100716 240.796431646 c 0
 434.586100716 262.206629532 431.304602904 276.336349825 383.105579768 290.239446996 c 0
 306.323040785 312.387512061 299.13071176 326.956859061 265.914010272 326.956859061 c 0
 238.694801325 326.956859061 229.648083464 312.287314195 229.648083464 301.927607419 c 0
EndSplineSet
EndChar
StartChar: H
Encoding: 72 72 51
Width: 500
Flags: HW
HStem: 302 85.9004<289.992 352.8>
VStem: 30.2002 89.7998<43.7059 190 376.517 613.234> 39 89.5996<178.162 280.02 375.514 575.615> 340.2 89.2998<21.7503 300.575> 353.5 90.2998<34.8962 263 486.5 649.158>
LayerCount: 2
Back
Fore
SplineSet
96 606 m 1
 101 596 l 1
 102 591 l 1
 108 461 l 1
 110 332 l 1
 107 202 l 1
 100 71 l 1
 99 67 l 1
 94 57 l 1
 83 50 l 1
 67 50 l 1
 56 57 l 1
 51 67 l 1
 50 73 l 1
 57 204 l 1
 60 332 l 1
 58 459 l 1
 52 590 l 1
 53 596 l 1
 58 606 l 1
 69 613 l 1
 85 613 l 1
 96 606 l 1
391 368 m 1
 401 363 l 1
 408 352 l 1
 408 336 l 1
 401 325 l 1
 391 320 l 1
 386 319 l 1
 314 318 l 1
 315 317 l 1
 244 309 l 1
 173 303 l 1
 171 303 l 1
 98 308 l 1
 94 309 l 1
 84 314 l 1
 77 325 l 1
 77 341 l 1
 84 352 l 1
 94 357 l 1
 101 358 l 1
 171 354 l 1
 239 359 l 1
 310 367 l 1
 311 367 l 1
 385 369 l 1
 391 368 l 1
423 637 m 1
 428 627 l 1
 429 622 l 1
 428 479 l 1
 425 338 l 1
 419 198 l 1
 410 56 l 1
 409 52 l 1
 404 42 l 1
 393 35 l 1
 377 35 l 1
 366 42 l 1
 361 52 l 1
 360 58 l 1
 369 200 l 1
 375 340 l 1
 378 479 l 1
 379 622 l 1
 380 627 l 1
 385 637 l 1
 396 644 l 1
 412 644 l 1
 423 637 l 1
EndSplineSet
EndChar
StartChar: I
Encoding: 73 73 15
Width: 500
InSpiro: 1
Flags: HW
HStem: 8.7002 91.3994<43.8512 188.9> 17.5 87.5<282.425 396.061> 555 90<63.2255 180.9> 563 89.5996<270.9 399.863>
VStem: 187.7 89.3994<230.79 554.934> 191.6 90.4004<322.5 342 398.4 414.2>
LayerCount: 2
Back
Fore
SplineSet
372 637 m 1
 383 632 l 1
 390 621 l 1
 390 605 l 1
 383 594 l 1
 373 589 l 1
 369 588 l 1
 301 582 l 1
 234 578 l 1
 167 575 l 1
 98 573 l 1
 92 574 l 1
 82 579 l 1
 75 590 l 1
 75 606 l 1
 82 617 l 1
 92 622 l 1
 97 623 l 1
 165 625 l 1
 232 628 l 1
 297 632 l 1
 366 638 l 1
 372 637 l 1
246 610 m 1
 251 600 l 1
 252 596 l 1
 260 461 l 1
 267 329 l 1
 267 193 l 1
 254 59 l 1
 253 55 l 1
 248 45 l 1
 237 38 l 1
 221 38 l 1
 210 45 l 1
 205 56 l 1
 204 62 l 1
 217 197 l 1
 217 327 l 1
 210 459 l 1
 202 594 l 1
 203 600 l 1
 208 610 l 1
 219 617 l 1
 235 617 l 1
 246 610 l 1
369 91 m 1
 380 86 l 1
 387 75 l 1
 387 59 l 1
 380 48 l 1
 370 43 l 1
 366 42 l 1
 294 35 l 1
 222 30 l 1
 151 28 l 1
 150 28 l 1
 78 31 l 1
 73 32 l 1
 63 37 l 1
 56 48 l 1
 56 64 l 1
 63 75 l 1
 73 80 l 1
 79 81 l 1
 151 79 l 1
 219 80 l 1
 290 85 l 1
 363 92 l 1
 369 91 l 1
EndSplineSet
EndChar
StartChar: J
Encoding: 74 74 52
Width: 500
InSpiro: 1
Flags: HW
HStem: 544.9 84.1992<266.134 322.7 414.057 471.477>
VStem: 11.2998 88.2998<158.936 223.076> 326.6 87.1006<210.45 539.9>
LayerCount: 2
Back
Fore
SplineSet
441 612 m 1
 451 607 l 1
 458 596 l 1
 458 580 l 1
 451 569 l 1
 441 564 l 1
 437 563 l 1
 370 559 l 1
 337 558 l 1
 335 558 l 1
 301 562 l 1
 297 564 l 1
 288 568 l 1
 281 579 l 1
 281 595 l 1
 288 606 l 1
 299 611 l 1
 306 612 l 1
 339 609 l 1
 368 609 l 1
 435 613 l 1
 441 612 l 1
386 589 m 1
 386 589 l 1
 391 579 l 1
 392 569 l 1
 397 446 l 1
 395 324 l 1
 380 219 l 1
 375 201 l 1
 342 100 l 1
 335 91 l 1
 312 63 l 1
 311 62 l 1
 308 59 l 1
 294 53 l 1
 261 39 l 1
 257 38 l 1
 242 38 l 1
 210 36 l 1
 191 41 l 1
 162 49 l 1
 146 57 l 1
 121 69 l 1
 105 81 l 1
 85 97 l 1
 84 98 l 1
 83 100 l 1
 69 117 l 1
 53 135 l 1
 41 158 l 1
 31 179 l 1
 31 188 l 1
 35 200 l 1
 45 208 l 1
 57 210 l 1
 68 207 l 1
 75 202 l 1
 89 176 l 1
 111 145 l 1
 139 119 l 1
 173 100 l 1
 205 90 l 1
 241 88 l 1
 272 99 l 1
 293 119 l 1
 326 214 l 1
 344 326 l 1
 347 440 l 1
 342 562 l 1
 342 579 l 1
 347 589 l 1
 358 596 l 1
 374 596 l 1
 375 596 l 1
 386 589 l 1
EndSplineSet
EndChar
StartChar: K
Encoding: 75 75 53
Width: 500
InSpiro: 1
Flags: HW
LayerCount: 2
Back
Fore
SplineSet
59.5041172559 576.370302355 m 0
 59.5041172559 557.867741134 66.0368492098 537.829514634 66.0368492098 513.771608168 c 0
 66.0368492098 477.452290704 50.2586587264 447.383969513 50.2586587264 392.837790753 c 0
 50.2586587264 328.898749634 75.0750652319 292.071258533 75.0750652319 208.805635016 c 0
 75.0750652319 162.968713062 68.3552534235 138.83537021 68.3552534235 113.683381531 c 0
 68.3552534235 63.4478708142 97.4216881957 46.1291142634 120.829151163 46.1291142634 c 0
 140.489471193 46.1291142634 151.943342561 56.6830176987 151.943342561 68.9084301015 c 0
 151.943342561 94.3899189848 122.056307606 102.133371662 122.056307606 147.554624579 c 0
 122.056307606 159.513174604 123.361717414 167.20438968 123.361717414 177.578376643 c 0
 123.361717414 202.567682443 115.957953318 206.903317213 115.957953318 225.935497144 c 0
 115.957953318 252.263247978 134.394038478 271.060200208 155.461969905 271.060200208 c 0
 158.006015765 271.060200208 173.840160874 270.467657396 185.579541342 256.164045321 c 0
 194.784673925 244.948236621 189.272639777 240.607604545 217.915135069 204.877358265 c 0
 266.93076839 143.732523215 282.888105693 124.815592958 287.305712865 119.86382145 c 0
 300.958816121 111.505233705 336.005263044 39.9989590239 347.087574855 22.8155178142 c 0
 355.215800392 12.1987637216 364.742659893 8.42440853045 372.380089867 8.42440853045 c 0
 383.265580361 8.42440853045 393.205759516 15.3960243697 393.205759516 32.6505023857 c 0
 393.205759516 41.9068375875 389.919988647 54.9119711615 380.243148086 70.9542620975 c 0
 377.540371911 75.4349313274 320.423302927 156.460722584 319.829126069 157.331377437 c 0
 267.509301509 233.996277018 255.251610182 236.866716621 233.757707264 269.472224587 c 0
 218.470829997 292.661889138 211.692314433 313.905070675 211.692314433 333.346267032 c 0
 211.692314433 378.033292699 246.425804584 404.639229031 265.486971125 419.985076973 c 0
 320.569197241 464.330918265 412.771410383 568.955397165 412.771410383 606.020868441 c 0
 412.771410383 607.710887396 412.771410383 609.706553957 410.110485411 612.480489619 c 0
 410.051303118 612.480489619 409.979554632 612.482820433 409.892574016 612.482820433 c 0
 402.342534293 612.482820433 380.566446279 602.609807381 349.905027881 588.659698738 c 0
 299.782756064 565.855432863 307.430227406 539.3366389 223.083473846 450.402728428 c 0
 186.008393248 411.311337717 170.535586779 394.997050242 145.055703249 394.997050242 c 0
 110.035908681 394.997050242 101.074694465 430.010202359 101.074694465 462.745306153 c 0
 101.074694465 512.995357611 116.629782473 563.767352706 116.629782473 582.77459581 c 0
 116.629782473 591.444347475 114.49528385 615.135548261 91.1635320994 615.135548261 c 0
 84.3723285069 615.135548261 59.5041172559 611.674720984 59.5041172559 576.370302355 c 0
  Spiro
    59.5041 576.37 o
    61.1949 557.284 o
    64.3461 536.56 o
    66.0368 513.772 o
    61.9532 478.433 o
    54.3423 440.321 o
    50.2587 392.838 o
    56.6815 335.266 o
    68.6522 279.255 o
    75.0751 208.806 o
    73.3359 169.396 o
    70.0944 139.31 o
    68.3553 113.683 o
    76.7424 73.8725 o
    96.8448 52.4665 o
    120.829 46.1291 o
    137.62 49.3121 o
    148.253 57.5793 o
    151.943 68.9084 o
    144.208 90.5099 o
    129.792 112.667 o
    122.056 147.555 o
    122.394 158.338 o
    123.024 167.851 o
    123.362 177.578 o
    121.446 196.977 o
    117.874 210.506 o
    115.958 225.935 o
    121.507 249.316 o
    135.874 265.223 o
    155.462 271.06 o
    161.783 270.379 o
    173.132 266.377 o
    185.58 256.164 o
    191.684 245.834 o
    198.859 231.543 o
    217.915 204.877 o
    256.679 156.798 o
    278.259 130.5 o
    287.306 119.864 o
    306.387 94.8442 o
    329.719 53.7155 o
    347.088 22.8155 o
    355.552 14.3723 o
    364.243 9.7933 o
    372.38 8.42441 o
    382.608 10.8659 o
    390.231 18.7118 o
    393.206 32.6505 o
    391.998 43.1184 o
    387.899 55.9647 o
    380.243 70.9543 o
    363.538 95.1082 o
    335.13 135.583 o
    319.829 157.331 o
    279.069 213.194 o
    253.978 242.968 o
    233.758 269.472 o
    221.253 291.997 o
    214.011 313.32 o
    211.692 333.346 o
    221.386 372.225 o
    243.092 400.657 o
    265.487 419.985 o
    328.087 479.619 o
    386.874 551.238 o
    412.771 606.021 o
    412.673 607.828 o
    411.982 609.951 o
    410.11 612.48 o
    410.047 612.481 o
    409.974 612.482 o
    409.893 612.483 o
    397.815 609.412 o
    377.383 601.026 o
    349.905 588.66 o
    313.521 562.475 o
    282.273 520.652 o
    223.083 450.403 o
    192.065 418.689 o
    168.348 400.663 o
    145.056 394.997 o
    118.108 405.268 o
    104.687 430.662 o
    101.075 462.745 o
    105.101 511.927 o
    112.604 554.411 o
    116.63 582.775 o
    115.216 595.003 o
    108.124 608.684 o
    91.1635 615.136 o
    79.9513 612.936 o
    66.1912 602.094 o
    0 0 z
  EndSpiro
410.388991138 612.455376438 m 1
 410.388991138 612.455376438 410.379459173 612.45971798 410.388991138 612.455376438 c 1
  Spiro
    410.389 612.455 v
    410.387 612.456 o
    410.385 612.457 o
    0 0 z
  EndSpiro
EndSplineSet
EndChar
StartChar: L
Encoding: 76 76 54
Width: 500
InSpiro: 1
Flags: HW
LayerCount: 2
Back
Fore
SplineSet
151.758661195 140.000331801 m 0
 151.758661195 141.245297189 160.647577315 217.721607246 160.647577315 264.179135721 c 0
 160.647577315 336.789750775 148.276920266 338.39731424 148.276920266 421.245185915 c 0
 148.276920266 464.130524875 151.007280363 545.572015008 151.007280363 559.644256598 c 0
 151.007280363 585.276976356 146.736025543 615.775890485 127.289515379 630.768679096 c 0
 118.517823449 637.531441245 101.319794972 645.167916771 88.0186475977 645.167916771 c 0
 80.8929274289 645.167916771 59.7504213433 645.167916771 59.7504213433 599.27998689 c 0
 59.7504213433 579.543934345 64.825868631 544.830679903 67.3785689175 512.866150236 c 0
 69.0842470983 491.507904183 73.8902872259 378.294068974 73.9712703973 376.935577102 c 0
 81.2023084489 255.634987691 81.2023084489 255.634987691 81.2023084489 247.52507489 c 0
 81.2023084489 155.35666722 61.1869150856 112.342874497 61.1869150856 66.6335170179 c 0
 61.1869150856 12.6841226578 88.1854444302 12.6841226578 107.967103622 12.6841226578 c 0
 146.149103646 12.6841226578 205.068356651 23.9793812072 256.174879398 23.9793812072 c 0
 256.408503847 23.9793812072 275.815574222 23.689637509 279.535527525 23.689637509 c 0
 336.426076301 23.689637509 330.991521819 32.263953094 356.102950421 32.263953094 c 0
 373.359431781 32.263953094 389.944376362 27.8588901057 398.234485031 27.8588901057 c 0
 405.541116848 27.8588901057 408.00571502 30.0478037251 409.742159155 38.62188636 c 0
 414.7085008 63.1443128418 415.416173794 64.2532234235 431.425112853 85.9470045058 c 0
 436.463472031 92.7745063533 438.612023141 99.8543361947 438.612023141 104.869685581 c 0
 438.612023141 108.101045724 438.548934929 117.292604553 422.229107727 117.292604553 c 0
 397.993266122 117.292604553 365.93469694 94.22146052 322.182400357 94.22146052 c 0
 301.234526811 94.22146052 288.470919288 99.525049932 265.961860107 99.525049932 c 0
 237.177827748 99.525049932 221.179659044 92.139433663 202.250850285 92.139433663 c 0
 168.759526709 92.139433663 151.758661195 116.424423192 151.758661195 140.000331801 c 0
  Spiro
    151.759 140 o
    154.059 162.385 o
    158.347 211.668 o
    160.648 264.179 o
    157.446 318.719 o
    151.479 359.884 o
    148.277 421.245 o
    148.984 473.003 o
    150.301 527.086 o
    151.007 559.644 o
    149.184 586.118 o
    142.071 611.385 o
    127.29 630.769 o
    116.178 637.501 o
    102.148 642.942 o
    88.0186 645.168 o
    77.5354 643.473 o
    65.4855 631.551 o
    59.7504 599.28 o
    61.1583 575.236 o
    64.2698 545.059 o
    67.3786 512.866 o
    69.825 468.494 o
    72.6075 407.981 o
    73.9713 376.936 o
    79.0566 291.33 o
    80.9353 257.708 o
    81.2023 247.525 o
    76.022 169.886 o
    66.3672 113.315 o
    61.1869 66.6335 o
    68.905 28.6931 o
    87.0679 14.6763 o
    107.967 12.6841 o
    151.955 15.6075 o
    203.575 21.056 o
    256.175 23.9794 o
    261.499 23.9044 o
    271.888 23.7646 o
    279.536 23.6896 o
    319.065 25.9088 o
    337.749 30.0448 o
    356.103 32.264 o
    372.837 31.1239 o
    387.475 28.999 o
    398.234 27.8589 o
    404.075 28.742 o
    407.613 32.0256 o
    409.742 38.6219 o
    414.009 56.9556 o
    419.8 69.4981 o
    431.425 85.947 o
    435.524 92.7661 o
    437.87 99.2581 o
    438.612 104.87 o
    437.993 109.521 o
    433.723 114.794 o
    422.229 117.293 o
    395.272 111.321 o
    362.144 100.193 o
    322.182 94.2215 o
    303.316 95.5941 o
    285.868 98.1524 o
    265.962 99.525 o
    240.88 97.6135 o
    220.766 94.0509 o
    202.251 92.1394 o
    174.298 99.2953 o
    157.395 117.135 o
    0 0 z
  EndSpiro
EndSplineSet
EndChar
StartChar: M
Encoding: 77 77 55
Width: 500
InSpiro: 1
Flags: HW
LayerCount: 2
Back
Fore
SplineSet
392.897540111 477.518547496 m 0
 392.897540111 543.731066668 419.61852471 540.031155019 421.48881822 609.817173503 c 1
 420.577288355 609.782420609 419.686809562 609.763416845 418.804509526 609.763416845 c 0
 404.955056146 609.763416845 395.388160637 616.397449778 379.738376379 616.397449778 c 0
 370.911664973 616.397449778 366.600659939 614.09124952 364.568488358 610.687902375 c 0
 345.576285375 560.452062769 352.36130323 497.201801473 302.514072883 435.528554761 c 0
 292.812264438 423.525038786 287.141142103 417.063036308 283.774465448 398.395598907 c 0
 280.521893587 380.360845998 270.439554945 364.660568254 252.853912936 364.660568254 c 0
 239.493981693 364.660568254 229.879165005 372.70237613 223.282527319 379.733700422 c 0
 155.637562867 451.83614176 184.108262178 515.49056425 168.545319908 564.221582713 c 0
 159.835014208 591.495478646 136.581283961 611.732354967 121.55391613 611.732354967 c 0
 116.119332188 611.732354967 110.370270412 609.945499117 105.167422619 596.380532605 c 0
 93.7706580381 566.666665112 107.647659513 548.866912926 81.6005313975 480.005841433 c 0
 72.6720559756 456.401535361 63.6388509031 433.638780391 60.2054857768 366.819244038 c 0
 54.7082694942 259.833406608 35.7835508983 235.626014339 35.7835508983 191.292344795 c 0
 35.7835508983 150.764285498 49.2910434563 121.838457458 49.2910434563 86.2314901956 c 0
 49.2910434563 68.6873722616 45.8028919306 58.7215948258 45.8028919306 51.3012104278 c 0
 45.8028919306 42.4580589273 48.7037728324 36.0774866047 57.076235691 36.0774866047 c 0
 64.6808533415 36.0774866047 76.5215735412 42.111401029 80.9366487763 59.3239299856 c 0
 82.465490846 65.2842448145 83.7666374572 65.2310482004 90.0001295767 156.712105943 c 0
 91.2917408759 175.667446799 86.630497804 193.209510741 86.630497804 212.327014891 c 0
 86.630497804 253.718333733 101.275782905 273.756098559 101.275782905 294.052853826 c 0
 101.275782905 311.981656976 90.927942096 322.738980465 90.927942096 340.455444875 c 0
 90.927942096 355.653792596 101.329703617 374.635353921 121.499906766 374.635353921 c 0
 134.593353707 374.635353921 145.844102081 366.359935071 156.681016943 353.034922328 c 0
 198.781199439 301.268762368 201.394404504 298.139545967 235.197021657 298.139545967 c 0
 265.796955625 298.139545967 270.853601931 307.844710849 275.962146373 317.649483246 c 0
 279.306553144 324.068365877 291.205147733 344.034161945 309.816320103 344.034161945 c 0
 317.762475944 344.034161945 336.685671236 340.078081201 336.685671236 302.393096909 c 0
 336.685671236 289.651664113 335.215683367 286.696180681 335.215683367 274.124182751 c 0
 335.215683367 242.831446422 343.530041898 177.623807684 352.554108759 121.559230523 c 0
 364.319566329 69.5718758945 394.128899534 53.350035404 405.166433713 53.350035404 c 0
 408.609155587 53.350035404 409.128193304 54.0394854148 409.128193304 54.4823844664 c 0
 409.128193304 54.6735820651 409.031464842 54.8188321451 409.031464842 54.8428322145 c 0
 409.031464842 56.7401498037 392.607911392 176.333446104 392.607911392 243.862427062 c 0
 392.607911392 298.815374769 400.340262632 329.06587184 400.340262632 372.486841381 c 0
 400.340262632 417.563254346 392.897540111 447.982452326 392.897540111 477.518547496 c 0
  Spiro
    392.898 477.519 o
    399.882 525.702 o
    413.258 559.252 o
    421.489 609.817 v
    420.585 609.788 o
    419.689 609.77 o
    418.805 609.763 o
    406.011 611.48 o
    393.732 614.68 o
    379.738 616.397 o
    372.34 615.675 o
    367.439 613.678 o
    364.568 610.688 o
    351.127 556.712 o
    336.515 497.126 o
    302.514 435.529 o
    294.099 424.725 o
    287.968 413.639 o
    283.774 398.396 o
    278.228 381.649 o
    267.951 369.39 o
    252.854 364.661 o
    240.726 367.002 o
    230.903 372.708 o
    223.283 379.734 o
    182.505 448.715 o
    174.619 510.814 o
    168.545 564.222 o
    155.846 588.64 o
    138.462 605.488 o
    121.554 611.732 o
    116.052 610.769 o
    110.515 606.383 o
    105.167 596.381 o
    99.7823 568.334 o
    96.7477 534.137 o
    81.6005 480.006 o
    72.8568 455.047 o
    65.2877 420.574 o
    60.2055 366.819 o
    51.4415 283.678 o
    40.8845 232.686 o
    35.7836 191.292 o
    39.2795 153.989 o
    45.7951 120.255 o
    49.291 86.2315 o
    48.3883 71.0401 o
    46.7057 59.7468 o
    45.8029 51.3012 o
    46.8628 43.4308 o
    50.4374 38.0554 o
    57.0762 36.0775 o
    65.6518 38.2747 o
    74.4863 45.6574 o
    80.9366 59.3239 o
    82.5788 66.8798 o
    85.2232 92.1709 o
    90.0001 156.712 o
    89.7021 175.289 o
    87.7892 193.642 o
    86.6305 212.327 o
    90.4209 247.371 o
    97.4854 273.064 o
    101.276 294.053 o
    98.5976 310.1 o
    93.6061 324.55 o
    90.9279 340.455 o
    94.3649 356.057 o
    104.623 369.161 o
    121.5 374.635 o
    134.02 372.002 o
    145.665 364.548 o
    156.681 353.035 o
    188.213 315.82 o
    209.194 300.861 o
    235.197 298.14 o
    258.214 301.013 o
    269.931 308.242 o
    275.962 317.649 o
    282.081 327.331 o
    293.525 338.63 o
    309.816 344.034 o
    320.302 341.619 o
    331.495 329.919 o
    336.686 302.393 o
    336.305 292.203 o
    335.596 284.201 o
    335.216 274.124 o
    337.701 233.17 o
    344.056 179.019 o
    352.554 121.559 o
    368.951 80.8002 o
    389.255 59.4682 o
    405.166 53.35 o
    407.722 53.5448 o
    408.867 53.9925 o
    409.128 54.4824 o
    409.103 54.6553 o
    409.056 54.7813 o
    409.031 54.8428 o
    404.781 89.6232 o
    396.859 165.349 o
    392.608 243.862 o
    394.609 291.941 o
    398.339 332.092 o
    400.34 372.487 o
    398.414 413.151 o
    394.824 447.21 o
    0 0 z
  EndSpiro
90.007531829 156.704870225 m 1
 105.000141164 141.712276695 l 1
 119.933402845 155.289433113 l 1
 90.007531829 156.704870225 l 1
  Spiro
    90.0075 156.705 v
    105 141.712 v
    119.933 155.289 v
    0 0 z
  EndSpiro
EndSplineSet
EndChar
StartChar: N
Encoding: 78 78 56
Width: 500
InSpiro: 1
Flags: HW
LayerCount: 2
Back
Fore
SplineSet
99.775514188 346.14726158 m 0
 99.775514188 408.801072299 104.772068301 440.016100611 127.633213872 440.016100611 c 0
 181.971306422 440.016100611 197.622704036 178.687155548 286.056112436 54.3679733288 c 0
 308.444895617 22.8939493569 326.233267638 15.6734351047 336.657118835 15.6734351047 c 0
 349.256661656 15.6734351047 360.706981256 26.7699135162 365.345264963 40.4338890934 c 0
 383.817560006 94.8516445099 408.859440604 391.227082528 408.859440604 533.794031423 c 0
 408.859440604 572.8959039 408.859440604 611.018656488 384.45714073 640.952522833 c 0
 376.465781029 650.755381353 369.097759617 653.763463102 367.468164497 654.010865021 c 0
 365.164243595 651.211261989 362.292684897 637.994777435 362.292684897 622.999799797 c 0
 362.292684897 581.570535527 372.529422381 578.977673394 372.529422381 496.238155896 c 0
 372.529422381 417.649619103 362.504235125 316.694810376 349.550625627 241.634403644 c 0
 331.486026225 136.95808321 316.773578041 127.521368064 302.297750573 127.521368064 c 0
 285.757571676 127.521368064 280.032453086 143.473190135 268.038803954 183.270544833 c 0
 242.651499928 267.510756641 225.624697026 379.736465408 174.479833804 495.229846846 c 0
 171.783932345 501.317628802 143.538429023 564.309917151 125.999317811 571.273005986 c 0
 121.988635242 572.865261073 94.698679392 585.785189182 94.698679392 622.534910248 c 0
 94.698679392 625.808460225 89.5465693474 636.775390625 60.4814549961 636.775390625 c 0
 48.9911263646 636.775390625 48.715627961 635.060291299 48.715627961 635.060291299 c 2
 48.388722814 634.603456233 46.5425125667 630.306745921 46.5425125667 619.636200876 c 0
 46.5425125667 616.368984442 54.4025487099 515.738392702 59.9093284945 293.188103133 c 0
 65.2806439974 76.1124496094 75.1224380924 13.7138671875 112.370539801 13.7138671875 c 0
 114.130451195 13.7138671875 115.323678029 13.8608376161 115.978575429 13.9752094449 c 0
 116.555298496 15.4871592582 118.103842777 20.7997182421 118.103842777 34.2558220615 c 0
 118.103842777 37.3801171448 99.775514188 271.280022707 99.775514188 346.14726158 c 0
  Spiro
    99.7755 346.147 o
    101.913 398.288 o
    110.263 429.624 o
    127.633 440.016 o
    173.163 367.79 o
    217.807 209.432 o
    286.056 54.368 o
    306.79 30.3648 o
    323.896 18.7044 o
    336.657 15.6734 o
    348.653 19.0499 o
    358.655 27.9526 o
    365.345 40.4339 o
    384.817 160.674 o
    401.696 354.817 o
    408.859 533.794 o
    407.958 572.265 o
    401.618 608.591 o
    384.457 640.953 o
    376.87 648.634 o
    370.816 652.696 o
    367.468 654.011 o
    365.105 648.068 o
    363.121 637.069 o
    362.293 623 o
    364.942 590.138 o
    369.88 556.626 o
    372.529 496.238 o
    369.456 412.07 o
    361.255 323.452 o
    349.551 241.634 o
    332.504 165.577 o
    316.953 133.829 o
    302.298 127.521 o
    288.741 133.119 o
    278.566 151.154 o
    268.039 183.271 o
    243.89 275.824 o
    215.792 381.852 o
    174.48 495.23 o
    164.626 516.072 o
    145.744 549.848 o
    125.999 571.273 o
    116.116 577.094 o
    101.91 593.288 o
    94.6987 622.535 o
    92.292 627.675 o
    82.2552 633.816 o
    60.4815 636.775 o
    52.3295 636.331 o
    49.2112 635.504 o
    48.7156 635.06 v
    48.0079 633.233 o
    47.0324 628.269 o
    46.5425 619.636 o
    48.7802 583.076 o
    54.0023 475.864 o
    59.9093 293.188 o
    67.6094 124.378 o
    83.4299 37.8793 o
    112.371 13.7139 o
    113.941 13.7561 o
    115.144 13.8567 o
    115.979 13.9752 o
    116.785 16.9104 o
    117.682 23.3619 o
    118.104 34.2558 o
    113.36 99.7543 o
    104.519 232.844 o
    0 0 z
  EndSpiro
EndSplineSet
EndChar
StartChar: O
Encoding: 79 79 57
Width: 500
InSpiro: 1
Flags: HW
HStem: 2.59961 92.7002<182.04 289.083>
VStem: 366.2 91.3994<166.561 420.865>
LayerCount: 2
Back
Fore
SplineSet
245 609 m 1
 270 609 l 1
 289 604 l 1
 291 604 l 1
 296 603 l 1
 325 590 l 1
 329 584 l 1
 335 578 l 1
 343 573 l 1
 363 542 l 1
 364 542 l 1
 380 513 l 1
 395 484 l 1
 408 454 l 1
 409 452 l 1
 430 381 l 1
 431 378 l 1
 439 305 l 1
 439 303 l 1
 435 230 l 1
 435 226 l 1
 416 154 l 1
 415 152 l 1
 398 116 l 1
 393 113 l 1
 378 97 l 1
 377 94 l 1
 349 69 l 1
 348 68 l 1
 320 50 l 1
 318 48 l 1
 271 27 l 1
 266 26 l 1
 263 26 l 1
 215 27 l 1
 212 27 l 1
 208 28 l 1
 157 47 l 1
 154 49 l 1
 115 82 l 1
 114 82 l 1
 112 85 l 1
 111 86 l 1
 91 115 l 1
 71 145 l 1
 71 146 l 1
 54 177 l 1
 54 178 l 1
 40 211 l 1
 39 216 l 1
 32 266 l 1
 32 270 l 1
 40 321 l 1
 41 324 l 1
 57 373 l 1
 58 374 l 1
 77 418 l 1
 89 449 l 1
 89 450 l 1
 104 479 l 1
 104 480 l 1
 122 508 l 1
 123 509 l 1
 141 532 l 1
 157 556 l 1
 173 582 l 1
 175 584 l 1
 177 587 l 1
 178 588 l 1
 204 608 l 1
 211 610 l 1
 216 610 l 1
 245 609 l 1
213 552 m 1
 184 505 l 1
 183 504 l 1
 163 479 l 1
 148 457 l 1
 149 456 l 1
 135 428 l 1
 124 400 l 1
 124 399 l 1
 104 357 l 1
 105 356 l 1
 90 312 l 1
 82 268 l 1
 88 226 l 1
 99 200 l 1
 114 172 l 1
 133 143 l 1
 148 120 l 1
 183 91 l 1
 219 77 l 1
 258 77 l 1
 294 93 l 1
 319 110 l 1
 341 129 l 1
 355 146 l 1
 369 173 l 1
 385 235 l 1
 389 300 l 1
 381 371 l 1
 361 436 l 1
 361 437 l 1
 349 462 l 1
 335 490 l 1
 335 491 l 1
 321 515 l 1
 303 543 l 1
 297 548 l 1
 277 557 l 1
 262 559 l 1
 244 559 l 1
 223 560 l 1
 213 552 l 1
EndSplineSet
EndChar
StartChar: P
Encoding: 80 80 58
Width: 500
InSpiro: 1
Flags: HW
LayerCount: 2
Back
Fore
SplineSet
147.055360822 392.056772624 m 0
 147.055360822 411.246661859 144.215132452 425.028890833 144.215132452 445.637733497 c 0
 144.215132452 472.369169998 150.387376726 489.149818513 163.659012615 524.486202162 c 0
 179.260196662 566.025122416 197.041309906 586.518934258 245.360228552 586.518934258 c 0
 250.962297789 586.518934258 279.816951093 586.229984745 297.998280242 580.471112433 c 0
 344.946195688 565.600524693 377.478704454 503.724849579 377.478704454 440.885535916 c 0
 377.478704454 404.365294229 366.398273177 366.531729939 338.894748374 337.693647317 c 0
 316.506209019 314.21874538 249.569544088 278.574242974 201.483952015 278.574242974 c 0
 190.470269498 278.574242974 142.280082956 281.703529178 142.280082956 336.471999081 c 0
 142.280082956 352.960917979 147.055360822 366.343166757 147.055360822 392.056772624 c 0
  Spiro
    147.055 392.057 o
    146.32 409.88 o
    144.95 426.869 o
    144.215 445.638 o
    146.303 470.085 o
    152.728 494.305 o
    163.659 524.486 o
    181.017 559.003 o
    206.201 579.681 o
    245.36 586.519 o
    257.439 586.231 o
    277.537 584.596 o
    297.998 580.471 o
    339.435 551.678 o
    367.325 501.641 o
    377.479 440.886 o
    373.595 404.346 o
    361.105 369.115 o
    338.895 337.694 o
    304.05 311.959 o
    253.452 288.666 o
    201.484 278.574 o
    181.266 281.407 o
    155.159 297.146 o
    142.28 336.472 o
    143.516 352.481 o
    145.819 369.901 o
    0 0 z
  EndSpiro
153.440735132 87.4659083551 m 0
 153.440735132 143.005281732 147.783242419 164.161745477 147.783242419 164.938534706 c 0
 147.783242419 172.507769827 150.240644525 199.024164369 184.67350021 199.024164369 c 0
 189.91495417 199.024164369 195.049971242 198.574721475 199.858879971 198.574721475 c 0
 228.106634658 198.574721475 320.950004457 235.385883347 352.350155393 260.553104517 c 0
 374.736797389 278.495998218 439.613835967 344.961585799 439.613835967 428.410586 c 0
 439.613835967 506.629265201 366.980434811 613.821529446 365.707823401 615.377918995 c 0
 335.571521533 652.234279809 302.266606036 657.473332001 270.299597399 657.473332001 c 0
 268.044363205 657.473332001 213.808489773 657.389518074 195.253513196 649.357686414 c 0
 176.526294263 641.251296772 169.934740538 620.297541916 148.446573284 620.297541916 c 0
 134.237163402 620.297541916 126.518239545 629.989439845 123.872322364 633.559408042 c 0
 118.680332504 640.564630583 116.011824025 643.673308565 115.392559544 644.188167863 c 0
 114.058483099 645.297325069 87.6245460149 652.083607555 76.0277485968 652.083607555 c 0
 68.3999383932 652.083607555 62.9847329906 652.083607555 62.9847329906 636.029855379 c 0
 62.9847329906 617.511599149 69.0425927447 613.918527612 69.0425927447 566.544691289 c 2
 69.0425927447 566.544691289 69.0362300555 563.808166394 69.0362293017 563.807842874 c 2
 69.0362293017 563.807842874 69.0289939298 560.705858743 69.0289528075 560.670393768 c 0
 69.0289528075 489.918157066 80.5932687262 455.62438213 80.5932687262 349.480183964 c 0
 80.5932687262 294.837740797 77.9339161173 268.784616832 77.9339161173 223.769522832 c 0
 77.9339161173 138.005537962 88.4544342485 122.862018343 90.883681453 55.500451999 c 0
 91.4523409284 39.7318661969 92.6336382129 31.9298451687 117.011565203 26.697810382 c 0
 122.84791349 25.4452027557 127.670690015 24.9140607966 131.412299958 24.9140607966 c 0
 144.611132741 24.9140607966 153.440735132 28.0399604741 153.440735132 87.4659083551 c 0
  Spiro
    153.441 87.4659 o
    151.976 132.029 o
    149.247 156.866 o
    147.783 164.939 o
    149.691 177.125 o
    159.822 191.882 o
    184.674 199.024 o
    189.866 198.908 o
    194.954 198.691 o
    199.859 198.575 o
    244.913 209.031 o
    305.195 233.327 o
    352.35 260.553 o
    384.885 293.455 o
    421.996 351.859 o
    439.614 428.411 o
    420.768 511.219 o
    385.401 583.652 o
    365.708 615.378 o
    334.714 642.653 o
    302.513 654.756 o
    270.3 657.473 o
    253.991 657.155 o
    222.423 655.028 o
    195.254 649.358 o
    179.584 638.234 o
    165.956 626.02 o
    148.447 620.298 o
    136.358 622.938 o
    128.256 628.54 o
    123.872 633.559 o
    119.507 639.309 o
    116.71 642.763 o
    115.393 644.188 o
    107.185 646.725 o
    91.0741 650.286 o
    76.0277 652.084 o
    69.2619 651.491 o
    64.6679 647.32 o
    62.9847 636.03 o
    64.5526 620.327 o
    67.4747 601.475 o
    69.0426 566.545 v
    69.0409 565.836 o
    69.0379 564.516 o
    69.0362 563.808 v
    69.0344 563.004 o
    69.0309 561.498 o
    69.029 560.67 o
    72.022 498.118 o
    77.6003 435.615 o
    80.5933 349.48 o
    79.905 302.647 o
    78.6222 264.187 o
    77.9339 223.77 o
    80.7465 157.048 o
    86.4524 109.959 o
    90.8837 55.5005 o
    92.4895 42.1986 o
    99.5408 32.9788 o
    117.012 26.6978 o
    122.502 25.6794 o
    127.317 25.0978 o
    131.412 24.9141 o
    142.98 27.9175 o
    150.668 44.865 o
    0 0 z
  EndSpiro
EndSplineSet
EndChar
StartChar: Q
Encoding: 81 81 59
Width: 500
InSpiro: 1
Flags: HW
LayerCount: 2
Back
Fore
SplineSet
364.437582058 507.272791262 m 1
 328.343082289 533.20005699 299.578486728 632.90457848 219.812437577 632.90457848 c 0
 127.866248056 632.90457848 35.0711810288 492.241712619 35.0711810288 317.984365637 c 0
 35.0711810288 276.964044608 40.2631277917 234.988847715 51.4420536557 194.078430959 c 0
 71.6585051901 120.094269361 100.11893391 84.8850741495 207.095143026 75.3339878914 c 0
 283.189447414 68.5401103464 326.894800861 48.8223675664 366.04049768 -11.4010611004 c 0
 366.427349582 -11.996210754 396.985131263 -58.5991215706 416.513652012 -61.3113379145 c 0
 417.004265327 -60.4121905049 417.846068098 -57.9407050427 417.846068098 -51.566698996 c 0
 417.846068098 -28.6635520922 401.298618288 18.0469260091 366.312038474 62.5303751172 c 0
 349.288353902 84.1750231591 339.523537059 101.192369772 339.523537059 119.87248261 c 0
 339.523537059 130.161386548 342.725667404 139.44083366 347.286614286 148.029681552 c 0
 365.499110951 182.326148417 378.116346887 278.766915248 378.116346887 377.842335515 c 0
 378.116346887 381.43627061 377.994923711 483.280284871 364.328765581 506.981552104 c 1
 364.437582058 507.272791262 l 1
  Spiro
    364.438 507.273 v
    328.664 551.311 o
    284.686 606.142 o
    219.812 632.905 o
    131.134 590.064 o
    62.4831 476.938 o
    35.0712 317.984 o
    36.8277 276.762 o
    42.2366 235.228 o
    51.4421 194.078 o
    76.9756 132.583 o
    123.751 93.8955 o
    207.095 75.334 o
    273.366 63.2291 o
    324.389 36.3057 o
    366.04 -11.4011 o
    374.942 -23.9813 o
    394.857 -47.3204 o
    416.514 -61.3113 o
    417.077 -59.804 o
    417.61 -56.7221 o
    417.846 -51.5667 o
    412.271 -21.7279 o
    395.199 18.3119 o
    366.312 62.5304 o
    351.813 82.8463 o
    342.679 101.532 o
    339.524 119.872 o
    340.521 129.827 o
    343.25 139.208 o
    347.287 148.03 o
    363.36 200.768 o
    374.178 281.94 o
    378.116 377.842 o
    377.58 407.604 o
    373.971 463.822 o
    364.329 506.982 v
    0 0 z
  EndSpiro
210.020782917 142.524767736 m 0
 115.69352807 142.524767736 79.9798888281 249.449958692 79.9798888281 314.977071312 c 0
 79.9798888281 346.2643331 86.5602691292 386.096622097 103.685416831 455.21455203 c 0
 114.139931188 497.409480992 121.964287751 502.335373623 166.938405635 530.649225899 c 0
 180.749677747 539.344233977 196.151356638 542.020979539 210.296735142 542.020979539 c 0
 236.812630666 542.020979539 264.089534031 532.156717744 272.912369559 526.00635635 c 0
 335.846876764 482.13497712 336.311646247 333.312988339 336.311646247 328.910855831 c 0
 336.311646247 206.203931812 273.484783395 162.17749257 268.812728435 159.112772157 c 0
 253.485439496 149.058554971 232.763867952 142.524767736 210.020782917 142.524767736 c 0
  Spiro
    210.021 142.525 o
    134.441 172.618 o
    92.7062 241.221 o
    79.9799 314.977 o
    82.3154 349.842 o
    89.9389 395.142 o
    103.685 455.215 o
    114.723 487.209 o
    132.899 507.904 o
    166.938 530.649 o
    181.16 537.457 o
    195.853 541.007 o
    210.297 542.021 o
    236.33 539.241 o
    258.669 532.885 o
    272.912 526.006 o
    317.292 456.474 o
    333.867 372.144 o
    336.312 328.911 o
    319.879 231.108 o
    288.359 177.194 o
    268.813 159.113 o
    251.831 150.351 o
    231.944 144.587 o
    0 0 z
  EndSpiro
EndSplineSet
EndChar
StartChar: R
Encoding: 82 82 60
Width: 500
InSpiro: 1
Flags: HW
LayerCount: 2
Back
Fore
SplineSet
366.831225175 531.340776789 m 0
 366.831225175 614.224038963 291.331239067 650.994145608 231.545492281 650.994145608 c 0
 187.459394094 650.994145608 145.022197994 635.700949478 104.844009092 635.700949478 c 0
 81.3856017204 635.700949478 57.3512581095 642.771814513 34.13164591 642.771814513 c 0
 15.9193841729 642.771814513 10.0529708295 638.681750624 10.0529708295 616.093284921 c 0
 10.0529708295 594.646387114 13.5750408185 554.300077953 35.0723937184 507.00462357 c 0
 69.5356512293 431.183408229 72.0917164346 84.3378467038 104.716150566 32.4642121143 c 0
 109.218076348 25.3060418916 118.173582809 20.079709471 123.77396172 20.079709471 c 0
 127.487808833 20.079709471 139.232291396 21.8747732276 142.017202699 58.750548367 c 0
 147.026579545 125.081082461 159.318952871 133.124568621 159.318952871 167.146145675 c 0
 159.318952871 217.35731294 126.060058551 241.923521711 126.060058551 271.622103624 c 0
 126.060058551 296.066250579 146.545746942 317.679969798 172.954490724 317.679969798 c 0
 212.237647032 317.679969798 232.297267863 274.747370309 241.943711799 254.101570595 c 0
 250.884263185 234.966557272 259.029548656 217.781640229 290.382766149 183.60889623 c 0
 367.691886782 99.3475348936 364.891612284 54.5088508737 397.996216208 54.5088508737 c 0
 407.501791865 54.5088508737 418.211825914 62.3109647375 418.211825914 82.2118761765 c 0
 418.211825914 118.54890025 390.774034165 134.352798404 354.383152235 211.465509713 c 0
 344.011716209 233.442705914 339.028426723 243.979845464 321.864880273 258.939338495 c 0
 304.307305592 274.242260696 285.744526416 288.355320151 285.744526416 312.955267793 c 0
 285.744526416 350.276537929 366.831225175 438.920116174 366.831225175 531.340776789 c 0
  Spiro
    366.831 531.341 o
    345.083 599.146 o
    293.131 638.417 o
    231.545 650.994 o
    188.075 647.036 o
    145.711 639.659 o
    104.844 635.701 o
    81.2688 637.531 o
    57.5477 640.942 o
    34.1316 642.772 o
    19.8054 640.879 o
    12.2438 633.037 o
    10.053 616.093 o
    11.7583 588.822 o
    19.0426 551.5 o
    35.0724 507.005 o
    61.1752 361.998 o
    79.8386 161.513 o
    104.716 32.4642 o
    110.407 26.0775 o
    117.351 21.6967 o
    123.774 20.0797 o
    129.528 21.906 o
    136.882 32.3527 o
    142.017 58.7505 o
    148.722 108.736 o
    155.953 138.689 o
    159.319 167.146 o
    150.711 209.912 o
    134.668 242.524 o
    126.06 271.622 o
    132.337 294.407 o
    149.08 311.183 o
    172.954 317.68 o
    206.129 305.806 o
    228.517 279.733 o
    241.944 254.102 o
    251.497 234.935 o
    265.895 212.795 o
    290.383 183.609 o
    345.249 112.746 o
    372.585 69.2252 o
    397.996 54.5089 o
    407.453 57.263 o
    415.089 66.1971 o
    418.212 82.2119 o
    409.767 114.704 o
    387.077 151.803 o
    354.383 211.466 o
    345.166 230.201 o
    335.608 244.88 o
    321.865 258.939 o
    304.713 274.262 o
    291.197 291.437 o
    285.745 312.955 o
    306.731 365.557 o
    345.845 442.025 o
    0 0 z
  EndSpiro
112.396529271 460.722154056 m 0
 112.396529271 538.882771284 197.336491628 592.726268264 259.263004753 592.726268264 c 0
 297 592.726268264 297 558.62513053 297 536.511088645 c 0
 297 470.342010595 280.22535134 385 193.683947723 385 c 0
 186.057179996 385 112.396529271 386.910525852 112.396529271 460.722154056 c 0
  Spiro
    112.397 460.722 o
    136.667 529.625 o
    193.729 575.905 o
    259.263 592.726 o
    285.802 583.084 o
    295.607 560.889 o
    297 536.511 o
    289.463 467.889 o
    258.887 409.531 o
    193.684 385 o
    169.256 388.22 o
    131.743 408.319 o
    0 0 z
  EndSpiro
EndSplineSet
EndChar
StartChar: S
Encoding: 83 83 61
Width: 500
Flags: HW
LayerCount: 2
Back
Fore
SplineSet
381.011363829 149.65756335 m 0
 381.011363829 58.3167247841 108.872326343 91.12841361 91.8979898659 70.721958102 c 0
 91.8857253963 70.721958102 91.8162397494 70.5848183691 91.8162397494 69.9855490178 c 0
 91.8162397494 64.5866715903 93.2445697766 59.6703280412 110.451900826 53.6301446829 c 0
 153.547972904 38.5023961307 278.280048351 37.4056105565 282.488757666 37.4056105565 c 0
 343.711983024 37.4056105565 361.526160854 46.8729582253 383.071872259 70.2921267591 c 0
 402.869132263 91.8108113727 412.531592498 112.003457563 412.531592498 132.003000045 c 0
 412.531592498 167.820133495 382.039087881 224.33165962 218.988436713 310.811630887 c 0
 160.844308087 341.650529945 117.857524853 367.679398786 117.857524853 415.31968526 c 0
 117.857524853 464.822271664 167.914772914 536.344632133 241.937017806 536.344632133 c 0
 264.045608405 536.344632133 270.2439727 530.65783975 288.151934344 530.65783975 c 0
 326.003841344 530.65783975 355.254882812 557.401268897 355.254882812 590.745823371 c 0
 355.254882812 600.230512079 355.13512164 621.973514417 315.91564465 621.973514417 c 0
 233.339991841 621.973514417 127.469505876 541.395071082 105.737225734 497.930510798 c 0
 101.72156252 489.899184371 101.007326374 480.359963761 90.7115938823 466.487249672 c 0
 79.4540280213 451.318538493 72.226004345 428.036287701 72.226004345 404.071954587 c 0
 72.226004345 379.501041065 79.6631388235 354.967815571 95.1690365545 337.246684164 c 0
 116.920624282 312.387578867 176.81743168 276.80125459 248.399854171 250.380510421 c 0
 320.045139575 223.936563837 381.011363829 189.676155546 381.011363829 149.65756335 c 0
EndSplineSet
EndChar
StartChar: T
Encoding: 84 84 94
Width: 500
InSpiro: 1
Flags: HW
LayerCount: 2
Back
Fore
SplineSet
69.4178290699 639.864062438 m 0
 41.5303396547 639.864062438 18.3650013669 639.864062438 18.3650013669 629.050635495 c 0
 18.3650013669 613.531813897 44.3519083086 583.729398694 90.8623194031 583.729398694 c 0
 98.0018777968 583.729398694 101.296017605 584.392109303 107.207169382 584.392109303 c 0
 119.121882 584.392109303 126.948697415 580.777470672 143.709917641 573.439207078 c 0
 158.122237393 567.129320332 177.298351886 558.733787013 177.298351886 525.659179411 c 0
 177.298351886 508.019684252 172.970079115 498.297057313 172.970079115 477.433003066 c 0
 172.970079115 454.697835026 176.83520711 439.860084479 176.83520711 401.073681015 c 0
 176.83520711 396.519687903 174.189138501 310.862165376 174.188878878 309.95054992 c 2
 176.724468398 204.734144441 l 1
 176.72004655 204.55008061 l 2
 176.72004655 195.862246216 175.417805338 137.830435812 175.405071044 137.156491947 c 0
 175.409974174 136.175701183 177.578663862 64.8848928459 180.402118372 39.2035688613 c 0
 185.214742908 22.4844003885 214.240029023 16.1550303438 231.399051815 16.1550303438 c 0
 247.592046882 16.1550303438 253.338551177 20.1108601662 253.338551177 40.0915505006 c 0
 253.338551177 72.67363978 233.568662878 125.081441474 233.568662878 167.257432089 c 0
 233.568662878 197.582238951 240.658278697 215.910462512 240.658278697 236.93661507 c 0
 240.658278697 262.449457312 232.640101621 259.780260785 232.640101621 302.780035518 c 0
 232.640101621 392.103345828 252.651657927 415.702202621 252.651657927 439.699566685 c 0
 252.651657927 448.847962214 248.445773991 458.680726845 248.445773991 490.17421111 c 0
 248.445773991 568.386826504 258.177320954 584.212438298 316.44699199 584.212438298 c 0
 330.05933431 584.212438298 368.897665675 582.276006308 369.427827795 582.276006308 c 0
 382.929684862 582.276006308 436.429275276 598.874011013 436.984535821 599.294772761 c 0
 437.030905622 599.959751902 437.058860887 600.360652218 437.058860887 600.873088852 c 0
 437.058860887 600.946454884 437.056837672 601.00712351 437.056837672 601.056177014 c 0
 433.113206014 612.01082315 432.125660581 619.360222716 431.16227815 627.719858189 c 0
 430.505189282 633.421668023 412.268472965 637.762471252 391.337727251 637.762471252 c 0
 376.183089063 637.762471252 360.384290725 636.118943614 344.073894091 636.118943614 c 0
 342.896816722 636.118943614 330.373696041 638.670962092 226.393825593 638.670962092 c 0
 209.239586085 638.670962092 165.772563282 642.030074316 165.159297346 642.030074316 c 0
 147.588851998 642.030074316 132.571338537 638.566873459 109.566263473 638.566873459 c 0
 95.3469782723 638.566873459 90.1689415785 639.864062438 69.4178290699 639.864062438 c 0
  Spiro
    69.4178 639.864 o
    43.8102 639.465 o
    25.3903 636.655 o
    18.365 629.051 o
    26.8082 610.424 o
    51.4277 592.016 o
    90.8623 583.729 o
    96.9541 583.901 o
    101.934 584.221 o
    107.207 584.392 o
    118.231 583.186 o
    129.457 579.535 o
    143.71 573.439 o
    158.809 565.608 o
    171.803 551.325 o
    177.298 525.659 o
    176.178 509.967 o
    174.09 495.274 o
    172.97 477.433 o
    173.97 456.172 o
    175.835 433.03 o
    176.835 401.074 o
    176.15 375.668 o
    174.874 332.929 o
    174.189 309.951 [
    176.724 204.734 v
    176.72 204.55 ]
    176.383 183.396 o
    175.751 152.971 o
    175.405 137.156 o
    176.074 117.067 o
    177.855 75.7515 o
    180.402 39.2036 o
    191.932 25.8075 o
    211.642 18.4105 o
    231.399 16.155 o
    244.274 17.9167 o
    251.253 25.0161 o
    253.339 40.0916 o
    248.222 78.1265 o
    238.685 122.83 o
    233.569 167.257 o
    235.404 194.104 o
    238.823 216.286 o
    240.658 236.937 o
    238.583 255.776 o
    234.715 272.289 o
    232.64 302.78 o
    237.819 372.591 o
    247.472 413.417 o
    252.652 439.7 o
    251.563 449.841 o
    249.534 465.143 o
    248.446 490.174 o
    253.116 549.274 o
    272.95 577.228 o
    316.447 584.212 o
    336.092 583.711 o
    358.5 582.777 o
    369.428 582.276 o
    392.79 586.587 o
    422.249 594.703 o
    436.985 599.295 o
    437.024 599.885 o
    437.05 600.384 o
    437.059 600.873 o
    437.058 600.942 o
    437.057 601.003 o
    437.057 601.056 o
    433.992 610.971 o
    432.241 619.534 o
    431.162 627.72 o
    425.207 632.853 o
    410.802 636.428 o
    391.338 637.762 o
    375.989 637.337 o
    360.193 636.544 o
    344.074 636.119 o
    336.165 636.779 o
    302.803 638.01 o
    226.394 638.671 o
    203.057 639.54 o
    177.474 641.161 o
    165.159 642.03 o
    148.066 641.134 o
    130.28 639.463 o
    109.566 638.567 o
    97.46 638.903 o
    85.8765 639.528 o
    0 0 z
  EndSpiro
437.111414946 600.897082098 m 1
 437.111414946 600.897082098 437.111379785 600.897264803 437.111414946 600.897082098 c 1
  Spiro
    437.111 600.897 v
    437.111 600.897 o
    437.111 600.897 o
    0 0 z
  EndSpiro
EndSplineSet
EndChar
StartChar: U
Encoding: 85 85 63
Width: 500
InSpiro: 1
Flags: HW
LayerCount: 2
Back
Fore
SplineSet
56.1283268209 603.898960268 m 0
 51.2701881487 603.898960268 24.2805257755 586.130882483 24.2805257755 543.894611352 c 0
 24.2805257755 520.507457141 31.0312970769 492.237198698 31.0312970769 452.751486141 c 0
 31.0312970769 416.519816599 24.8973961008 388.535781208 24.8973961008 357.250376664 c 0
 24.8973961008 309.437267277 39.0193751438 265.24103662 54.2672033567 220.749865695 c 0
 61.7578237439 198.893213893 73.3049144599 165.203195933 85.5077428618 123.620462709 c 0
 106.226019985 53.0202246229 133.573016558 26.7300945 205.209630064 26.7300945 c 0
 252.232192224 26.7300945 308.728060222 41.599654039 338.169378723 99.350798112 c 0
 348.161929948 118.951865416 373.629201587 194.64565465 392.335743796 255.757165601 c 0
 410.903268597 321.185559335 405.807559842 347.573155975 414.741313432 407.05322049 c 0
 423.06401158 462.464937167 424.93008055 485.46784664 424.93008055 505.897630134 c 0
 424.93008055 514.456633901 424.231552944 533.290089872 424.231552944 534.154284401 c 0
 424.231552944 551.258556932 429.05757893 556.400654648 429.05757893 569.696072997 c 0
 429.05757893 572.019326324 428.984998135 574.526074917 428.984998135 577.170346554 c 0
 428.984998135 589.15744888 431.07086754 594.411777339 431.07086754 599.923954426 c 0
 431.07086754 613.382989149 403.637581132 622.520691595 393.308102596 625.483986943 c 1
 393.308102596 625.483986943 362.897490942 627.310468452 344.752620493 628.321121167 c 1
 344.16800238 623.458879101 342.839482075 620.462270028 342.839482075 618.167481401 c 0
 342.839482075 618.125216567 342.841210875 618.090259729 342.841210875 618.061816831 c 0
 343.139764299 617.677853578 345.682030254 614.56887537 355.901364074 606.14772054 c 0
 377.741306705 588.150704869 379.00919049 564.815260936 379.00919049 538.428185189 c 0
 379.00919049 386.319622026 370.262399374 218.75346619 273.48208815 132.215799786 c 0
 237.789535589 100.300731863 214.530719275 87.746928015 195.334686964 87.746928015 c 0
 170.359010523 87.746928015 158.279955216 108.690802765 151.019209334 127.092125538 c 0
 129.761556026 180.966609827 130.779617765 163.278497603 115.705296187 195.024445484 c 0
 106.461795374 214.490906611 103.839966901 234.245110133 103.839966901 252.356056613 c 0
 103.839966901 265.956748408 105.2217327 279.996701244 105.2217327 293.646093426 c 0
 105.2217327 338.413743132 94.935210048 341.660093703 94.935210048 394.055405571 c 0
 94.935210048 427.668637781 99.140853253 463.622620402 99.140853253 497.948124263 c 0
 99.140853253 536.213536096 94.3382016485 550.544280809 75.5639255061 584.084535601 c 0
 65.1628161159 602.666123324 58.0329941999 603.898960268 56.1283268209 603.898960268 c 0
  Spiro
    56.1283 603.899 o
    45.7265 597.741 o
    31.4452 578.196 o
    24.2805 543.895 o
    26.0277 518.673 o
    29.2841 488.701 o
    31.0313 452.751 o
    29.4438 418.873 o
    26.4849 387.833 o
    24.8974 357.25 o
    29.1154 310.544 o
    39.8891 265.243 o
    54.2672 220.75 o
    62.9742 195.124 o
    73.6608 162.39 o
    85.5077 123.62 o
    109.801 67.1659 o
    146.988 36.1414 o
    205.21 26.7301 o
    253.988 32.7111 o
    301.106 54.8883 o
    338.169 99.3508 o
    352.479 134.983 o
    372.22 192.465 o
    392.336 255.757 o
    404.405 310.796 o
    409.092 355.978 o
    414.741 407.053 o
    421.077 452.73 o
    424.14 483.531 o
    424.93 505.898 o
    424.749 516.823 o
    424.412 528.356 o
    424.232 534.154 o
    425.481 548.005 o
    427.809 558.384 o
    429.058 569.696 o
    429.039 572.076 o
    429.004 574.576 o
    428.985 577.17 o
    429.525 587.164 o
    430.531 594.245 o
    431.071 599.924 o
    423.589 611.864 o
    407.673 620.538 o
    393.308 625.484 v
    384.767 625.994 o
    365.384 627.138 o
    344.753 628.321 v
    343.998 624.041 o
    343.205 620.736 o
    342.839 618.167 o
    342.84 618.128 o
    342.841 618.092 o
    342.841 618.062 o
    344.087 616.676 o
    348.046 612.889 o
    355.901 606.148 o
    371.589 586.477 o
    377.875 563.689 o
    379.009 538.428 o
    373.172 384.892 o
    343.808 242.06 o
    273.482 132.216 o
    241.652 106.522 o
    216.172 92.1745 o
    195.335 87.7469 o
    174.376 93.847 o
    160.174 108.731 o
    151.019 127.092 o
    135.776 161.574 o
    126.828 175.287 o
    115.705 195.024 o
    108.526 214.496 o
    104.86 233.788 o
    103.84 252.356 o
    104.198 266.059 o
    104.864 279.911 o
    105.222 293.646 o
    102.559 327.904 o
    97.5975 354.715 o
    94.9352 394.055 o
    96.0237 428.267 o
    98.0524 463.262 o
    99.1409 497.948 o
    97.2046 529.806 o
    90.0101 555.375 o
    75.5639 584.085 o
    66.3336 597.471 o
    59.6972 602.894 o
    0 0 z
  EndSpiro
EndSplineSet
EndChar
StartChar: V
Encoding: 86 86 64
Width: 500
InSpiro: 1
Flags: HW
LayerCount: 2
Back
Fore
SplineSet
451.188845511 540.65438797 m 0
 450.320334184 540.65438797 384.163085938 533.358259352 384.163085938 485.421546284 c 0
 384.163085938 431.130189745 333.746714469 268.318314522 291.093684057 173.452890681 c 2
 247.557751433 76.6218696598 l 1
 213.907781064 195.924979327 l 2
 201.395044228 240.288686608 190.8984375 302.813428007 190.8984375 337.549293366 c 0
 190.8984375 341.983795059 190.536176046 364.158828304 183.538187554 377.368161999 c 1
 142.572525627 386.719356819 144.751639656 501.414922725 107.532658418 574.558457711 c 0
 99.3133165315 590.711283523 89.2181071512 603.307584326 83.2682619759 605.663374846 c 0
 82.9331745679 605.31686755 72.5482185533 593.069094085 72.5482185533 558.667742703 c 0
 72.5482185533 538.581412985 76.5773475251 516.444904601 84.2850052584 494.28523568 c 0
 112.369960926 413.540430866 163.816380538 136.645659266 216.74491849 47.7662123659 c 0
 219.238592224 43.5787484616 230.683287428 25.1469218652 238.929795972 25.1469218652 c 0
 265.402058669 25.1469218652 328.947728848 106.150875427 358.732831791 230.504889277 c 0
 390.185543822 361.821238764 452.261294089 503.26217734 452.261294089 537.008683769 c 0
 452.261294089 538.641396286 452.124059991 539.853777111 451.982343886 540.650069104 c 0
 451.764716502 540.650069104 451.503040816 540.65438797 451.188845511 540.65438797 c 0
  Spiro
    451.189 540.654 o
    433.456 536.996 o
    401.318 521.022 o
    384.163 485.422 o
    369.54 401.6 o
    334.138 284.311 o
    291.094 173.453 [
    247.558 76.6219 v
    213.908 195.925 ]
    202.391 244.589 o
    194.077 295.3 o
    190.898 337.549 o
    190.546 346.895 o
    188.553 362.176 o
    183.538 377.368 v
    153.918 416.33 o
    134.656 493.089 o
    107.533 574.558 o
    98.9198 589.265 o
    90.3688 600.15 o
    83.2683 605.663 o
    80.3448 600.979 o
    75.2484 586.044 o
    72.5482 558.668 o
    73.8756 537.994 o
    77.8217 516.34 o
    84.285 494.285 o
    119.306 362.554 o
    165.17 184.918 o
    216.745 47.7662 o
    221.765 40.0509 o
    230.076 30.072 o
    238.93 25.1469 o
    275.093 50.7039 o
    320.362 122.087 o
    358.733 230.505 o
    396.918 360.707 o
    435.034 471.82 o
    452.261 537.009 o
    452.221 538.5 o
    452.118 539.716 o
    451.982 540.65 o
    451.75 540.651 o
    451.486 540.653 o
    0 0 z
  EndSpiro
452.96879269 540.568630652 m 1
 453.021764067 540.596702091 452.997744717 540.605994235 452.96879269 540.568630652 c 1
  Spiro
    452.969 540.569 v
    452.999 540.589 o
    452.993 540.591 o
    0 0 z
  EndSpiro
EndSplineSet
EndChar
StartChar: W
Encoding: 87 87 65
Width: 500
InSpiro: 1
Flags: HW
LayerCount: 2
Back
Fore
SplineSet
382.101659904 508.035583592 m 0
 382.101659904 485.473254308 389.037204415 495.88546897 389.037204415 461.076022122 c 0
 389.037204415 428.793662172 382.648479934 375.261224019 372.301565298 318.146057953 c 2
 335.868371198 117.03734038 l 1
 278.736755684 286.887619718 l 2
 258.420169684 347.289046022 236.109415612 407.187542469 230.989460844 417.055718802 c 1
 215.706176094 409.016067178 192.333007812 368.437301249 192.333007812 332.415060879 c 0
 192.333007812 298.286469331 178.088824629 238.977310415 160.897978812 199.260778354 c 2
 103.770286032 67.275917778 l 1
 95.9190047227 355.066297908 88.5740083077 499.610477404 54.6126871101 556.984159006 c 1
 49.8491986015 549.765089324 43.2170803821 526.29127774 43.2170803821 470.342471283 c 0
 43.2170803821 386.937387054 54.1534666784 306.176660746 71.5830673973 177.466209674 c 0
 85.2087504572 75.2759348457 120.715150467 35.8330078125 132.494623937 35.8330078125 c 0
 155.19374765 35.8330078125 203.071036678 134.362568778 204.607871001 188.157517375 c 0
 205.073497949 204.456201855 209.738674091 221.009114432 226.769966858 221.009114432 c 0
 259.436094201 221.009114432 279.618102857 142.834451607 325.243708295 87.0150688182 c 0
 328.212201762 83.3833477357 342.431676899 66.468357966 351.842319571 63.851765352 c 1
 394.836353404 95.2506976809 433.375806552 466.005526873 433.375806552 556.217840459 c 0
 433.375806552 562.463281018 433.085138577 583.815940557 429.181942871 588.841447564 c 1
 429.181942871 588.841447564 429.112355 588.927169332 429.171164805 588.975270041 c 0
 429.171164805 589.045279715 428.8103301 589.166992188 426.301072082 589.166992188 c 0
 392.227964087 589.166992188 382.101659904 530.448883097 382.101659904 508.035583592 c 0
  Spiro
    382.102 508.036 o
    383.897 493.578 o
    387.242 483.694 o
    389.037 461.076 o
    387.002 422.409 o
    381.232 373.36 o
    372.302 318.146 [
    335.868 117.037 v
    278.737 286.888 ]
    258.486 345.232 o
    241.115 392.383 o
    230.989 417.056 v
    214.192 399.569 o
    198.947 368.547 o
    192.333 332.415 o
    188.012 291.597 o
    176.674 243.802 o
    160.898 199.261 [
    103.77 67.2759 v
    95.0937 309.196 o
    80.6872 468.598 o
    54.6127 556.984 v
    49.5462 543.766 o
    45.1095 516.031 o
    43.2171 470.342 o
    46.6912 386.032 o
    56.495 291.965 o
    71.5831 177.466 o
    90.79 95.3916 o
    114.518 49.8149 o
    132.495 35.833 o
    160.906 63.3204 o
    190.298 124.825 o
    204.608 188.158 o
    206.772 203.904 o
    213.568 216.123 o
    226.77 221.009 o
    256.651 198.715 o
    286.727 146.503 o
    325.244 87.0151 o
    331.359 79.9866 o
    341.434 70.2039 o
    351.842 63.8518 v
    392.053 185.221 o
    421.814 395.659 o
    433.376 556.218 o
    433.156 566.322 o
    432.002 579.55 o
    429.182 588.841 v
    429.166 588.865 o
    429.148 588.919 o
    429.171 588.975 o
    428.985 589.056 o
    428.159 589.133 o
    426.301 589.167 o
    399.718 573.142 o
    385.981 538.995 o
    0 0 z
  EndSpiro
EndSplineSet
EndChar
StartChar: X
Encoding: 88 88 66
Width: 500
Flags: HW
LayerCount: 2
Back
Fore
SplineSet
64.041015625 571.201712659 m 0
 64.041015625 532.697826376 97.0277662523 460.200287029 113.609479315 447.932928864 c 1
 112.548237465 447.653320312 l 1
 132.398166956 447.653320312 145.673828125 423.129607278 145.673828125 386.353205463 c 0
 145.673828125 359.193516907 156.501273512 341.898970974 160.741328286 340.485619382 c 0
 165.598669078 338.866505786 179.32728747 332.549784077 179.32728747 312.872126563 c 0
 179.32728747 300.209383793 174.336303373 279.968347983 145.321289797 230.999246079 c 0
 99.4017644661 153.500129654 76.8679273658 83.0544105318 76.8679273658 54.1951162321 c 0
 76.8679273658 52.4553411108 76.9648161685 50.9352246596 77.104865586 49.6623940954 c 1
 98.0678892102 62.5294076435 135.672494899 117.669807924 146.881755829 141.365207634 c 0
 145.575230101 144.151194673 145.348832022 146.721827311 145.348831768 148.559760791 c 0
 145.348831768 163.272379613 170.747493 192.806149943 183.071248114 207.136312852 c 0
 204.34259502 231.870808437 218.273849601 245.048154624 234.496325726 245.048154624 c 0
 277.172321645 245.048154624 287.232562992 137.156891077 371.886281154 44.5010367024 c 0
 380.535566967 35.0341522692 407.701496091 7.08356956818 426.946139054 7.08356956818 c 0
 443.048660002 7.08356956818 443.373722479 32.5334543316 443.373722479 34.5878115768 c 0
 443.373722479 54.7394787425 433.017375639 71.3816670328 423.016977318 74.1449064615 c 0
 381.562233586 85.599388444 341.116215732 159.142819019 319.798339083 204.083678134 c 0
 314.224426656 215.834211136 289.116362765 267.938177551 286.600330731 272.970241619 c 0
 280.689176606 284.792549867 277.931696212 297.750270802 277.931696212 311.38718168 c 0
 277.931696212 345.826349607 294.352745922 384.276776155 321.213924511 431.514985696 c 0
 355.682124912 492.130943693 380.979492188 556.541739577 380.979492188 593.030115598 c 0
 380.979492188 598.077183999 380.391974419 601.748550572 379.837190806 604.042202053 c 1
 323.727964722 570.978906621 270.53630597 376.836914062 225.455715548 376.836914062 c 0
 218.398585105 376.836914062 204.32365896 376.836914062 156.775024397 452.784221556 c 0
 145.821676751 470.27951389 95.265625 552.894416912 95.265625 587.266576155 c 0
 95.265625 593.121592191 87.5527695329 601.326171875 80.4385012736 601.326171875 c 0
 75.0471313102 601.326171875 64.041015625 594.236054896 64.041015625 571.201712659 c 0
EndSplineSet
EndChar
StartChar: Y
Encoding: 89 89 67
Width: 500
InSpiro: 1
Flags: HW
LayerCount: 2
Back
Fore
SplineSet
431.358951842 618.076989121 m 0
 431.358951842 631.97389165 423.140584471 632.410574171 422.107834647 632.410574171 c 0
 417.752249381 632.410574171 393.636703335 627.314403995 345.180543356 525.343598416 c 0
 287.674998984 404.329331348 272.225652827 424.93185338 251.213658226 374.113310867 c 0
 246.877994946 363.627295955 237.385831863 340.670032621 211.480601088 340.670032621 c 0
 156.837759694 340.670032621 167.435770218 472.098676885 141.967916757 535.684484297 c 0
 137.886240921 545.875239242 132.800985046 555.912822104 128.794988708 566.412565693 c 0
 116.923939281 597.5266668 120.329029149 618.276893772 110.788682951 629.038846423 c 0
 108.166432972 631.996865924 97.1712786628 637.632066765 85.2648862825 637.632066765 c 0
 67.0547178024 637.632066765 62.9041678079 625.163488316 62.9041678079 610.199496628 c 0
 62.9041678079 603.276736513 63.9703712788 594.450356701 66.6239618397 583.663273937 c 0
 98.9788724532 452.137670943 127.76972226 390.381675866 139.7189756 350.259728697 c 0
 149.092788559 318.7853246 153.406275542 303.80531782 171.496442658 279.325906804 c 0
 204.154026113 235.134031567 206.480901302 231.985330188 209.627199993 187.778959 c 0
 212.974944372 140.742219919 219.027978662 136.908390832 229.007291357 63.9795390152 c 0
 229.899263032 57.4610069138 236.416343568 10.2386390688 255.518123564 10.2386390688 c 0
 270.685979871 10.2386390688 274.371199433 28.9896540591 274.371199821 51.7699646797 c 0
 274.371199821 91.0674392991 264.678771053 140.15457208 264.678771053 193.621625071 c 0
 264.678771053 288.78908786 297.959379894 336.873810442 335.34525195 388.643083578 c 0
 362.447094444 426.171770469 381.536034945 452.614382473 400.596227012 520.622841546 c 0
 424.137302045 604.619489231 431.358951842 594.766053593 431.358951842 618.076989121 c 0
  Spiro
    431.359 618.077 o
    429.194 627.963 o
    424.961 631.784 o
    422.108 632.411 o
    411.014 627.326 o
    385.66 598.374 o
    345.181 525.344 o
    299.965 443.695 o
    272.113 408.988 o
    251.214 374.113 o
    244.751 360.797 o
    232.316 346.999 o
    211.481 340.67 o
    174.855 377.034 o
    159.153 456.951 o
    141.968 535.684 o
    137.633 545.837 o
    133.079 556.054 o
    128.795 566.413 o
    120.976 594.062 o
    117.055 614.951 o
    110.789 629.039 o
    105.659 632.578 o
    96.5807 636.064 o
    85.2649 637.632 o
    71.3842 633.852 o
    64.6508 623.95 o
    62.9042 610.199 o
    63.2781 602.648 o
    64.4819 593.789 o
    66.624 583.663 o
    97.2706 473.702 o
    122.669 399.316 o
    139.719 350.26 o
    148.096 323.344 o
    157.312 301.581 o
    171.496 279.326 o
    195.182 245.8 o
    205.606 221.314 o
    209.627 187.779 o
    213.917 151.015 o
    220.299 117.997 o
    229.007 63.9795 o
    232.027 47.1735 o
    240.365 22.7012 o
    255.518 10.2386 o
    267.139 15.9329 o
    272.857 30.8965 o
    274.371 51.77 o
    271.863 94.0851 o
    267.187 141.865 o
    264.679 193.622 o
    274.673 274.906 o
    300.44 336.277 o
    335.345 388.643 o
    360.049 424.39 o
    381.251 464.566 o
    400.596 520.623 o
    419.021 578.005 o
    428.621 601.132 o
    0 0 z
  EndSpiro
EndSplineSet
EndChar
StartChar: Z
Encoding: 90 90 68
Width: 500
Flags: HW
LayerCount: 2
Back
Fore
SplineSet
272.463177692 94.235400087 m 0
 245.441062953 94.235400087 160.943057395 94.235400087 160.943057395 143.080308696 c 0
 160.943057395 163.333919738 193.709976814 216.423634287 201.072341903 224.84547877 c 0
 223.768904951 250.808185315 245.717330201 318.988638087 306.094618449 413.758402359 c 0
 349.212088424 481.436706307 370.578037755 532.485321528 370.578037755 576.743489121 c 0
 370.578037755 582.83314906 369.657851744 585.19184442 369.634484072 585.23162932 c 0
 369.496359998 585.602561988 366.960123523 589.793136442 323.073624709 589.793136442 c 0
 320.682317894 589.793136442 147.902920921 589.154506856 84.4954860716 573.546457376 c 0
 38.7354708259 562.282406341 11.9947130559 533.868593643 10.0679278679 506.158205012 c 1
 13.4987466253 507.75540349 17.9170854156 509.934317436 22.8993637635 512.581830423 c 0
 53.5623505715 528.875712535 92.8167905262 548.481288152 145.861480358 548.481288152 c 0
 178.684032083 548.481288152 228.145137065 540.890495769 248.114675283 529.433071947 c 0
 259.844546538 522.703116307 268.777464083 511.643030343 268.777464083 493.562093652 c 0
 268.777464083 471.239259503 256.058884993 440.68857867 226.051443336 376.701962349 c 0
 159.226441796 234.207117803 122.771551977 172.403280777 88.1313565627 134.776631623 c 0
 64.0099148647 108.575595139 55.3510057231 86.1932429824 55.3510057231 72.1760395937 c 0
 55.3510057231 60.1412000179 60.3293408805 53.2947176364 70.607013267 49.3890388305 c 0
 108.7151267 34.9073502372 266.100821833 34.130859375 289.029247256 34.130859375 c 0
 419.575498242 34.130859375 427.746007895 44.1036100127 452.977933395 100.070480475 c 1
 446.702754712 100.466398954 438.666894908 100.673784006 429.463604798 100.673784006 c 0
 370.414562524 100.673784006 325.304531445 94.235400087 272.463177692 94.235400087 c 0
EndSplineSet
EndChar
StartChar: bracketleft
Encoding: 91 91 69
Width: 500
Flags: HW
LayerCount: 2
Back
Fore
SplineSet
367.188536281 -27.634693867 m 0
 367.188536281 -18.155066126 367.188536281 -12.0510118025 342.922168234 -12.0510118025 c 0
 310.42648337 -12.0510118025 267.936943851 -23.2199995621 241.88489398 -23.2199995621 c 0
 199.119622305 -23.2199995621 196.974606227 9.11923823403 196.064237382 37.0345574923 c 0
 195.240378773 62.2971487937 194.835160574 144.28641711 194.835160574 237.717437942 c 0
 194.835160574 400.10581881 195.269957073 447.861320133 197.982413598 634.149414062 c 1
 334.04296875 634.149414062 l 2
 368.209450545 634.149414062 406.158596906 635.914651525 427.428169541 642.583795406 c 1
 387.267613304 667.6026555 226.449874269 701.843071868 195.39902665 701.843071868 c 0
 180.351565443 701.843071868 177.84627221 697.841897701 174.540318186 689.163835709 c 0
 157.064206217 643.289397668 139.837927266 431.072341668 139.837927266 225.153224142 c 0
 139.837927266 153.573338006 139.837927266 153.573338006 152.514545852 -88.8754849454 c 1
 240.024540664 -86.572656407 l 2
 339.395002491 -83.9583592965 367.188536281 -60.4733573765 367.188536281 -27.634693867 c 0
EndSplineSet
EndChar
StartChar: backslash
Encoding: 92 92 18
Width: 500
InSpiro: 1
Flags: HW
LayerCount: 2
Back
Fore
SplineSet
101.994976837 702.180177406 m 0
 92.1830314449 702.180177406 84.9271509257 697.111513608 84.9271509257 690.932423612 c 0
 84.9271509257 686.235953144 88.0636566599 681.234658496 92.9388217111 673.460996037 c 0
 128.850209644 616.198727932 224.904544652 339.730447883 251.92819465 254.312642305 c 0
 295.407889094 116.879686845 295.407889094 116.879686845 300.920034631 93.7032066494 c 0
 321.632270176 6.61611620516 320.185940607 39.5019432954 349.587318005 -48.7212167114 c 0
 353.132534535 -59.3591606775 358.441283577 -73.824478413 373.004126046 -73.824478413 c 0
 389.890107498 -73.824478413 412.524375388 -49.3890489592 412.524375388 -21.5985307688 c 0
 412.524375388 11.1536418328 376.096131026 53.9784552164 338.191745797 161.667689367 c 0
 321.429545102 209.290373253 320.216932474 249.062749005 293.256069479 304.768473199 c 0
 288.049455357 315.526222683 284.345285961 316.166006475 274.896823544 341.570281645 c 0
 270.612660991 353.089197588 266.355086958 364.534917035 261.948832023 375.842999162 c 0
 242.919981375 424.678077725 237.555819951 463.933179163 212.893035795 527.197423117 c 0
 157.947918321 668.141012208 135.588546297 702.180177406 101.994976837 702.180177406 c 0
EndSplineSet
EndChar
StartChar: bracketright
Encoding: 93 93 70
Width: 500
Flags: HW
LayerCount: 2
Back
Fore
SplineSet
147.717278159 0.1482587103 m 0
 122.954214422 0.1482587103 96.5317518164 -1.79244961944 96.5317518164 -27.8608191245 c 0
 96.5317518164 -56.2896179654 156.280996453 -76.3046875 231.407542246 -76.3046875 c 0
 340.4657846 -76.3046875 399.087259667 -38.0806565228 399.087259667 -22.6643984596 c 0
 399.087259667 -21.9844975124 398.991687547 -21.3865005555 398.305313666 -20.2963443776 c 0
 382.12487254 5.40278016351 377.120520785 64.8114317261 377.120520785 215.925933075 c 2
 377.120520785 215.925933075 377.365731946 332.801373168 377.3657656 332.833456667 c 0
 377.3657656 472.611356325 373.455033443 616.593766984 348.101831523 681.786691993 c 0
 343.032129531 694.822864026 341.779467156 698.043945312 228.936886279 698.043945312 c 0
 179.477168293 698.043945312 72.0643285225 698.043945312 70.9594090503 685.867035113 c 0
 70.9594090503 679.961458618 76.8931477997 668.344245282 82.6797274767 646.761606809 c 1
 93.1786788968 644.451376593 117.719321225 641.086914062 169.192493507 641.086914062 c 0
 248.354148332 641.086914062 295.929146508 632.946539562 307.608096326 601.801750492 c 0
 322.520348552 562.034566165 323.565429688 326.190703834 323.565429688 279.34765625 c 2
 323.565429688 -14.2831650133 l 1
 168.020989004 0.1482587103 168.020989004 0.1482587103 147.717278159 0.1482587103 c 0
EndSplineSet
EndChar
StartChar: asciicircum
Encoding: 94 94 71
Width: 500
InSpiro: 1
Flags: HW
LayerCount: 2
Back
Fore
SplineSet
416.562207176 463.6953125 m 0
 419.649481689 463.6953125 425.187132982 463.6953125 425.187132982 476.547372953 c 0
 425.187132982 491.091804514 415.782831193 515.181953182 396.002128433 534.962655942 c 0
 319.119536365 611.845248007 288.686870103 757.610915252 247.626123197 757.610915252 c 0
 229.74753172 757.610915252 194.800113192 738.92568106 192.391601562 728.22112862 c 1
 192.391601562 678.579808115 69.842058573 573.850359668 42.929440825 522.65958634 c 1
 70.9020124024 527.182814145 123.906720273 554.415228374 162.605123217 591.940542721 c 2
 244.495170457 671.349253178 l 1
 279.59518389 603.389765666 l 2
 318.076757461 528.882721621 386.529324375 463.6953125 416.562207176 463.6953125 c 0
  Spiro
    416.562 463.695 o
    420.167 464.17 o
    423.64 467.509 o
    425.187 476.547 o
    422.023 493.741 o
    412.347 514.28 o
    396.002 534.963 o
    332.541 626.757 o
    287.218 717.046 o
    247.626 757.611 o
    225.919 752.38 o
    203.791 740.585 o
    192.392 728.221 v
    159.68 664.315 o
    93.5736 587.599 o
    42.9294 522.66 v
    77.7488 534.274 o
    120.639 558.335 o
    162.605 591.941 [
    244.495 671.349 v
    279.595 603.39 ]
    325.483 534.121 o
    376.304 483.318 o
    0 0 z
  EndSpiro
EndSplineSet
EndChar
StartChar: underscore
Encoding: 95 95 72
Width: 500
Flags: HW
LayerCount: 2
Back
Fore
SplineSet
118.745156337 -64.7231025882 m 0
 122.100347771 -64.7231025882 423.972144512 -54.4006926337 450.404450686 -13.9765948751 c 1
 450.404450686 -13.9765948751 450.782180826 -13.2890400273 450.784605621 -13.2524843743 c 0
 450.784605621 -12.0685552041 441.280905065 14.0235794344 335.57653671 14.0235794344 c 0
 289.768046557 14.0235794344 233.62090202 8.94960001728 172.069013262 -1.0124954613 c 0
 88.2813909052 -14.5734163472 74.0634765625 -24.7297995956 74.0634765625 -48.3432386963 c 0
 74.0634765625 -58.0593071237 74.0634765625 -64.7231025882 118.745156337 -64.7231025882 c 0
EndSplineSet
EndChar
StartChar: grave
Encoding: 96 96 73
Width: 500
Flags: HW
LayerCount: 2
Back
Fore
SplineSet
344.733633294 576.093457039 m 0
 344.733633294 632.403115688 243.011591876 716.582308014 207.513173481 727.888671875 c 1
 190.941922123 727.888671875 155.757910029 742.19054256 147.827730073 744.141921738 c 1
 154.032854296 713.261305474 183.708758451 673.848956316 224.789919463 649.767129858 c 0
 225.695757096 649.236126738 293.889031642 609.074302578 293.888453813 570.70731795 c 0
 293.888453813 567.531816332 305.667518804 557.888671875 323.715532148 557.888671875 c 0
 342.65086395 557.888671875 344.733633294 567.501758026 344.733633294 576.093457039 c 0
EndSplineSet
EndChar
StartChar: a
Encoding: 97 97 74
Width: 500
InSpiro: 1
Flags: HW
LayerCount: 2
Back
Fore
SplineSet
11.5175590271 257.166928441 m 0
 12.1502732993 195.998024675 13.1853566171 193.063047054 13.1853566171 190.802300018 c 0
 13.1853566171 129.468737539 22.0691704662 76.8355878856 54.820073226 44.0846851258 c 0
 87.5911202044 11.3136381475 132.870858258 10.0000349632 136.950455981 10.0000349632 c 0
 155.439340598 10.0000349632 250.523194802 15.8409762391 300.512634814 132.838872463 c 2
 315.13535245 167.062644522 l 1
 328.342313824 132.272659168 l 2
 358.765101336 52.1324738588 385.893617676 46.0058943382 394.046055641 46.0058943382 c 0
 410.016284941 46.0058943382 423.537074412 59.3426865464 423.537074412 75.9404816432 c 0
 423.537074412 82.0535154164 422.292225273 87.9890064884 412.819238491 100.025692189 c 0
 378.680652027 143.403292621 367.761743036 207.604391797 355.189899025 284.595743896 c 0
 350.739725132 311.849097088 349.060988736 320.731397545 345.166260371 340.029612263 c 1
 351.976922192 348.656133188 355.885706994 353.607078451 355.885706994 364.042968948 c 0
 355.885706994 392.838241829 301.84026615 421.536394154 275.123511844 428.610191036 c 0
 189.170712963 451.36791953 174.297333269 449.639142028 169.688943577 450.60029718 c 0
 71.9026253628 450.60029718 10.5202582193 353.582956692 11.5175590271 257.166928441 c 0
  Spiro
    11.5176 257.167 o
    12.2304 213.306 o
    12.8941 195.411 o
    13.1854 190.802 o
    16.694 132.837 o
    29.4884 83.0041 o
    54.8201 44.0847 o
    89.7363 20.6982 o
    121.152 11.5501 o
    136.95 10 o
    176.408 15.832 o
    240.065 49.0473 o
    300.513 132.839 [
    315.135 167.063 v
    328.342 132.273 ]
    357.06 74.3277 o
    380.168 50.5508 o
    394.046 46.0059 o
    408.777 50.0705 o
    419.448 60.8162 o
    423.537 75.9405 o
    422.865 82.2202 o
    419.803 89.7989 o
    412.819 100.026 o
    385.521 149.991 o
    368.118 212.233 o
    355.19 284.596 o
    351.482 306.773 o
    348.504 323.153 o
    345.166 340.03 v
    350.968 347.763 o
    354.623 355.104 o
    355.886 364.043 o
    340.911 391.982 o
    307.9 415.145 o
    275.124 428.61 o
    210.657 444.203 o
    179.953 449.531 o
    169.689 450.6 o
    85.07 421.93 o
    30.3137 350.082 o
    0 0 z
  EndSpiro
71.5846186109 255.550039708 m 0
 71.5846186109 322.623787536 108.625674327 390.758317181 171.145650475 390.758317181 c 0
 199.548692196 390.758317181 266.64734157 366.927592003 267.571313101 366.560686039 c 2
 277.23242335 362.724291897 l 1
 275.011622725 241.994850814 261.009147924 81.333097232 136.738875964 70.0491794953 c 1
 88.0269909439 74.1731254562 73.2580265564 108.979259783 73.2580265564 195.508764479 c 0
 73.2580265564 205.876364012 73.6171525368 227.614269871 73.6171525368 227.93858799 c 0
 73.6171525368 234.27612031 71.5846186109 240.693514615 71.5846186109 255.550039708 c 0
  Spiro
    71.5846 255.55 o
    83.48 320.354 o
    117.591 370.647 o
    171.146 390.758 o
    208.521 384.577 o
    248.507 372.986 o
    267.571 366.561 [
    277.232 362.724 v
    267.458 235.822 o
    227.839 124.024 o
    136.739 70.0492 v
    98.6594 85.1529 o
    78.8792 125.495 o
    73.258 195.509 o
    73.351 208.438 o
    73.5242 221.702 o
    73.6172 227.939 o
    73.0911 234.605 o
    72.1107 243.207 o
    0 0 z
  EndSpiro
EndSplineSet
EndChar
StartChar: b
Encoding: 98 98 95
Width: 500
InSpiro: 1
Flags: HW
LayerCount: 2
Fore
SplineSet
64.7266979919 459.429515216 m 1
 57.9462360224 285.898952789 57.9462360224 285.898952789 53.4793034608 198.32999472 c 1
 55.3727140701 145.756097841 l 1
 63.0549408005 121.472485763 l 1
 71.7028997614 104.323460083 l 1
 73.6200671189 80.4489453945 l 1
 68.5156585021 58.7382482008 l 1
 67.927705742 22.5269269368 l 1
 82.3805355574 -5.26673261706 l 1
 101.289237065 -12.3612405402 l 1
 110.523366508 -11.2220951998 l 1
 120.412903738 -16.4813911208 120.412903738 -16.4813911208 122.834215403 -19.065438246 c 1
 144.919864272 -15.8520408306 l 1
 211.195719751 -24.7851120676 l 1
 273.489461745 -9.91127627221 l 1
 302.528380579 0.489271106796 309.042311526 2.82229348351 324.207707706 4.66576944535 c 1
 335.196204446 28.3691386373 325.009587718 36.2160857246 352.917471923 68.4885682098 c 0
 388.195320258 103.166058481 388.195320258 103.166058481 390.774450321 108.253820213 c 1
 394.129762587 119.61467825 395.695793803 124.401681369 401.343493292 141.604312172 c 2
 423.138661347 219.170659249 l 1
 431.769139391 280.759329083 l 1
 427.729332711 324.43787698 l 1
 408.996657769 368.717668236 l 1
 384.683867663 402.471597705 l 1
 363.84465006 415.127952959 l 2
 359.600122605 416.53664947 354.076138258 416.665889087 351.583223117 419.826197912 c 2
 342.359458316 427.608436777 l 1
 339.028000063 434.847260307 l 1
 332.387017348 439.202175631 l 1
 301.908686669 443.604205105 l 1
 260.141254702 444.840303148 217.710519563 445.41309802 175.178115267 445.884223734 c 1
 138.100851384 458.548832378 l 1
 135.466541865 492.881706193 l 1
 139.498697483 572.215837537 l 1
 136.985372992 632.492822929 l 1
 126.472606079 670.205131354 113.779401678 705.73700229 102.134171607 742.316847557 c 1
 94.074699734 749.471398766 l 1
 76.9051384661 751.968389248 l 1
 60.3285040159 749.928167663 l 1
 53.3402969818 746.948778971 l 1
 45.2846037751 698.261415692 l 1
 60.0765263912 608.052276793 l 1
 64.7266979919 459.429515216 l 1
  Spiro
    64.7267 459.43 v
    59.7933 334.159 o
    56.8711 266.321 o
    53.4793 198.33 v
    55.3727 145.756 v
    63.0549 121.472 v
    71.7029 104.323 v
    73.6201 80.4489 v
    68.5157 58.7382 v
    67.9277 22.5269 v
    82.3805 -5.26673 v
    101.289 -12.3612 v
    110.523 -11.2221 v
    117.568 -15.0162 o
    120.766 -17.054 o
    122.834 -19.0654 v
    144.92 -15.852 v
    211.196 -24.7851 v
    273.489 -9.91128 v
    296.157 -1.9251 o
    310.784 2.38146 o
    324.208 4.66577 v
    330.33 24.558 o
    335.522 42.8865 o
    352.917 68.4886 o
    377.822 93.0637 o
    387.658 103.395 o
    390.774 108.254 v
    393.748 118.118 o
    396.842 127.848 o
    401.343 141.604 [
    423.139 219.171 v
    431.769 280.759 v
    427.729 324.438 v
    408.997 368.718 v
    384.684 402.472 v
    363.845 415.128 ]
    359.338 416.269 o
    354.923 417.518 o
    351.583 419.826 [
    342.359 427.608 v
    339.028 434.847 v
    332.387 439.202 v
    301.909 443.604 v
    259.983 444.639 o
    217.613 445.359 o
    175.178 445.884 v
    138.101 458.549 v
    135.467 492.882 v
    139.499 572.216 v
    136.985 632.493 v
    125.877 669.561 o
    113.997 706.003 o
    102.134 742.317 v
    94.0747 749.471 v
    76.9051 751.968 v
    60.3285 749.928 v
    53.3403 746.949 v
    45.2846 698.261 v
    60.0765 608.052 v
    0 0 z
  EndSpiro
104.845065541 116.831264733 m 0
 104.845065541 152.890360465 118.800660328 161.587632065 118.800660328 175.388431091 c 0
 118.800660328 183.946243033 116.319882902 195.108862674 116.319882902 208.857680254 c 0
 116.319882902 217.694395562 128.566154393 322.46198964 144.677486964 347.682001093 c 0
 153.349965643 361.257539345 167.81409381 367.000605597 183.823526526 367.000605597 c 0
 200.286980739 367.000605597 212.583936507 362.853293876 223.929846301 362.853293876 c 0
 238.915767108 362.853293876 251.876454661 370.337627503 268.321663405 370.337627503 c 0
 281.079652669 370.337627503 290.213895491 364.663428596 301.60680786 357.387992587 c 0
 334.813021939 336.182731123 361.570534152 319.095566617 361.570534152 264.425571 c 0
 361.570534152 261.955128969 359.735485354 62.9091479637 218.665077538 62.9091479637 c 0
 209.556083537 62.9091479637 200.880142774 63.5704230692 192.825426193 64.3426265868 c 0
 141.704896163 69.2435380846 104.845065541 77.4301660698 104.845065541 116.831264733 c 0
  Spiro
    104.845 116.831 o
    108.457 144.951 o
    115.189 162.1 o
    118.801 175.388 o
    118.159 184.804 o
    116.962 195.984 o
    116.32 208.858 o
    120.084 243.119 o
    130.178 302.504 o
    144.677 347.682 o
    155.111 358.716 o
    168.501 365.013 o
    183.824 367.001 o
    199.003 365.927 o
    212.16 363.927 o
    223.93 362.853 o
    238.431 364.79 o
    252.849 368.401 o
    268.322 370.338 o
    280.079 368.6 o
    290.759 363.973 o
    301.607 357.388 o
    331.885 336.034 o
    353.419 308.078 o
    361.571 264.426 o
    355.886 211.172 o
    318.349 114.516 o
    218.665 62.9091 o
    209.716 63.1088 o
    201.072 63.6284 o
    192.825 64.3426 o
    147.335 71.363 o
    116.273 86.8223 o
    0 0 z
  EndSpiro
EndSplineSet
EndChar
StartChar: c
Encoding: 99 99 75
Width: 500
InSpiro: 1
Flags: HW
LayerCount: 2
Fore
SplineSet
349.059562968 329.354129339 m 0
 363.28057229 329.354129339 366.570471846 341.89629902 366.570471846 345.974958619 c 0
 366.570471846 354.27432098 360.863773303 367.507607539 360.863773303 385.701787233 c 0
 360.863773303 397.253987215 363.531966752 407.518095524 363.531966752 414.405464436 c 0
 363.531966752 415.300342337 363.576006975 415.850900025 363.576006975 416.256526774 c 0
 363.576006975 424.925650658 309.462257083 439.313868717 275.062262406 439.313868717 c 0
 203.384823942 439.313868717 49.5940114831 299.554877866 49.5940114831 184.130676025 c 0
 49.5940114831 94.020378101 134.529672395 49.444050499 170.569242545 31.0927948884 c 0
 217.791673888 7.04725537329 248.639817418 -4.00618123202 272.723222506 -4.00618123202 c 0
 316.866190353 -4.00618123202 327.804602088 26.9217150474 380.481356664 41.1253617642 c 0
 388.978483927 43.4165088693 403.844760698 47.4250197379 409.066967387 52.5915937103 c 1
 407.265429989 57.3991687809 382.58776208 84.0863374189 375.779836835 84.0863374189 c 0
 375.743336284 84.0863374189 375.707944957 84.0862066987 375.673453995 84.0862066987 c 0
 366.340138932 84.0862066987 340.962687039 61.4778623303 301.949700296 61.4778623303 c 0
 277.703661824 61.4778623303 120.41407761 90.3098152867 120.41407761 185.918123897 c 0
 120.41407761 208.544145071 128.158437491 232.966268974 142.708792126 260.812621844 c 0
 177.346361148 327.101725704 207.667411564 363.491142555 251.170473823 363.491142555 c 0
 294.392969101 363.491142555 323.331521987 329.354129339 349.059562968 329.354129339 c 0
  Spiro
    349.06 329.354 o
    359.912 332.751 o
    365.194 339.861 o
    366.57 345.975 o
    365.093 355.908 o
    362.341 369.175 o
    360.864 385.702 o
    361.554 396.737 o
    362.841 406.479 o
    363.532 414.405 o
    363.543 415.192 o
    363.565 415.796 o
    363.576 416.257 o
    348.3 426.077 o
    313.26 435.27 o
    275.062 439.314 o
    184.851 398.88 o
    92.0441 301.476 o
    49.594 184.131 o
    72.9074 108.545 o
    123.241 58.8629 o
    170.569 31.0928 o
    212.652 11.3218 o
    246.059 -0.25748 o
    272.723 -4.00618 o
    308.543 4.5229 o
    338.975 23.1319 o
    380.481 41.1254 o
    390.497 43.9649 o
    401.233 47.8361 o
    409.067 52.5916 v
    401.162 62.8796 o
    387.021 77.0018 o
    375.78 84.0863 o
    375.744 84.0863 o
    375.708 84.0862 o
    375.673 84.0862 o
    361.101 78.2348 o
    336.299 67.3292 o
    301.95 61.4779 o
    244.19 72.4704 o
    162.018 111.219 o
    120.414 185.918 o
    122.956 209.179 o
    130.472 234.073 o
    142.709 260.813 o
    176.522 316.849 o
    211.45 351.625 o
    251.17 363.491 o
    290.007 354.656 o
    321.88 338.189 o
    0 0 z
  EndSpiro
EndSplineSet
EndChar
StartChar: d
Encoding: 100 100 76
Width: 500
InSpiro: 1
Flags: HW
LayerCount: 2
Back
Fore
SplineSet
90.268827443 199.864137314 m 0
 90.268827443 283.405220976 138.562253306 370.099270098 215.133108891 370.099270098 c 0
 232.598728059 370.099270098 279.390691057 364.740798524 309.859489484 311.057133688 c 0
 316.165578098 299.946293581 316.165578098 299.946293581 331.783139246 290.950259823 c 1
 330.404068126 280.932174501 l 2
 312.717432472 152.44987761 245.214713959 84.8253719579 180.755148877 84.8253719579 c 0
 129.227057925 84.8253719579 90.268827443 129.501214799 90.268827443 199.864137314 c 0
  Spiro
    90.2688 199.864 o
    105.595 281.053 o
    148.785 344.577 o
    215.133 370.099 o
    240.652 366.73 o
    275.677 350.198 o
    309.859 311.057 o
    314.871 302.911 o
    320.567 297.687 o
    331.783 290.95 v
    330.404 280.932 ]
    298.115 173.074 o
    244.211 107.072 o
    180.755 84.8254 o
    134.435 98.9864 o
    102.255 138.818 o
    0 0 z
  EndSpiro
393.687428087 529.743530708 m 1
 393.687428087 609.660586466 403.991175974 687.621997683 403.991175974 689.220088409 c 0
 403.991175974 699.131467584 391.438752516 713.991175974 374.021413598 713.991175974 c 0
 357.895703254 713.991175974 333.69789819 706.016953127 333.69789819 538.503794627 c 0
 333.69789819 503.726303961 336.125305651 411.37954618 336.125305651 409.763351701 c 2
 336.125305651 380.071863652 l 1
 312.237515115 397.68215095 l 2
 274.480863845 425.516683211 235.888323229 430.206259081 213.627683416 430.206259081 c 0
 109.530692828 430.206259081 30.2524766002 326.256842662 30.2524766002 194.338855799 c 0
 30.2524766002 86.2283538981 101.12757578 24.7115283737 180.256691126 24.7115283737 c 0
 252.620713497 24.7115283737 303.216642926 76.2944401097 323.073641103 101.176669895 c 2
 337.698848064 119.503093507 l 1
 356.882811092 81.2831597004 363.709278408 67.6828869855 395.351547864 36.0220751481 c 0
 395.491250373 35.8931143891 402.048728046 30.0088240257 413.388107817 30.0088240257 c 0
 430.758006769 30.0088240257 443.991175974 43.5165137908 443.991175974 59.9390402311 c 0
 443.991175974 67.5679840698 441.810408971 75.15210857 429.209937952 86.797974318 c 0
 377.136565398 134.926294671 394.842907501 186.841831702 377.839897953 213.568810623 c 1
 386.772283328 248.342037449 397.993538152 292.673700943 396.401101562 380.241520702 c 2
 393.68490699 529.604602657 l 1
 393.687428087 529.743530708 l 1
  Spiro
    393.687 529.744 v
    396.354 606.183 o
    401.324 664.968 o
    403.991 689.22 o
    400.099 700.036 o
    389.519 709.779 o
    374.021 713.991 o
    356.418 705.742 o
    340.556 658.373 o
    333.698 538.504 o
    334.326 490.086 o
    335.497 436.085 o
    336.125 409.763 [
    336.125 380.072 v
    312.238 397.682 ]
    274.874 418.471 o
    240.665 427.965 o
    213.628 430.206 o
    119.902 398.431 o
    54.6148 314.015 o
    30.2525 194.339 o
    51.5179 102.388 o
    106.265 44.6251 o
    180.257 24.7115 o
    244.976 38.9808 o
    293.342 70.3276 o
    323.074 101.177 [
    337.699 119.503 v
    354.125 87.9355 o
    370.624 63.2191 o
    395.352 36.0221 o
    397.566 34.4084 o
    403.711 31.5365 o
    413.388 30.0088 o
    429.029 34.1112 o
    439.925 44.8938 o
    443.991 59.939 o
    442.961 67.6971 o
    438.636 76.3633 o
    429.21 86.798 o
    396.544 135.068 o
    387.138 179.559 o
    377.84 213.569 v
    386.967 252.731 o
    394.287 305.901 o
    396.401 380.242 [
    393.685 529.605 v
    0 0 z
  EndSpiro
395.292290081 36.0777594977 m 1
 395.261318578 36.108034903 395.271511082 36.0977024118 395.292290081 36.0777594977 c 1
  Spiro
    395.292 36.0778 v
    395.274 36.0956 o
    395.276 36.0933 o
    0 0 z
  EndSpiro
EndSplineSet
EndChar
StartChar: e
Encoding: 101 101 22
Width: 500
Flags: HW
LayerCount: 2
Fore
SplineSet
303.910031382 11.6494140625 m 0
 363.833031257 11.6494140625 424.919921875 55.5739246196 424.919921875 91.0280332931 c 0
 424.919921875 109.427496461 408.541421363 125.978515625 386.370928251 125.978515625 c 0
 374.807252175 125.978515625 358.746430065 121.883731774 349.560540494 101.785752571 c 1
 343.040786794 95.4690103575 328.683877494 81.559145169 298.152465499 81.559145169 c 0
 245.018430745 81.559145169 190.844492849 119.394519561 165.688596733 136.963534934 c 1
 188.736375898 148.117769206 l 2
 308.443017202 206.051156688 359.37109375 281.527754656 359.37109375 368.034358816 c 0
 359.37109375 426.445333597 295.117113896 463.474609375 227.085075743 463.474609375 c 0
 169.754878072 463.474609375 37.220703125 336.677462369 37.220703125 225.454729741 c 0
 37.2615267675 223.831485002 39.4802285247 150.710469052 117.394900406 84.2527516454 c 0
 170.513317329 38.9451265771 241.857551661 11.6494140625 303.910031382 11.6494140625 c 0
235.060799922 393.504571648 m 1
 255.565210256 391.038087819 281.678637142 384.127963598 281.678637142 364.929028421 c 0
 281.678637142 270.780826293 185.663944923 224.882852564 122.396419843 196.162097034 c 1
 115.75913911 219.627758837 115.75913911 219.627758837 115.75913911 227.934828009 c 0
 115.75913911 258.247139689 141.602387953 343.640377896 235.060799922 393.504571648 c 1
EndSplineSet
EndChar
StartChar: f
Encoding: 102 102 77
Width: 500
InSpiro: 1
Flags: HW
LayerCount: 2
Fore
SplineSet
159.159012577 269.268828507 m 1
 162.321846311 165.993853468 178.175560367 163.702825075 178.175560367 110.674427807 c 0
 178.175560367 50.8267307565 147.986065927 37.1419781365 147.986065927 15.9975704894 c 0
 147.986065927 -0.562075776938 161.430399017 -14.0064088671 177.990045284 -14.0064088671 c 0
 208.569218247 -14.0064088671 238.176265702 49.0003553933 238.176265702 101.103857894 c 0
 238.176265702 161.810105971 221.796556423 194.669839687 219.740588269 253.269642086 c 2
 219.159356215 269.836087172 l 1
 272.13239377 266.431909766 312.70594235 259.996200026 313.656018269 259.996200026 c 0
 325.566192377 259.996200026 340.00435278 272.85361135 340.00435278 289.992153653 c 0
 340.00435278 322.334621921 291.438218196 325.372888149 222.873038247 329.662281826 c 1
 224.617451093 350.072514143 227.38647992 382.471107037 227.640945031 390.655838818 c 0
 230.654721638 477.198668704 231.544970278 519.601387808 247.491458195 556.310026413 c 0
 269.908736694 607.914353285 310.263283316 614.931957161 326.812684739 614.931957161 c 0
 385.565177097 614.931957161 378.099184876 558.002463747 413.988798854 558.002463747 c 0
 430.792392859 558.002463747 443.996560786 571.859416757 443.996560786 586.457064409 c 0
 443.996560786 613.806063219 395.985373173 675.036196469 331.34242518 675.036196469 c 0
 217.005229436 675.036196469 173.522813775 560.098372389 171.656470401 506.504938545 c 0
 166.479539616 357.845532486 166.260500932 351.555674274 160.287749274 340.886419286 c 0
 154.610753582 330.745479554 143.76617817 329.182866057 139.066268683 328.55720795 c 0
 138.67578435 328.505226164 105.151533417 324.433935937 99.983961142 323.620160199 c 0
 70.3064152744 318.946618063 62.0030720021 305.40923243 62.0030720021 291.994136789 c 0
 62.0030720021 274.928937076 76.3150621377 261.999060579 88.7882748419 261.999060579 c 0
 89.4957273318 261.999060579 126.02974008 266.517387469 159.159012577 269.268828507 c 1
  Spiro
    159.159 269.269 v
    165.486 194.089 o
    173.956 152.374 o
    178.176 110.674 o
    170.362 64.2634 o
    155.8 36.6193 o
    147.986 15.9976 o
    152.077 0.872256 o
    162.865 -9.91533 o
    177.99 -14.0064 o
    207.158 4.22466 o
    229.384 48.1545 o
    238.176 101.104 o
    233.861 154.465 o
    225.426 201.313 o
    219.741 253.27 [
    219.159 269.836 v
    266.949 265.776 o
    300.531 261.788 o
    313.656 259.996 o
    325.769 263.957 o
    335.828 274.612 o
    340.004 289.992 o
    324.903 313.682 o
    283.662 324.665 o
    222.873 329.662 v
    224.826 352.703 o
    226.681 375.761 o
    227.641 390.656 o
    230.58 463.848 o
    235.935 516.324 o
    247.491 556.31 o
    274.312 594.417 o
    303.902 611.21 o
    326.813 614.932 o
    367.524 600.198 o
    388.512 572.737 o
    413.989 558.002 o
    429.224 562.128 o
    439.959 572.605 o
    443.997 586.457 o
    429.184 621.538 o
    389.229 658.179 o
    331.342 675.036 o
    239.611 643.31 o
    188.445 573.943 o
    171.656 506.505 o
    167.739 399.937 o
    164.736 355.507 o
    160.288 340.886 o
    153.315 333.327 o
    145.388 329.776 o
    139.066 328.557 o
    129.924 327.437 o
    112.309 325.248 o
    99.984 323.62 o
    76.9639 316.334 o
    65.248 305.105 o
    62.0031 291.994 o
    66.1678 276.646 o
    76.3122 265.976 o
    88.7883 261.999 o
    99.9647 263.27 o
    126.379 266.164 o
    0 0 z
  EndSpiro
EndSplineSet
EndChar
StartChar: g
Encoding: 103 103 26
Width: 500
InSpiro: 1
Flags: HW
LayerCount: 2
Fore
SplineSet
313.057729662 308.457647036 m 0
 313.057729662 288.940987781 315.390444967 266.468052329 315.390444967 244.764615457 c 0
 315.390444967 236.496178377 315.057337324 228.23649624 314.076531558 220.118001757 c 0
 306.58670201 158.121894164 300.73541498 113.507515915 254.895618091 113.507515915 c 0
 238.557083658 113.507515915 224.236823565 118.20926192 131.467504717 150.271739498 c 0
 128.635691531 151.250456896 73.7786292261 169.254675667 73.7786292261 225.459288876 c 0
 73.7786292261 254.627154722 89.181990853 285.123926387 128.486649741 326.26437889 c 0
 166.965277516 366.540219036 213.234591779 402.320989653 262.09805014 402.320989653 c 0
 290.828358664 402.320989653 312.674080091 389.182156159 325.949481731 372.650862656 c 2
 334.869544966 361.543086981 l 1
 324.212716156 352.060770305 l 2
 316.874426487 345.531249399 313.057729662 330.996659755 313.057729662 308.457647036 c 0
46.0552988253 -131.328057667 m 0
 46.0552988253 -167.359388351 165.984448559 -206.956984295 248.751663942 -206.956984295 c 0
 360.590416767 -206.956984295 432.995613515 -132.801787138 432.995613515 -23.3655851201 c 0
 432.995613515 58.3885111414 392.626018789 129.818469204 377.913215272 240.559353415 c 1
 393.502135149 318.295404698 419.733976135 323.538067391 419.733976135 345.75519355 c 0
 419.733976135 367.414252384 401.846329894 373.354189921 393.044667321 376.276951541 c 1
 375.911557455 412.982077629 338.352334197 462.362001218 260.271484706 462.362001218 c 0
 218.568582344 462.362001218 163.657184708 446.372724997 85.2324258003 367.947966089 c 0
 60.7471956798 343.462735968 13.7667119477 291.686620644 13.7667119477 226.343137435 c 0
 13.7667119477 128.585429466 108.141247729 94.8479020992 146.930877951 81.4412787809 c 0
 225.7149152 54.2116324857 242.63740983 53.4992425503 252.820924238 53.4992425503 c 0
 253.383192846 53.4992425503 253.924917385 53.5014143016 254.455376141 53.5014143016 c 0
 295.656766842 53.5014143016 319.563821906 73.1888807814 329.693576132 83.1469653976 c 2
 347.820569781 100.966759696 l 1
 364.437464634 41.4599228396 372.933938387 11.0331624873 372.933938387 -24.2010988334 c 0
 372.933938387 -49.4284976841 365.286822744 -146.950930133 247.044792448 -146.950930133 c 0
 165.616530705 -146.950930133 94.8272018511 -102.27876545 76.0637498781 -101.319606614 c 0
 59.542222822 -100.475051536 46.0552988253 -114.765943404 46.0552988253 -131.328057667 c 0
EndSplineSet
EndChar
StartChar: h
Encoding: 104 104 78
Width: 500
InSpiro: 1
Flags: HW
LayerCount: 2
Back
Fore
SplineSet
363.48438029 295.644441687 m 0
 363.48438029 349.273255524 338.026165112 389.991175974 313.97931725 389.991175974 c 0
 216.281942734 389.991175974 150.539514666 326.865556635 118.638733028 286.443112158 c 2
 93.9704496469 255.185184793 l 1
 75.9495177151 597.582891505 l 2
 75.1104605179 613.524978252 62.0008110089 625.991175974 45.9887943037 625.991175974 c 0
 30.9054349582 625.991175974 17.3741028316 613.700966125 16.0088240257 606.655626584 c 1
 16.0088240257 589.114077047 40.4346302982 135.025251761 40.9577617148 127.05665574 c 1
 36.8167085481 111.663572747 36.2519107913 108.839986795 36.0088240257 107.527613244 c 0
 36.0088240257 105.110167333 38.1577445397 63.5047067215 40.5685024804 51.0681806566 c 0
 45.447601864 25.8980689532 68.50328554 25.5960012056 71.9193931707 25.5960012056 c 0
 79.701726083 25.5960012056 88.3701088409 30.8502680234 93.1729130588 35.6530722415 c 0
 100.824842979 43.3050021618 102.095802847 51.6449654423 102.095802847 81.4856048315 c 0
 102.095802847 183.078062542 181.833899157 307.857275586 283.837069246 327.040431423 c 2
 298.059193445 329.715105402 l 1
 302.794764648 308.812041631 303.360424328 306.315189643 303.360424328 295.813217307 c 0
 303.360424328 244.196798199 266.008824026 180.951141035 266.008824026 123.423132067 c 0
 266.008824026 84.1098642809 307.816601826 55.3225701543 331.554275335 48.3836704265 c 0
 339.373633493 46.0979476001 375.115331894 44.0088240257 378.932227951 44.0088240257 c 0
 389.217529514 44.0088240257 403.991175974 56.6091689057 403.991175974 73.9867848201 c 0
 403.991175974 89.8475107832 391.762095186 102.873862784 376.004379387 103.924377171 c 2
 349.519489112 105.690036523 l 1
 344.292417858 107.985414272 328.350839317 114.9858822 328.350839317 138.342601383 c 0
 328.350839317 174.112126846 363.48438029 233.227763644 363.48438029 295.644441687 c 0
  Spiro
    363.484 295.644 o
    356.007 343.898 o
    337.479 377.472 o
    313.979 389.991 o
    227.08 372.161 o
    161.696 331.208 o
    118.639 286.443 [
    93.9704 255.185 v
    75.9495 597.583 ]
    71.3752 612.021 o
    60.6733 622.176 o
    45.9888 625.991 o
    31.8288 622.55 o
    21.028 614.791 o
    16.0088 606.656 v
    22.3499 476.5 o
    34.2681 250.833 o
    40.9578 127.057 v
    37.8904 115.452 o
    36.4789 109.75 o
    36.0088 107.528 o
    36.654 94.6002 o
    38.3169 70.6717 o
    40.5685 51.0682 o
    50.0931 33.2889 o
    63.3697 26.6036 o
    71.9194 25.596 o
    79.8132 27.1332 o
    87.2644 30.9156 o
    93.1729 35.6531 o
    98.8831 44.2948 o
    101.484 58.0588 o
    102.096 81.4856 o
    126.5 185.934 o
    191.465 277.504 o
    283.837 327.04 [
    298.059 329.715 v
    301.536 313.981 o
    303.039 304.617 o
    303.36 295.813 o
    293.693 241.02 o
    275.676 182.155 o
    266.009 123.423 o
    277.706 88.0689 o
    304.04 62.1658 o
    331.554 48.3837 o
    346.445 46.2355 o
    366.709 44.6339 o
    378.932 44.0088 o
    389.989 47.9117 o
    399.788 58.5047 o
    403.991 73.9868 o
    400.244 88.5512 o
    390.251 99.2285 o
    376.004 103.924 [
    349.519 105.69 v
    341.718 109.979 o
    332.67 120.02 o
    328.351 138.343 o
    337.444 181.103 o
    354.391 235.129 o
    0 0 z
  EndSpiro
EndSplineSet
EndChar
StartChar: i
Encoding: 105 105 25
Width: 500
Flags: HW
LayerCount: 2
Back
Fore
SplineSet
207.477784385 662.653219653 m 0
 248.447950381 614 248.447950381 614 262 614 c 0
 280.314425237 614 294 626.748911266 294 642 c 0
 294 645.170116712 291.080657028 655.558631169 284.522215615 663.346780347 c 0
 243.552049619 712 243.552049619 712 230 712 c 0
 212.292279783 712 200 700.146612351 200 684.047373864 c 0
 200 679.303488332 202.353475875 668.738336008 207.477784385 662.653219653 c 0
185 319 m 0
 192.312820317 319 232.499852223 317.641206427 236 287.889950573 c 1
 236 287 l 2
 236 277.959188761 224 223.745440229 224 161 c 0
 224 123.067262801 228.510178545 63.4245788041 254.01495237 29.2909348078 c 1
 300.328023038 -11.1460500278 307.444288356 -12.0016707224 311.479939045 -12.0016707224 c 0
 311.658269278 -12.0016707224 311.83058417 -12.0000000008 312 -12 c 0
 325.714992822 -12 343.392339111 -1.43437877209 343.392339111 9.60709917697 c 0
 343.392339111 13.3906504189 337.371414894 29.5217323689 329.83474977 38.4587071222 c 0
 319.170372029 51.1045223566 305.523077646 49.4151418519 294.570206749 65.2560436859 c 0
 286.7474926 76.5698670726 284 91.7282637987 284 116 c 0
 284 120.39587944 283.005874665 156.576535709 283.005874665 156.576535709 c 1
 283 156.788023659 l 1
 283 157 l 2
 283 158.745882462 284 179.489352686 284 187 c 0
 284 249.763149873 295 260.776113282 295 283 c 0
 295 337.661620195 279.363016408 372 214 372 c 0
 197.353917308 372 131.793848122 372.998081025 130.963423108 372.999290879 c 0
 130.503376762 372.932059986 88.5389385232 366 85 366 c 0
 75.9528874339 366 72 366 72 341 c 0
 72 335.117048949 74.2126289368 310 112 310 c 0
 134.022867761 310 159.996082232 319 185 319 c 0
EndSplineSet
EndChar
StartChar: j
Encoding: 106 106 79
Width: 500
InSpiro: 1
Flags: HW
LayerCount: 2
Back
Fore
SplineSet
272.000635506 600.008824013 m 0
 288.433129136 600.008824013 301.991175974 613.139124941 301.991175974 631.056175138 c 0
 301.991175974 649.237395548 286.240346089 656.891376202 244.600106665 669.990984833 c 0
 243.066525941 669.990984833 241.532945218 669.991175987 239.999364494 669.991175987 c 0
 223.566870864 669.991175987 210.008824026 656.860875059 210.008824026 638.943824862 c 0
 210.008824026 620.762604452 225.759653911 613.108623798 267.399893335 600.009015167 c 0
 268.933474059 600.009015167 270.467054782 600.008824013 272.000635506 600.008824013 c 0
  Spiro
    272.001 600.009 o
    287.066 604.069 o
    297.875 615.058 o
    301.991 631.056 o
    296.377 646.307 o
    277.961 658.126 o
    244.6 669.991 o
    243.068 669.991 o
    241.531 669.991 o
    239.999 669.991 o
    224.934 665.931 o
    214.125 654.942 o
    210.009 638.944 o
    215.623 623.693 o
    234.039 611.874 o
    267.4 600.009 o
    268.932 600.009 o
    270.469 600.009 o
    0 0 z
  EndSpiro
190.968791584 37.9254754193 m 0
 156.223216929 37.9254754193 171.766594257 71.9911759743 133.332943061 71.9911759743 c 0
 117.575509811 71.9911759743 104.008824026 58.6836608197 104.008824026 42.0434464746 c 0
 104.008824026 17.2886244101 144.351133271 -22.0327728394 184.19243476 -22.0327728394 c 0
 188.053466743 -22.0327728394 188.982072309 -22.0396966906 189.392508966 -22.0461551977 c 0
 316.90733282 -21.9316371823 347.055165162 156.806219513 349.991175974 216.508288032 c 0
 351.927408866 255.880455302 335.989603904 304.280123715 328.863181009 324.705508124 c 0
 292.492395187 415.538546754 279.431454228 415.991175974 271.981065959 415.991175974 c 0
 255.407242949 415.991175974 242.008824026 402.585366679 242.008824026 386.037262531 c 0
 242.008824026 368.476032961 285.384143148 296.88378556 289.934983942 217.069900441 c 1
 282.060491073 150.748743709 258.70957266 37.9254754193 190.968791584 37.9254754193 c 0
  Spiro
    190.969 37.9255 o
    169.137 46.7422 o
    157.622 63.1745 o
    133.333 71.9912 o
    118.74 67.9325 o
    108.102 57.19 o
    104.009 42.0434 o
    115.921 14.4574 o
    145.732 -10.9417 o
    184.192 -22.0328 o
    187.163 -22.0348 o
    188.721 -22.0398 o
    189.393 -22.0462 o
    286.98 26.499 o
    335.415 128.258 o
    349.991 216.508 o
    346.965 257.478 o
    337.928 296.361 o
    328.863 324.706 o
    299.63 388.702 o
    281.944 412.52 o
    271.981 415.991 o
    256.858 411.91 o
    246.089 401.144 o
    242.009 386.037 o
    253.403 352.211 o
    275.508 292.377 o
    289.935 217.07 v
    275.852 141.229 o
    244.942 69.5748 o
    0 0 z
  EndSpiro
EndSplineSet
EndChar
StartChar: k
Encoding: 107 107 80
Width: 500
InSpiro: 1
Flags: HW
LayerCount: 2
Back
Fore
SplineSet
112.038413602 165.433490937 m 0
 112.038413602 96.0952623877 104.008824026 80.1837233227 104.008824026 37.4982774077 c 0
 104.008824026 21.5354496056 117.336183879 8.00882402568 133.978909301 8.00882402568 c 0
 147.873041569 8.00882402568 161.546513298 16.9885001111 165.065393152 44.465391123 c 0
 171.33901198 93.4524403839 176.807163487 133.142078122 214.211425553 194.094981551 c 2
 223.505475285 209.240296135 l 1
 236.86820078 197.563716746 l 2
 303.650342716 139.208332409 317.257701342 63.9221886362 319.326869161 44.7127208542 c 0
 322.014632483 19.7604175944 335.645826201 10.0088240257 350.018723719 10.0088240257 c 0
 367.578762553 10.0088240257 379.991175974 25.1129113247 379.991175974 33.9895833698 c 0
 379.991175974 36.4133290569 377.356898279 159.858573363 268.522003427 249.210528286 c 2
 257.55138541 258.217255107 l 1
 299.498282437 315.557864509 318.951114893 340.940512405 341.16291563 340.940512405 c 0
 349.138547653 340.940512405 355.772030675 337.262600234 360.427710493 333.180743185 c 1
 360.427710493 333.180743185 370.355764592 328.008824026 380.046467069 328.008824026 c 0
 396.588556477 328.008824026 409.991175974 341.415362267 409.991175974 357.943644981 c 0
 409.991175974 376.544316771 385.441401036 404.267099214 345.079502668 404.267099214 c 0
 286.015778866 404.267099214 242.05222411 341.658452174 217.809610436 307.134464036 c 0
 208.397515066 293.730667182 200.735634665 282.271838713 191.869935922 274.246841394 c 2
 169.221902177 253.746436928 l 1
 166.855316553 284.192904915 l 1
 155.884860909 404.084041606 143.211226897 542.588442597 141.739297591 586.433076591 c 0
 141.07643825 606.177791971 139.001271391 667.991175974 109.992746463 667.991175974 c 0
 93.4093107364 667.991175974 80.0088240257 654.592181788 80.0088240257 638.003999525 c 0
 80.0088240257 530.888542655 112.038413602 285.773100766 112.038413602 165.433490937 c 0
  Spiro
    112.038 165.433 o
    109.96 110.976 o
    106.087 74.1957 o
    104.009 37.4983 o
    108.073 22.7714 o
    118.825 12.0992 o
    133.979 8.00882 o
    147.419 11.3475 o
    158.539 22.8179 o
    165.065 44.4654 o
    172.274 91.439 o
    186.26 139.148 o
    214.211 194.095 [
    223.505 209.24 v
    236.868 197.564 ]
    287.432 136.33 o
    311.884 79.862 o
    319.327 44.7127 o
    325.276 24.6409 o
    336.284 13.4541 o
    350.019 10.0088 o
    365.58 14.2458 o
    376.13 23.8378 o
    379.991 33.9896 o
    375.291 70.943 o
    345.743 154.334 o
    268.522 249.211 [
    257.551 258.217 v
    292.906 305.112 o
    318.959 332.254 o
    341.163 340.941 o
    348.661 339.838 o
    355.142 337.003 o
    360.428 333.181 v
    363.355 331.842 o
    370.662 329.347 o
    380.046 328.009 o
    395.149 332.089 o
    405.912 342.85 o
    409.991 357.944 o
    402.147 378.2 o
    379.818 396.405 o
    345.08 404.267 o
    291.269 386.788 o
    248.418 347.618 o
    217.81 307.134 o
    208.88 294.446 o
    200.435 283.351 o
    191.87 274.247 [
    169.222 253.746 v
    166.855 284.193 v
    155.806 405.973 o
    146.46 515.325 o
    141.739 586.433 o
    139.665 616.317 o
    130.955 651.264 o
    109.993 667.991 o
    94.862 663.911 o
    84.0894 653.138 o
    80.0088 638.004 o
    88.2986 494.791 o
    103.749 317.458 o
    0 0 z
  EndSpiro
EndSplineSet
EndChar
StartChar: l
Encoding: 108 108 81
Width: 500
InSpiro: 1
Flags: HW
LayerCount: 2
Fore
SplineSet
189.514285088 613.890127032 m 0
 204.041509053 613.890127032 226.820148542 604.060116821 226.820148542 542.406806454 c 0
 226.820148542 523.176404145 223.931687275 513.871330222 223.931687275 485.469615071 c 0
 223.931687275 465.270830531 225.650009609 449.308420705 225.650009609 425.588006482 c 0
 225.650009609 356.86342729 211.445908678 302.225125543 211.445908678 249.009717305 c 0
 211.445908678 225.106845458 214.144369723 201.363266801 221.013474413 167.055630623 c 0
 224.961074568 147.339403254 228.930270735 124.321303924 231.872449695 104.426394693 c 0
 237.757464444 64.632134769 239.896547933 50.1677284772 320.26882441 13.6392226211 c 0
 326.665437344 11.2741238992 332.321566197 10.3520141202 337.271068128 10.3520141202 c 0
 359.937031131 10.3520141202 374.131434427 31.0204469928 374.131434427 44.725732518 c 0
 374.131434427 72.147916446 330.657566256 49.6662997917 301.566284571 79.1321082479 c 0
 261.151284595 120.06741873 258.169050899 323.438115709 258.169050899 325.944098116 c 0
 258.169050899 373.651106272 266.741207188 457.299477785 266.741207188 527.023538186 c 0
 266.741207188 542.639538053 266.687212444 600.921250224 253.756749966 624.226886437 c 0
 241.647512182 646.052361828 199.116586969 667.395032991 182.486457301 669.224238349 c 0
 177.627858074 668.189684368 178.88768312 668.362558605 176.047045395 666.249799926 c 0
 156.550891577 651.749279606 125.592800823 648.669451109 114.627531418 644.22793302 c 0
 104.098204753 639.962994959 91.2982904994 628.074039739 81.8181355998 625.89493918 c 1
 89.3139511502 609.976310561 81.3175526957 598.606789456 92.8823039374 589.744454663 c 0
 101.061924466 583.476223373 117.597946871 581.564309181 122.87726795 581.564309181 c 0
 146.583591184 581.564309181 163.983802506 613.890127032 189.514285088 613.890127032 c 0
  Spiro
    189.514 613.89 o
    205.626 609.069 o
    220.388 588.309 o
    226.82 542.407 o
    226.073 525.426 o
    224.679 508.562 o
    223.932 485.47 o
    224.376 466.257 o
    225.205 447.147 o
    225.65 425.588 o
    221.974 361.151 o
    215.122 303.113 o
    211.446 249.01 o
    212.398 224.788 o
    215.484 198.211 o
    221.013 167.056 o
    224.926 146.498 o
    228.63 125.103 o
    231.872 104.426 o
    239.533 71.3483 o
    262.975 44.5413 o
    320.269 13.6392 o
    326.414 11.7373 o
    332.09 10.678 o
    337.271 10.352 o
    356.885 16.2074 o
    369.621 29.7381 o
    374.131 44.7257 o
    361.806 59.2801 o
    333.277 63.216 o
    301.566 79.1321 o
    272.372 160.648 o
    260.433 270.035 o
    258.169 325.944 o
    260.388 383.719 o
    264.523 454.578 o
    266.741 527.024 o
    266.25 553.95 o
    262.864 592.176 o
    253.757 624.227 o
    233.619 645.167 o
    205.637 661.608 o
    182.486 669.224 o
    179.291 668.463 o
    177.898 667.729 o
    176.047 666.25 o
    153.919 655.091 o
    131.071 648.684 o
    114.628 644.228 o
    103.56 638.071 o
    92.1868 630.662 o
    81.8181 625.895 v
    85.4471 611.43 o
    86.5421 599.507 o
    92.8823 589.744 o
    103.109 584.841 o
    114.583 582.291 o
    122.877 581.564 o
    144.995 589.931 o
    166.181 605.524 o
    0 0 z
  EndSpiro
72.8026644968 638.620260881 m 1
 72.8026644968 638.620260881 72.806851058 638.612200629 72.8026644968 638.620260881 c 1
  Spiro
    72.8027 638.62 v
    72.8036 638.618 o
    72.8045 638.617 o
    0 0 z
  EndSpiro
EndSplineSet
EndChar
StartChar: m
Encoding: 109 109 20
Width: 500
InSpiro: 1
Flags: HW
LayerCount: 2
Back
Fore
SplineSet
15.0087890625 396.712461081 m 0
 15.0087890625 364.72200017 67.900390625 367.518174742 67.900390625 275.387100104 c 0
 67.900390625 244.992842013 61.5087890625 212.704052426 61.5087890625 173.120052987 c 0
 61.5087890625 94.5702493055 87.7330705814 25.0087890625 120.07279826 25.0087890625 c 0
 135.317221145 25.0087890625 148.991210938 38.2533521147 148.991210938 54.9552343903 c 0
 148.991210938 71.5810781104 121.5390625 98.3641430217 121.5390625 167.131024981 c 0
 121.5390625 210.661813207 128.015625 242.283825475 128.015625 276.690280005 c 0
 128.015625 292.100342457 128.015625 300.431300771 121.33427734 333.717305541 c 1
 140.160914725 340.712703836 147.622910617 343.485351562 162.191968615 343.485351562 c 0
 190.680841934 343.485351562 203.17622162 327.863896593 209.825307651 319.551352226 c 1
 211.083368993 290.61053036 222.03515625 295.728924431 222.03515625 270.310231384 c 0
 222.03515625 238.578489289 212.8984375 199.179094599 212.8984375 155.607346453 c 0
 212.8984375 154.235030372 213.874309041 28.0087890625 263.407074611 28.0087890625 c 0
 278.226664066 28.0087890625 291.991210938 41.199165061 291.991210938 57.9611331663 c 0
 291.991210938 71.4164361977 272.889648438 96.0569142334 272.889648438 155.206636755 c 0
 272.889648438 194.07112939 282.109375 235.720671341 282.109375 270.694678406 c 0
 282.109375 280.199804201 282.109375 283.23211048 279.081744769 306.122384593 c 1
 297.857930611 314.506854654 315.226363503 322.262695312 339.55676983 322.262695312 c 0
 350.126041642 322.262695312 392.112304688 319.509280181 392.112304688 275.758065963 c 0
 392.112304688 242.796978153 367.237304688 199.419485505 367.237304688 144.542945697 c 0
 367.237304688 93.6578508717 390.558787771 35.0087890625 421.704008793 35.0087890625 c 0
 437.416287983 35.0087890625 450.991210938 48.3129823014 450.991210938 64.9473846368 c 0
 450.991210938 83.4112284426 427.22265625 98.1147441464 427.22265625 144.527728462 c 0
 427.22265625 188.054068401 452.096679688 231.247641441 452.096679688 276.451076766 c 0
 452.096679688 337.326550905 407.553527459 382.25390625 338.662932219 382.25390625 c 0
 301.783047618 382.25390625 274.953206519 370.057018129 254.517475085 360.766902357 c 1
 247.157338038 368.380827647 l 2
 224.478726134 391.841431117 193.04026335 403.485351562 161.035138973 403.485351562 c 0
 140.249589632 403.485351562 121.544365268 398.542786812 106.188559407 391.955762605 c 2
 95.9019693456 387.543228456 l 1
 83.3825019166 402.634731618 63.1587591143 427.013298853 47.7659923891 427.013298853 c 0
 47.1864166587 427.013298853 46.6511454323 426.991210938 46.1211661897 426.991210938 c 0
 28.1667797962 426.991210938 15.0087890625 413.496833409 15.0087890625 396.712461081 c 0
EndSplineSet
EndChar
StartChar: n
Encoding: 110 110 27
Width: 500
InSpiro: 1
Flags: HW
LayerCount: 2
Back
Fore
SplineSet
254.511352317 335.169167625 m 0
 282.101928131 335.169167625 283.075809649 282.933900362 283.075809649 282.333270673 c 0
 283.075809649 277.046251314 282.339421923 274.750546572 282.339421923 269.648672159 c 0
 282.339421923 263.033093136 283.680244246 248.193377142 291.314117629 210.883107456 c 0
 301.90612419 159.115072881 296.676716554 130.058279255 304.316079928 102.518303529 c 0
 307.174556989 92.2134672486 317.549391912 56.2972245316 361.79804604 56.2972245316 c 0
 391.294219977 56.2972245316 414.072316402 72.1731325571 414.746751547 75.7821516566 c 0
 409.006401997 82.4988048769 390.44500613 89.5086143551 378.045263811 103.099276634 c 0
 362.063464412 120.616030827 361.622822967 126.493790376 343.613189908 240.919049321 c 0
 335.115691906 294.908400793 341.805442506 340.031840415 333.11904438 369.435378893 c 0
 323.280928277 402.737493437 299.270847345 414.203774042 275.87712321 414.203774042 c 0
 259.689561456 414.203774042 243.832954225 407.315056085 239.261568379 403.319366634 c 0
 234.009558301 398.728767203 226.058058596 392.701193657 190.113405556 376.985657169 c 0
 167.444708647 367.074565996 147.930881675 328.970657521 128.667724855 328.970657521 c 0
 110.703475181 328.970657521 106.245765128 347.931076167 101.775775745 366.943723695 c 0
 89.5593389668 418.905101369 89.5593389668 418.905101369 87.9774918368 420.687569189 c 0
 81.9803471947 427.445312796 44.0150252651 438.161336157 34.5749370115 438.161336157 c 0
 34.36516198 438.161336157 34.1611873603 438.162906278 33.9621229898 438.162906278 c 0
 23.5576688633 438.162906278 14.8873433417 385.658794928 14.8873433417 382.815393251 c 0
 14.8873433417 364.897876135 52.8041904325 378.538323748 52.8041904325 333.007769612 c 0
 52.8041904325 329.340472374 51.6233689865 307.566230603 51.6233689865 307.30897148 c 0
 51.6233689865 274.263850943 74.9782340427 258.63819746 74.9782340427 213.636755791 c 0
 74.9782340427 191.02850244 69.2007254931 171.081792077 69.2007254931 150.492266049 c 0
 69.2007254931 130.192403215 74.2342652853 111.890117901 76.949414354 83.252523501 c 0
 78.6620258261 65.1890317886 81.9067539533 62.8832707787 94.0278645013 56.8576137561 c 0
 110.277129934 48.7797647852 111.715573665 45.8751830582 119.82080995 42.047912839 c 0
 120.243987043 42.4163360394 120.303052389 42.3185596852 120.303052389 43.0326048326 c 0
 120.303052389 43.309122099 120.294194588 43.7073850889 120.294194577 44.3016149657 c 0
 120.294194577 48.2243496908 118.925282455 54.970070428 118.925282455 63.1106700889 c 0
 118.925282455 93.3515207353 139.788178244 110.211079554 139.788178244 125.118388352 c 0
 139.788178244 125.705025879 139.76605918 126.319263976 139.76605918 127.074617109 c 0
 139.76605918 154.241055876 157.110176162 177.165118031 157.110176162 194.826933842 c 0
 157.110176162 200.596051351 156.20305518 207.772048641 156.20305518 212.883802392 c 0
 156.20305518 223.696649501 158.819400139 231.113800697 168.308775771 264.195886651 c 0
 178.01935653 298.049143158 206.359238019 311.179567273 222.267805449 318.817590766 c 0
 243.451377566 328.988250205 241.468182771 335.169167625 254.511352317 335.169167625 c 0
EndSplineSet
EndChar
StartChar: o
Encoding: 111 111 82
Width: 500
InSpiro: 1
Flags: HW
LayerCount: 2
Back
Fore
SplineSet
21.9326100506 187.924864596 m 0
 21.9326100506 121.053042838 77.1302715766 13.0210676889 211.512129975 13.0210676889 c 0
 270.682322001 13.0210676889 326.273121171 34.5561601005 348.431708305 47.9439140652 c 0
 407.980452643 83.9220174186 426.091833504 151.159654627 426.091833504 214.285588798 c 0
 426.091833504 265.32893262 413.530451815 312.202040462 405.717858114 328.190754386 c 0
 387.421082913 365.635669053 321.805900343 432.981252623 226.951708247 432.981252623 c 0
 176.863141765 432.981252623 120.889659257 416.610560591 103.09051028 405.107160405 c 0
 99.0651647478 401.336511819 77.7304625689 372.765728989 72.0852036657 360.605032247 c 0
 63.4315404347 341.963801425 58.5469812154 306.325453503 37.3782523351 256.434259615 c 0
 32.7318172698 245.483380417 21.9326100506 220.031434566 21.9326100506 187.924864596 c 0
  Spiro
    21.9326 187.925 o
    41.1808 112.936 o
    102.721 43.4507 o
    211.512 13.0211 o
    268.33 19.089 o
    316.276 32.9553 o
    348.432 47.9439 o
    394.997 92.9789 o
    419.205 151.161 o
    426.092 214.286 o
    422.552 262.904 o
    414.463 302.93 o
    405.718 328.191 o
    372.366 371.954 o
    311.317 414.169 o
    226.952 432.981 o
    176.582 428.319 o
    131.944 417.434 o
    103.091 405.107 o
    94.5295 394.612 o
    81.7257 376.691 o
    72.0852 360.605 o
    63.9536 336.429 o
    53.8491 301.433 o
    37.3783 256.434 o
    31.3156 240.96 o
    24.8992 217.496 o
    0 0 z
  EndSpiro
77.0837831913 176.20253849 m 0
 77.0837831913 254.564270472 155.66244981 372.520081314 243.287848262 372.520081314 c 0
 302.325271046 372.520081314 365.443927995 320.358495939 365.443927995 240.157695117 c 0
 365.443927995 138.072224892 267.108956991 66.6940195204 187.066811195 66.6940195204 c 0
 124.180755606 66.6940195204 77.0837831913 111.307783243 77.0837831913 176.20253849 c 0
  Spiro
    77.0838 176.203 o
    100.657 261.84 o
    161.327 339.098 o
    243.288 372.52 o
    301.142 356.058 o
    346.928 310.06 o
    365.444 240.158 o
    337.038 149.891 o
    268.808 88.9374 o
    187.067 66.694 o
    130.652 80.637 o
    91.5953 119.018 o
    0 0 z
  EndSpiro
EndSplineSet
EndChar
StartChar: p
Encoding: 112 112 83
Width: 500
InSpiro: 1
Flags: HW
LayerCount: 2
Back
Fore
SplineSet
119.153320312 191.81385758 m 0
 119.153320312 207.049309421 120.409179688 221.311304625 120.409179688 236.265503377 c 0
 120.409179688 243.054309774 115.720821702 283.146178774 115.720821702 293.934466431 c 0
 115.720821702 308.843477963 120.403941598 329.677261887 141.929771817 344.246987455 c 0
 167.342288119 361.447410609 252.999275951 368.04574373 254.146400731 368.04574373 c 0
 313.948776303 368.04574373 358.737304688 292.742516883 358.737304688 241.344077589 c 0
 358.737304688 186.544145098 316.611719104 162.361101071 295.070383658 149.994861973 c 0
 282.083622503 142.539549188 266.733117784 133.755315784 243.805159275 116.301965975 c 0
 223.78564161 101.062595899 204.734559467 93.150095575 186.532251689 93.150095575 c 0
 148.640664491 93.150095575 119.153320312 128.522536682 119.153320312 191.81385758 c 0
  Spiro
    119.153 191.814 o
    119.478 206.772 o
    120.084 221.495 o
    120.409 236.266 o
    119.196 251.815 o
    116.934 275.72 o
    115.721 293.934 o
    117.728 310.349 o
    125.579 328.058 o
    141.93 344.247 o
    182.013 358.051 o
    230.232 365.703 o
    254.146 368.046 o
    307.795 346.658 o
    344.937 296.98 o
    358.737 241.344 o
    347.039 196.09 o
    321.122 166.974 o
    295.07 149.995 o
    281.118 141.834 o
    264.382 131.125 o
    243.805 116.302 o
    224.123 103.537 o
    205.003 95.7607 o
    186.532 93.1501 o
    152.253 104.642 o
    128.184 138.149 o
    0 0 z
  EndSpiro
87.3113577255 -186.294468754 m 0
 98.9706006093 -186.294468754 113.105621457 -177.630843477 113.105621457 -135.618146219 c 0
 113.105621457 -135.369925311 112.833185603 -111.620412757 112.833185603 -110.797550562 c 0
 112.833185603 -65.3928906521 121.55736436 -52.5269902759 121.55736436 -30.9242590267 c 0
 121.55736436 -12.8626213566 117.90687228 3.04717982403 117.90687228 14.2776781881 c 0
 117.90687228 20.8732847198 119.591943403 54.8703885586 154.33255394 54.8703885586 c 0
 181.953367607 54.8703885586 192.475437112 33.7803468417 232.808374824 33.7803468417 c 0
 298.02673463 33.7803468417 425.799258081 100.940165022 425.799258081 236.510470351 c 0
 425.799258081 339.43410578 346.942495364 432.33927816 254.186390075 432.33927816 c 0
 182.632424091 432.33927816 157.892615009 389.085942542 134.185330918 389.085942542 c 0
 99.8419987837 389.085942542 106.447301212 439.725644884 69.1934857756 439.725644884 c 0
 60.2438450422 439.725644884 43.8136292388 434.981388608 43.126023826 400.345479374 c 0
 43.1220513175 397.774552016 43.062637774 359.323114387 43.0626201315 359.300280647 c 0
 43.0626201315 295.101753124 43.4643043526 173.59013095 45.7291106964 137.748910414 c 0
 52.0726292235 37.360880715 52.1185287758 36.6070464145 52.1185287758 16.1062075922 c 2
 52.1185287758 15.8840041049 l 1
 48.7555566162 -99.5978569372 l 2
 48.7662768089 -124.156852588 52.2572023835 -186.294468754 87.3113577255 -186.294468754 c 0
  Spiro
    87.3114 -186.294 o
    99.1692 -182.501 o
    109.017 -167.406 o
    113.106 -135.618 o
    113.035 -129.266 o
    112.904 -117.532 o
    112.833 -110.798 o
    115.091 -74.7387 o
    119.299 -51.1231 o
    121.557 -30.9243 o
    120.613 -13.6899 o
    118.852 1.59509 o
    117.907 14.2777 o
    119.626 27.7151 o
    129.465 45.8279 o
    154.333 54.8704 o
    177.97 49.412 o
    200.701 39.2388 o
    232.808 33.7803 o
    311.743 56.1684 o
    390.322 123.787 o
    425.799 236.51 o
    401.965 332.938 o
    339.827 404.493 o
    254.186 432.339 o
    196.587 421.145 o
    159.903 400.281 o
    134.185 389.086 o
    110.367 402.192 o
    94.9512 426.619 o
    69.1935 439.726 o
    58.6218 437.219 o
    48.1924 425.931 o
    43.126 400.345 o
    43.1079 388.585 o
    43.0782 369.363 o
    43.0626 359.3 o
    43.2502 281.38 o
    44.0324 196.774 o
    45.7291 137.749 o
    50.2021 66.198 o
    51.8724 34.4256 o
    52.1185 16.1062 [
    52.1185 15.884 v
    48.7556 -99.5979 ]
    50.961 -132.951 o
    61.7553 -169.305 o
    0 0 z
  EndSpiro
EndSplineSet
EndChar
StartChar: q
Encoding: 113 113 84
Width: 500
Flags: HW
LayerCount: 2
Fore
SplineSet
338.846679688 191.81385758 m 0
 338.846679688 172.089263158 334.704392824 93.6643243758 268.825777186 93.6643243758 c 0
 244.358755299 93.6643243758 228.090644462 105.884909375 213.518673321 116.831356304 c 0
 203.073348954 124.677871216 190.206123696 134.378909684 166.44902129 147.911837115 c 0
 142.725843047 161.425440084 99.262695312 185.647659702 99.262695312 241.344077589 c 0
 99.262695312 289.525812209 140.84735848 368.063452274 205.411551757 368.063452274 c 0
 223.168474808 368.063452274 237.788165398 362.940611723 261.001078424 360.002177358 c 0
 289.717910857 356.367022771 342.182775858 349.725695072 342.182775858 294.969980183 c 0
 342.182775858 277.284351644 337.590820312 245.807953825 337.590820312 236.265503377 c 0
 337.590820312 221.311304625 338.846679688 207.049309421 338.846679688 191.81385758 c 0
344.894378543 -135.618146223 m 0
 344.894378543 -148.18654836 344.894378543 -186.247555298 373.268026108 -186.247555298 c 0
 384.306136848 -186.247555298 409.244045727 -174.180339537 409.244045727 -98.8366930448 c 0
 409.244045727 -61.1276222518 405.881471224 -22.8250445489 405.881471224 16.106207594 c 0
 405.881471224 35.6262582953 406.303885882 53.5042898719 410.331273356 109.637841057 c 0
 412.957585154 146.243260505 414.937361624 173.837298701 414.937361624 359.32390405 c 0
 414.937361624 380.840909604 414.897588804 396.064262571 414.8796606 399.622870121 c 2
 414.8796606 400.219779341 l 2
 414.689429274 410.434144725 414.159557 438.885342062 389.70321214 438.885342062 c 0
 346.232284766 438.885342062 361.839230201 389.52140804 323.666570916 389.52140804 c 0
 302.554995439 389.52140804 299.642902235 404.217817578 274.468936157 416.103879647 c 0
 250.899491957 427.232355622 227.811252093 432.141861074 205.816665048 432.141861074 c 0
 112.176794822 432.141861074 32.0880805682 341.169392215 32.0880805682 237.29069765 c 0
 32.0880805682 105.825359683 154.502057974 33.8377103319 226.202186795 33.8377103319 c 0
 264.851856373 33.8377103319 277.667270823 55.2686397913 304.640498293 55.2686397913 c 0
 336.763296827 55.2686397913 339.889107729 22.5307618789 339.889107729 12.4487115783 c 0
 339.889107729 1.62121127235 336.38494761 -13.7448155808 336.38494761 -31.1467377538 c 0
 336.38494761 -51.6528042714 345.166814397 -65.066315644 345.166814397 -110.797550558 c 0
 345.166814397 -111.620412755 344.894378543 -135.369925315 344.894378543 -135.618146223 c 0
EndSplineSet
EndChar
StartChar: r
Encoding: 114 114 23
Width: 500
InSpiro: 1
Flags: HW
LayerCount: 2
Back
Fore
SplineSet
71.6892011526 469.35774257 m 1
 55.3339871949 450.178836787 54.7735664931 310.441489049 54.7735664931 290.162126383 c 0
 54.7735664931 287.327853282 54.9168765846 40.5403007333 79.4379978101 7.8100307221 c 1
 111.676319454 14.4423899167 172.018929324 95.9633666039 189.947005213 226.96962312 c 0
 193.807330562 255.178270607 197.797938223 263.768152517 221.430795455 286.962348826 c 0
 250.706484608 315.694637716 273.962753088 331.466264884 306.662257714 331.466264884 c 0
 344.167318411 331.466264884 389.468119829 311.271641569 407.907181898 310.562187325 c 0
 408.218635029 312.573808655 408.612304688 316.477324139 408.612304688 323.357768741 c 0
 408.612304688 358.22674003 401.071728593 438.409856438 331.709138963 438.409856438 c 0
 291.998164193 438.409856438 235.603568721 409.847721474 175.658104929 344.452636688 c 0
 156.371860994 323.413087109 148.706790018 318.31091256 138.784435148 318.31091256 c 0
 116.776367188 318.31091256 116.776367188 346.229330394 116.776367188 357.933683328 c 0
 116.776367188 424.702917293 85.239939564 467.023810907 71.6892011526 469.35774257 c 1
EndSplineSet
EndChar
StartChar: s
Encoding: 115 115 24
Width: 500
InSpiro: 1
Flags: HW
LayerCount: 2
Back
Fore
SplineSet
136.534527667 317.947605562 m 0
 136.534527667 343.08664899 157.863599715 371.886557024 255.620192583 371.886557024 c 0
 282.842349118 371.886557024 294.474927353 369.906592919 320.408447506 369.906592919 c 0
 340.951010066 369.906592919 372.591607673 371.438688982 387.200959487 379.522007699 c 1
 368.581448462 400.516178102 289.463730775 422.634632473 280.054537644 424.39358442 c 1
 255.628674105 417.518023276 135.566577567 401.508090341 96.1920409804 379.469438874 c 0
 76.7360202682 368.57954666 70.01171875 356.289628082 70.01171875 317.76670248 c 0
 70.01171875 261.086033354 81.9478278842 243.857129131 138.797980186 217.537477062 c 0
 164.636358826 205.575202411 219.223871184 177.896222837 223.829908096 155.631647684 c 0
 224.790690707 155.090630626 232.988725792 150.713867188 246.722489345 150.713867188 c 0
 274.823585466 150.713867188 301.439453125 137.963233293 301.439453125 118.241577817 c 0
 301.439453125 96.8371145017 281.31182352 79.8984375 100.580470282 79.8984375 c 0
 88.7039061422 79.8984375 78.7508392449 79.7519915988 70.7759423088 79.5008553724 c 1
 110.856461338 53.7224285108 175.116264782 36.9047959123 254.322849944 30.0721751275 c 0
 269.302849468 28.7799510543 282.244029552 28.0571497102 293.48271628 28.0571497102 c 0
 332.409513459 28.0571497102 351.971576765 36.4709882877 374.070298856 60.7861148653 c 0
 391.352740782 79.8019095924 398.151903223 95.8397907038 398.151903223 108.041747504 c 0
 398.151903223 156.334724349 310.817811729 163.22237882 196.553694458 242.078991786 c 0
 157.95069678 268.719915639 136.534527667 293.84278295 136.534527667 317.947605562 c 0
EndSplineSet
EndChar
